<?xml version="1.0" encoding="UTF-8"?>
<svg version="1.1" xmlns="http://www.w3.org/2000/svg" width="1017" height="245">
<path d="M0 0 C4.47968093 3.11258484 8.50673269 6.39681883 12.3125 10.3125 C16.42364798 14.53725483 20.83728552 18.1928393 25.43359375 21.875 C28.2563179 24.21223278 30.79802456 26.70615508 33.34375 29.3359375 C35.68295431 31.6861758 38.1888437 33.82009049 40.69921875 35.984375 C43.5077302 38.44480269 46.25461879 40.96974992 49 43.5 C52.30013347 46.53904534 55.6094976 49.56156459 59 52.5 C62.39051098 55.43844285 65.69958784 58.46124951 69 61.5 C75.52699524 67.50565022 82.15828903 73.35558845 89 79 C94.4791491 75.05619714 99.49676557 70.84895269 104.375 66.1875 C105.68557976 64.94986591 106.99677849 63.71288696 108.30859375 62.4765625 C108.93878418 61.88133789 109.56897461 61.28611328 110.21826172 60.67285156 C116.00374392 55.24093542 121.97268211 50.0118212 127.953125 44.796875 C134.08925123 39.4101993 140.11493832 33.90138492 146.125 28.375 C150.03776419 24.77792054 153.9876765 21.23179979 158 17.74609375 C165.94344623 10.82903449 165.94344623 10.82903449 173.4375 3.4375 C176 1 176 1 179 1 C179.2574767 15.57742974 179.45118501 30.15455686 179.56993389 44.73380184 C179.62654913 51.50405525 179.70366324 58.27289238 179.82983398 65.04223633 C179.95159164 71.57794899 180.01516933 78.11274471 180.04364967 84.64953804 C180.06393904 87.14035735 180.10356254 89.63109824 180.16303062 92.12129021 C180.63483661 112.70072183 180.63483661 112.70072183 176.5879364 117.49061584 C173.81192465 119.78761153 171.21965632 121.41131826 168 123 C166.27019395 124.28854525 166.27019395 124.28854525 164.87109375 125.56640625 C159.7729401 129.7480379 154.6563277 133.90394191 149.4921875 138.00390625 C147.73414232 139.41199573 145.99060225 140.83828901 144.2578125 142.27734375 C143.36835938 143.01082031 142.47890625 143.74429688 141.5625 144.5 C140.75941406 145.1703125 139.95632812 145.840625 139.12890625 146.53125 C137 148 137 148 134 148 C133.67 121.6 133.34 95.2 133 68 C118.81 82.19 104.62 96.38 90 111 C86.35857986 109.17928993 84.57891048 107.82322474 81.78222656 105.00927734 C80.95029785 104.17710693 80.11836914 103.34493652 79.26123047 102.48754883 C78.39643066 101.61251709 77.53163086 100.73748535 76.640625 99.8359375 C75.83866699 99.03196533 75.03670898 98.22799316 74.21044922 97.3996582 C71.2181461 94.39689644 68.23459529 91.38542308 65.25 88.375 C58.5675 81.65125 51.885 74.9275 45 68 C45 94.4 45 120.8 45 148 C44.34 148.33 43.68 148.66 43 149 C37.73581107 144.81142659 32.49629253 140.59470301 27.28222656 136.34399414 C14.46781211 125.44690152 14.46781211 125.44690152 0.84982014 115.65011024 C-1 114 -1 114 -1.49498463 111.86888695 C-1.49259627 111.03965029 -1.49020792 110.21041363 -1.48774719 109.35604858 C-1.49469101 108.40257034 -1.50163483 107.4490921 -1.50878906 106.46672058 C-1.495979 105.422444 -1.48316895 104.37816742 -1.4699707 103.30224609 C-1.4721611 102.20126083 -1.4743515 101.10027557 -1.47660828 99.96592712 C-1.47892431 96.31812746 -1.452638 92.67112988 -1.42578125 89.0234375 C-1.42086026 86.4966355 -1.41755948 83.96982987 -1.41581726 81.44302368 C-1.40816927 76.14515783 -1.38811802 70.84756609 -1.35668945 65.54980469 C-1.31635752 58.74212344 -1.29899645 51.93459248 -1.28938007 45.12680626 C-1.28020102 38.65482735 -1.25951814 32.18288635 -1.23828125 25.7109375 C-1.2348855 24.4669154 -1.23148975 23.2228933 -1.2279911 21.94117355 C-1.21647366 18.44038412 -1.19796276 14.93970889 -1.17700195 11.43896484 C-1.17431305 10.3906398 -1.17162415 9.34231476 -1.16885376 8.26222229 C-1.16169846 7.3143837 -1.15454315 6.3665451 -1.14717102 5.38998413 C-1.14289754 4.56150152 -1.13862406 3.73301891 -1.13422108 2.87943077 C-1 1 -1 1 0 0 Z " fill="#2861F6" transform="translate(9,77)"/>
<path d="M0 0 C4.06007713 0.85875795 6.83562359 2.81300766 10.125 5.25 C10.72828125 5.68892578 11.3315625 6.12785156 11.953125 6.58007812 C13.27029635 7.53862691 14.5856507 8.49967623 15.89941406 9.46289062 C18.82400528 11.60296807 21.76330124 13.72243065 24.70239258 15.8425293 C26.24456991 16.95504039 27.78606531 18.06849735 29.3269043 19.18286133 C33.85007934 22.45399619 38.38731787 25.70408869 42.9375 28.9375 C48.41868033 32.83720142 53.83960745 36.81529412 59.25 40.8125 C65.79699489 45.64641766 72.35278822 50.46754025 78.9375 55.25 C79.68870117 55.79889893 80.43990234 56.34779785 81.21386719 56.91333008 C81.91543945 57.4214624 82.61701172 57.92959473 83.33984375 58.453125 C83.95206787 58.89817383 84.56429199 59.34322266 85.19506836 59.80175781 C87.06612853 61.04390083 88.97282314 62.03768476 91 63 C104.22600026 53.49104843 117.36203357 43.86550713 130.45996094 34.18115234 C138.87572517 27.96000911 147.28952085 21.74332266 155.84033203 15.70849609 C159.04396683 13.43607376 162.19279158 11.10538206 165.3125 8.71875 C166.04057861 8.1633252 166.76865723 7.60790039 167.51879883 7.03564453 C168.93759045 5.94922997 170.35171012 4.85667987 171.76049805 3.75732422 C172.72016479 3.02280029 172.72016479 3.02280029 173.69921875 2.2734375 C174.54746216 1.61480713 174.54746216 1.61480713 175.4128418 0.94287109 C177 0 177 0 180 0 C180.27346838 5.81627078 180.472199 11.6287491 180.60424805 17.44995117 C180.65931882 19.42620048 180.73420715 21.40200657 180.82983398 23.37670898 C181.60300024 39.76204512 181.60300024 39.76204512 177.74414062 45.14941406 C174.94294378 47.43460096 172.14318471 49.22444618 169 51 C167.74466675 52.00411398 166.51285436 53.03924949 165.3203125 54.1171875 C164.79091064 54.57311279 164.26150879 55.02903809 163.71606445 55.4987793 C162.92848755 56.18000854 162.92848755 56.18000854 162.125 56.875 C160.93386016 57.90004924 159.7424474 58.92478142 158.55078125 59.94921875 C157.96119629 60.45630371 157.37161133 60.96338867 156.76416016 61.48583984 C153.95548852 63.89649325 151.13642916 66.29474689 148.3125 68.6875 C147.77657227 69.14165283 147.24064453 69.59580566 146.68847656 70.0637207 C143.28419602 72.93926677 139.84043994 75.76065494 136.375 78.5625 C132.63925277 81.59982492 129.0445309 84.74164227 125.5 88 C121.09461295 92.04971133 116.56100342 95.87423287 111.90625 99.6328125 C108.05889563 102.76654469 104.27922599 105.97690238 100.50244141 109.19506836 C97.37763092 111.85297004 94.21663546 114.45399149 91 117 C88.21176763 115.71076019 86.01003398 114.31380469 83.71484375 112.27734375 C83.10769531 111.74367188 82.50054687 111.21 81.875 110.66015625 C81.235625 110.09167969 80.59625 109.52320313 79.9375 108.9375 C78.58308686 107.74749539 77.22761261 106.55869743 75.87109375 105.37109375 C75.20835449 104.79085449 74.54561523 104.21061523 73.86279297 103.61279297 C71.4494934 101.52337528 68.98339328 99.50538675 66.5 97.5 C61.46651459 93.42242873 56.57666691 89.19494085 51.69189453 84.94189453 C46.03180374 80.01639601 40.31364039 75.16335689 34.57519531 70.32958984 C33.0131617 69.01110952 31.45516521 67.68802024 29.8984375 66.36328125 C23.59791324 61.0052856 17.25294585 55.70315479 10.875 50.4375 C10.13991211 49.8293042 9.40482422 49.2211084 8.64746094 48.59448242 C7.9568457 48.02576416 7.26623047 47.4570459 6.5546875 46.87109375 C5.94093262 46.36505615 5.32717773 45.85901855 4.69482422 45.33764648 C3.18760507 44.14806802 1.59762464 43.0650831 0 42 C-0.36076355 40.16500854 -0.36076355 40.16500854 -0.34057617 37.91748047 C-0.34034958 37.07675995 -0.34012299 36.23603943 -0.33988953 35.36984253 C-0.32440567 34.46146637 -0.30892181 33.55309021 -0.29296875 32.6171875 C-0.28872391 31.68778351 -0.28447906 30.75837952 -0.28010559 29.80081177 C-0.26328012 26.82524944 -0.22562103 23.85035844 -0.1875 20.875 C-0.17245816 18.86068685 -0.15876888 16.84636311 -0.14648438 14.83203125 C-0.11336394 9.88776121 -0.06155529 4.94399451 0 0 Z " fill="#2763F8" transform="translate(8,21)"/>
<path d="M0 0 C6.6 0 13.2 0 20 0 C20.33 22.44 20.66 44.88 21 68 C23.64 65.36 26.28 62.72 29 60 C31.8359375 57.79296875 31.8359375 57.79296875 34.375 56.1875 C35.20773437 55.64480469 36.04046875 55.10210937 36.8984375 54.54296875 C45.06801187 50.47875984 52.822843 49.47111495 61.875 49.5625 C62.93493164 49.57079834 63.99486328 49.57909668 65.08691406 49.58764648 C72.6714803 49.75174127 79.16524827 50.50554047 86 54 C87.03253906 54.52078125 88.06507813 55.0415625 89.12890625 55.578125 C103.03868335 63.15596676 112.15165226 74.89204001 117 90 C121.72237279 108.59548343 119.95060436 127.84935917 110.93359375 144.77734375 C103.63987265 156.93354558 92.18842771 165.32870826 78.65625 169.34375 C77.7796875 169.5603125 76.903125 169.776875 76 170 C74.84371094 170.28810547 74.84371094 170.28810547 73.6640625 170.58203125 C58.15352489 173.01550269 43.10390715 170.80186971 30 162 C26.76931603 159.18488119 23.82532271 156.21955378 21 153 C20.87882813 154.07121094 20.75765625 155.14242187 20.6328125 156.24609375 C20.46402399 157.64328752 20.29472687 159.04041991 20.125 160.4375 C20.04636719 161.14455078 19.96773437 161.85160156 19.88671875 162.58007812 C19.66072324 164.39673432 19.33699273 166.20062522 19 168 C15.82606311 169.58696844 12.41825795 169.1431447 8.9375 169.125 C7.81891602 169.13080078 7.81891602 169.13080078 6.67773438 169.13671875 C1.12663501 169.12663501 1.12663501 169.12663501 0 168 C-0.09695318 165.83573826 -0.12186765 163.66824747 -0.12025452 161.5018158 C-0.12110894 160.81492457 -0.12196337 160.12803335 -0.12284368 159.42032725 C-0.12450045 157.10172545 -0.11897393 154.78319483 -0.11352539 152.46459961 C-0.11324354 150.80930076 -0.11340122 149.15400178 -0.1139679 147.498703 C-0.11425594 142.99063067 -0.10835819 138.48258471 -0.10139394 133.97451854 C-0.09516145 129.26862263 -0.09455668 124.56272618 -0.09336853 119.85682678 C-0.0902549 110.93911366 -0.08204109 102.02141273 -0.07201904 93.10370499 C-0.06085888 82.95393703 -0.0553477 72.8041685 -0.05032361 62.65439594 C-0.03985851 41.76959029 -0.02205808 20.88479634 0 0 Z M29.6015625 80.91796875 C21.17077716 91.87798969 19.82248096 105.69896682 21 119 C22.74510326 129.1944956 27.27488333 138.18972156 35.2734375 144.91015625 C45.12822197 151.75469086 55.62806556 154.67052608 67.5859375 152.5390625 C78.71533646 149.5548388 86.79894221 143.7240606 93 134 C98.77000382 122.77776069 100.09331675 108.51205622 96.8125 96.27734375 C93.28860111 86.40026178 88.58475256 77.69929919 79.21875 72.4375 C61.89650185 64.24202776 42.96736232 66.91134291 29.6015625 80.91796875 Z " fill="#033FF0" transform="translate(510,34)"/>
<path d="M0 0 C9.4025651 8.35610021 15.08743573 20.07143639 15.85220337 32.6517334 C16.02534245 37.54436497 15.9777676 42.43365542 15.92578125 47.328125 C15.92084717 49.12318558 15.91755493 50.91825135 15.91581726 52.71331787 C15.90823364 56.44495507 15.88783191 60.17620089 15.85668945 63.90771484 C15.81677191 68.69956485 15.79901921 73.49116363 15.78938007 78.28316116 C15.77944415 82.8606832 15.75956564 87.43814373 15.73828125 92.015625 C15.73318763 93.32743618 15.73318763 93.32743618 15.7279911 94.6657486 C15.71647846 97.12131727 15.69797625 99.57672275 15.67700195 102.03222656 C15.67431305 102.76561752 15.67162415 103.49900848 15.66885376 104.25462341 C15.61492561 109.26007439 15.61492561 109.26007439 14.5 110.375 C11.84346557 110.47502455 9.21870728 110.51377463 6.5625 110.5 C5.82064453 110.50386719 5.07878906 110.50773437 4.31445312 110.51171875 C-1.24672998 110.50163501 -1.24672998 110.50163501 -3.5 109.375 C-3.9140625 106.21484375 -3.9140625 106.21484375 -4.125 102.3125 C-4.23714844 100.37697266 -4.23714844 100.37697266 -4.3515625 98.40234375 C-4.40054688 97.40332031 -4.44953125 96.40429688 -4.5 95.375 C-5.16 95.375 -5.82 95.375 -6.5 95.375 C-6.995 96.035 -7.49 96.695 -8 97.375 C-8.495 98.035 -8.99 98.695 -9.5 99.375 C-10.16 99.375 -10.82 99.375 -11.5 99.375 C-11.995 100.86 -11.995 100.86 -12.5 102.375 C-23.48138499 111.78761571 -36.57978595 112.94934108 -50.5 112.375 C-61.23693698 111.39764553 -71.08619407 107.39556243 -78.5 99.375 C-84.89434364 91.30802151 -87.64741879 81.59021447 -86.5 71.375 C-84.67203704 61.48876697 -79.9667626 53.396752 -71.64453125 47.65234375 C-60.87471837 41.23753717 -50.00345948 39.29292044 -37.62890625 39.05859375 C-36.706577 39.03781265 -35.78424774 39.01703156 -34.83396912 38.99562073 C-31.91021617 38.93064362 -28.98637939 38.87148316 -26.0625 38.8125 C-24.07095514 38.76926539 -22.07941852 38.72564958 -20.08789062 38.68164062 C-15.22534463 38.57501593 -10.36271496 38.47360497 -5.5 38.375 C-5.79225774 36.46523059 -6.09186645 34.55658525 -6.39453125 32.6484375 C-6.56057861 31.58544434 -6.72662598 30.52245117 -6.89770508 29.42724609 C-8.20411443 22.80676386 -11.05997221 17.82092854 -16.3828125 13.62890625 C-23.73261196 9.27598074 -32.40989848 8.25302245 -40.63671875 10.06640625 C-47.27312688 11.87495989 -53.27316747 13.69699336 -57.5 19.375 C-59.44567238 22.98270455 -60.96441406 26.55930162 -62.5 30.375 C-69.43 30.375 -76.36 30.375 -83.5 30.375 C-81.99574097 16.83666875 -77.67702725 8.96694197 -66.9609375 0.328125 C-48.22411977 -12.60525361 -18.6911639 -13.55806814 0 0 Z M-59.5 62.375 C-63.46998188 67.68776987 -65.041034 72.77438526 -64.5 79.375 C-62.12878859 86.28244194 -58.59310543 89.77116756 -52.125 93.125 C-43.54057386 96.06776729 -32.95699534 95.66505757 -24.7734375 91.75 C-14.21169337 85.36214101 -8.81721195 76.12166397 -5.5 64.375 C-5.06550209 61.38233805 -4.75442648 58.38794515 -4.5 55.375 C-8.78261912 55.32464814 -13.06507039 55.28884329 -17.34790039 55.26513672 C-18.79747528 55.25522892 -20.24703103 55.24169886 -21.6965332 55.22412109 C-42.00133318 54.26704079 -42.00133318 54.26704079 -59.5 62.375 Z " fill="#033FEF" transform="translate(294.5,92.625)"/>
<path d="M0 0 C8.51765086 6.50212894 14.97336265 15.87066971 17.17698669 26.46670532 C17.69479659 30.3337458 17.75730481 34.12860603 17.73852539 38.02099609 C17.73867142 38.82166504 17.73881744 39.62233398 17.7389679 40.44726562 C17.7382748 43.07685109 17.73051076 45.7063645 17.72265625 48.3359375 C17.72078993 50.16582195 17.71936704 51.99570691 17.71836853 53.82559204 C17.71456023 58.62926628 17.7047444 63.43291003 17.69366455 68.23657227 C17.68341411 73.14338773 17.67886314 78.05020815 17.67382812 82.95703125 C17.66312056 92.57553635 17.64553747 102.19401086 17.625 111.8125 C12.015 111.8125 6.405 111.8125 0.625 111.8125 C-1.46336672 107.63576657 -1.7445619 105.16038582 -2 100.5625 C-2.07476563 99.29921875 -2.14953125 98.0359375 -2.2265625 96.734375 C-2.27554688 95.77015625 -2.32453125 94.8059375 -2.375 93.8125 C-2.7875 94.39257812 -3.2 94.97265625 -3.625 95.5703125 C-10.80983564 105.28908572 -18.76594034 110.82579392 -30.625 113.5625 C-46.99890923 114.65409395 -60.0114983 112.98723195 -73.625 103.5625 C-80.76623584 96.42126416 -83.84801366 87.26620792 -84.46484375 77.36328125 C-84.2571701 69.15565742 -81.58351687 60.91735463 -76.25390625 54.5859375 C-64.98533428 43.94990491 -50.6260088 40.62749133 -35.6015625 40.71484375 C-34.6778183 40.7162587 -33.7540741 40.71767365 -32.80233765 40.71913147 C-29.86819138 40.72470391 -26.93412299 40.73725131 -24 40.75 C-22.00390736 40.75501856 -20.00781351 40.75958085 -18.01171875 40.76367188 C-13.13278275 40.77466431 -8.25390455 40.7919099 -3.375 40.8125 C-3.65157286 38.57297577 -3.94040345 36.33496313 -4.234375 34.09765625 C-4.39389648 32.85121338 -4.55341797 31.60477051 -4.71777344 30.32055664 C-5.88606553 24.08460231 -8.77263043 20.48939839 -13.0625 16 C-19.73502729 11.59361405 -27.42569234 9.7018432 -35.375 10.8125 C-42.9612721 12.44803004 -50.55712039 14.34052549 -55.375 20.8125 C-57.32067238 24.42020455 -58.83941406 27.99680162 -60.375 31.8125 C-67.305 31.8125 -74.235 31.8125 -81.375 31.8125 C-80.045299 19.84519097 -76.30302218 11.97302554 -67.375 3.8125 C-48.82200287 -10.02520052 -19.72739375 -12.6231835 0 0 Z M-57.859375 64.34765625 C-61.24718465 68.5253204 -62.54942522 72.44635955 -62.375 77.8125 C-61.85080492 82.695791 -60.47893857 86.83694649 -57.0234375 90.4921875 C-49.31259501 96.66817035 -39.82750194 96.792457 -30.375 95.8125 C-21.7996977 93.94322429 -14.91705301 88.71484269 -9.80859375 81.64453125 C-5.08132665 73.67167778 -3.19046975 65.9904519 -3.375 56.8125 C-7.51520334 56.76210898 -11.65523234 56.72632605 -15.7956543 56.70263672 C-17.19672768 56.69273514 -18.59778133 56.67921031 -19.9987793 56.66162109 C-40.47892571 55.7525238 -40.47892571 55.7525238 -57.859375 64.34765625 Z " fill="#043FEE" transform="translate(734.375,91.1875)"/>
<path d="M0 0 C11.12442487 8.37682595 18.50494655 19.82650127 21.26049805 33.5703125 C21.86099307 37.86396193 21.84188544 42.12566916 21.78125 46.453125 C21.7802832 47.81050781 21.7802832 47.81050781 21.77929688 49.1953125 C21.73458759 55.81228741 21.73458759 55.81228741 20.59375 56.953125 C17.7938528 57.04831868 15.01868826 57.07866444 12.21850586 57.06665039 C10.90155479 57.06686943 10.90155479 57.06686943 9.55799866 57.0670929 C6.64150565 57.06639344 3.72507567 57.05859955 0.80859375 57.05078125 C-1.20779892 57.04891718 -3.22419204 57.04749323 -5.24058533 57.04649353 C-10.55890138 57.04266744 -15.8771903 57.03283639 -21.19549561 57.02178955 C-26.61795688 57.01157738 -32.04042252 57.00699633 -37.46289062 57.00195312 C-48.11068903 56.9912142 -58.75846726 56.97413669 -69.40625 56.953125 C-68.95926986 59.00915801 -68.50464056 61.06352889 -68.046875 63.1171875 C-67.79454102 64.2613916 -67.54220703 65.4055957 -67.28222656 66.58447266 C-64.94273415 75.58121634 -60.41327333 83.23948073 -52.390625 88.19921875 C-42.75730646 93.21810417 -32.94720528 94.58560732 -22.23046875 92.265625 C-11.72594413 88.77864587 -7.91249724 83.86437003 -2.40625 73.953125 C4.52375 73.953125 11.45375 73.953125 18.59375 73.953125 C15.79290723 83.28926756 13.5132145 87.79820057 7.59375 94.953125 C6.99691406 95.68789062 6.40007812 96.42265625 5.78515625 97.1796875 C-1.66820169 105.48256796 -13.27742301 111.11648978 -24.40625 111.953125 C-42.38227704 112.78792502 -58.18047313 109.9676948 -72.40625 98.203125 C-84.81756638 86.0765807 -90.2186237 70.50591495 -90.69213867 53.47583008 C-90.89601049 35.58561065 -86.53402703 19.31041058 -73.79296875 6.13671875 C-53.69879027 -12.24731688 -22.73470741 -15.54844932 0 0 Z M-61.80078125 19.90234375 C-66.85144786 26.35392518 -68.38319938 31.76872006 -69.40625 39.953125 C-46.30625 39.953125 -23.20625 39.953125 0.59375 39.953125 C0.59375 30.72421891 -1.34523162 24.89889684 -7.19921875 17.76953125 C-14.35963772 10.90438729 -23.63196698 8.38124742 -33.35546875 7.8515625 C-44.07597479 8.20845515 -54.42911929 12.02461804 -61.80078125 19.90234375 Z " fill="#033FEF" transform="translate(981.40625,93.046875)"/>
<path d="M0 0 C8.53306031 6.15676504 13.46939261 13.86545999 15.375 24.1875 C15.6225 25.8375 15.87 27.4875 16.125 29.1875 C9.195 29.1875 2.265 29.1875 -4.875 29.1875 C-5.41125 27.640625 -5.9475 26.09375 -6.5 24.5 C-8.85095795 18.60593167 -11.53228522 16.27669674 -16.875 12.9375 C-24.54425925 10.06152778 -33.24670191 10.30974215 -40.859375 13.14453125 C-45.18041724 15.38041939 -47.30384245 18.5097247 -48.875 23.125 C-48.875 27.17976143 -48.48880776 30.06849505 -45.875 33.1875 C-37.59986581 38.5784669 -28.37070051 40.92387847 -18.875 43.1875 C-5.65475752 46.33899215 7.55991614 49.8678163 16.125 61.1875 C20.39583004 68.3254607 20.98238275 78.05260108 19.375 86.0625 C16.80588075 95.37138663 11.07942359 103.22095293 2.625 108.0625 C1.13976679 108.80129525 -0.36023652 109.51131384 -1.875 110.1875 C-2.55691406 110.49429688 -3.23882813 110.80109375 -3.94140625 111.1171875 C-17.90301664 116.85483561 -35.87367233 115.49037712 -49.69140625 110.0859375 C-52.18381649 108.90632349 -54.52248251 107.62446531 -56.875 106.1875 C-57.58269531 105.75695312 -58.29039062 105.32640625 -59.01953125 104.8828125 C-67.90904229 98.86582033 -73.32390137 89.50281187 -75.875 79.1875 C-75.875 77.5375 -75.875 75.8875 -75.875 74.1875 C-68.945 74.1875 -62.015 74.1875 -54.875 74.1875 C-53.6375 76.971875 -53.6375 76.971875 -52.375 79.8125 C-48.59033425 87.35517892 -43.53705044 92.00848319 -35.40625 94.71875 C-26.79748697 96.31296538 -16.6132 96.56761321 -8.875 92.1875 C-4.77839815 88.40124678 -2.99283174 84.98443399 -2.625 79.375 C-2.73162097 75.21678198 -3.30211015 72.5927954 -5.875 69.1875 C-12.65054883 64.86515272 -19.92624442 62.91656005 -27.6875 61.1875 C-41.78315117 57.84559859 -55.84800045 54.36044236 -65.875 43.1875 C-66.431875 42.589375 -66.98875 41.99125 -67.5625 41.375 C-71.9051508 34.13724867 -71.60701696 25.70347642 -69.8125 17.75 C-67.26730058 9.20286519 -61.9571261 3.02274671 -54.33984375 -1.52734375 C-37.73671217 -10.1841271 -16.01511276 -9.82506095 0 0 Z " fill="#033FEF" transform="translate(849.875,90.8125)"/>
<path d="M0 0 C7.26 0 14.52 0 22 0 C24.60304589 7.1520392 27.20550714 14.30429082 29.8074646 21.45672607 C30.72480206 23.97831061 31.64231327 26.49983183 32.55996704 29.02130127 C37.12021767 41.55208076 41.67922347 54.08321309 46.1875 66.6328125 C46.49391922 67.48508423 46.80033844 68.33735596 47.11604309 69.2154541 C48.51551429 73.10880958 49.91198349 77.00319664 51.3034668 80.89941406 C51.78944711 82.25329243 52.27552431 83.60713602 52.76171875 84.9609375 C53.17381592 86.11384277 53.58591309 87.26674805 54.01049805 88.45458984 C54.76355239 90.89783813 54.76355239 90.89783813 56 92 C56.22169357 91.38867722 56.44338715 90.77735443 56.67179871 90.14750671 C75.62763101 37.88330594 75.62763101 37.88330594 83.6875 16.1875 C83.95871674 15.45639008 84.22993347 14.72528015 84.5093689 13.97201538 C85.25866977 11.95344416 86.00972819 9.93553929 86.76171875 7.91796875 C87.3798645 6.25930786 87.3798645 6.25930786 88.01049805 4.56713867 C89 2 89 2 90 0 C96.93 0 103.86 0 111 0 C110.16399874 5.01600756 108.94230321 9.11055295 107.0625 13.75 C106.41733789 15.37735421 105.77284479 17.00497375 105.12890625 18.6328125 C104.78230957 19.50454102 104.43571289 20.37626953 104.07861328 21.27441406 C102.19003417 26.04673123 100.34378429 30.83523051 98.5 35.625 C98.09096436 36.68710693 97.68192871 37.74921387 97.26049805 38.84350586 C92.57476059 51.04973451 88.00056926 63.29777793 83.41723633 75.54272461 C80.02729647 84.59866296 76.63212728 93.6521814 73.1875 102.6875 C72.88054199 103.49292236 72.57358398 104.29834473 72.25732422 105.12817383 C71.50867397 107.08690245 70.75470235 109.04359529 70 111 C69.64550781 111.97582031 69.29101562 112.95164062 68.92578125 113.95703125 C68 116 68 116 66 117 C62.52732371 117.2917032 59.04601039 117.2778267 55.5625 117.3125 C54.11133789 117.35600586 54.11133789 117.35600586 52.63085938 117.40039062 C51.70208984 117.40876953 50.77332031 117.41714844 49.81640625 117.42578125 C48.96506104 117.44036377 48.11371582 117.45494629 47.23657227 117.4699707 C44.18700403 116.82916524 43.6839628 115.566357 42 113 C41.02127075 110.8769989 41.02127075 110.8769989 40.15673828 108.5534668 C39.82358109 107.66821823 39.49042389 106.78296967 39.14717102 105.87089539 C38.79180771 104.9067421 38.4364444 103.94258881 38.0703125 102.94921875 C37.68719406 101.9266951 37.30407562 100.90417145 36.90934753 99.85066223 C35.64202668 96.46510396 34.3835865 93.07631389 33.125 89.6875 C31.33225684 84.88826281 29.53514301 80.09066516 27.73828125 75.29296875 C27.26938822 74.03909895 26.80051119 72.78522317 26.33164978 71.53134155 C22.94439463 62.47979776 19.50658197 53.44835623 16.04296875 44.42578125 C15.55565032 43.15541604 15.06834554 41.88504559 14.58105469 40.6146698 C12.69372207 35.69591476 10.80506105 30.77768136 8.90997314 25.86190796 C7.59933246 22.4613212 6.29342169 19.05895073 4.98828125 15.65625 C4.59754929 14.64714066 4.20681732 13.63803131 3.804245 12.5983429 C3.44772354 11.66676865 3.09120209 10.7351944 2.72387695 9.77539062 C2.2580999 8.56622986 2.2580999 8.56622986 1.78291321 7.3326416 C1 5 1 5 0 0 Z " fill="#033EF0" transform="translate(323,86)"/>
<path d="M0 0 C0.83265381 0.00523682 1.66530762 0.01047363 2.52319336 0.01586914 C3.42231445 0.0190918 4.32143555 0.02231445 5.24780273 0.02563477 C6.66609375 0.03820312 6.66609375 0.03820312 8.11303711 0.05102539 C9.06243164 0.05553711 10.01182617 0.06004883 10.98999023 0.06469727 C13.34356776 0.07652429 15.69702188 0.09300514 18.05053711 0.11352539 C18.0738668 15.2207723 18.09151663 30.32801782 18.10234928 45.43527889 C18.10751209 52.44937173 18.1145545 59.46345339 18.12597656 66.47753906 C18.13698399 73.24020607 18.1428133 80.00285903 18.14541435 86.76553535 C18.14726914 89.3520482 18.15089078 91.93856036 18.15626717 94.52506828 C18.16347362 98.13391394 18.16452822 101.74271086 18.1640625 105.3515625 C18.16765778 106.43265289 18.17125305 107.51374329 18.17495728 108.62759399 C18.17358261 109.60501053 18.17220795 110.58242706 18.17079163 111.58946228 C18.17171342 112.44396438 18.17263521 113.29846647 18.17358494 114.17886257 C18.05053711 116.11352539 18.05053711 116.11352539 17.05053711 117.11352539 C14.06187069 117.21363835 11.10143258 117.25226514 8.11303711 117.23852539 C7.27579102 117.24239258 6.43854492 117.24625977 5.57592773 117.25024414 C4.77477539 117.24895508 3.97362305 117.24766602 3.14819336 117.24633789 C2.41093018 117.24520996 1.67366699 117.24408203 0.9140625 117.24291992 C-0.94946289 117.11352539 -0.94946289 117.11352539 -2.94946289 116.11352539 C-2.97279267 101.13666233 -2.99044245 86.15980067 -3.00127506 71.18292332 C-3.00643785 64.22936459 -3.01348023 57.27581712 -3.02490234 50.32226562 C-3.03590983 43.6179533 -3.0417391 36.91365514 -3.04434013 30.20933342 C-3.04619491 27.64514926 -3.04981653 25.08096577 -3.05519295 22.51678658 C-3.06239948 18.93907381 -3.063454 15.3614102 -3.06298828 11.78369141 C-3.06658356 10.71195175 -3.07017883 9.6402121 -3.07388306 8.53599548 C-3.07250839 7.5669931 -3.07113373 6.59799072 -3.06971741 5.59962463 C-3.0706392 4.75249688 -3.07156099 3.90536913 -3.07251072 3.03257084 C-2.9040592 0.40541258 -2.62814814 0.15304808 0 0 Z " fill="#013FF3" transform="translate(458.949462890625,85.886474609375)"/>
<path d="M0 0 C3.58163441 2.88087985 5.95000863 5.48503709 7 10 C7 16.19872201 5.66098904 19.13470715 1.47265625 23.65234375 C-1.95054495 26.78498145 -5.72419905 26.45670342 -10.1640625 26.3984375 C-13.98847761 25.86112298 -16.00750027 24.64037925 -18.68359375 21.90625 C-21.05278253 18.47549592 -21.97103487 15.15649687 -22 11 C-20.62777056 6.3496669 -18.9063405 2.92975537 -15 0 C-9.55032112 -2.30563337 -5.34277257 -2.37955417 0 0 Z " fill="#0640EA" transform="translate(474,36)"/>
<path d="M0 0 C0.83265381 0.00523682 1.66530762 0.01047363 2.52319336 0.01586914 C3.42231445 0.0190918 4.32143555 0.02231445 5.24780273 0.02563477 C6.66609375 0.03820312 6.66609375 0.03820312 8.11303711 0.05102539 C9.06243164 0.05553711 10.01182617 0.06004883 10.98999023 0.06469727 C13.34356776 0.07652429 15.69702188 0.09300514 18.05053711 0.11352539 C18.0738668 15.2207723 18.09151663 30.32801782 18.10234928 45.43527889 C18.10751209 52.44937173 18.1145545 59.46345339 18.12597656 66.47753906 C18.13698399 73.24020607 18.1428133 80.00285903 18.14541435 86.76553535 C18.14726914 89.3520482 18.15089078 91.93856036 18.15626717 94.52506828 C18.16347362 98.13391394 18.16452822 101.74271086 18.1640625 105.3515625 C18.16765778 106.43265289 18.17125305 107.51374329 18.17495728 108.62759399 C18.17358261 109.60501053 18.17220795 110.58242706 18.17079163 111.58946228 C18.17171342 112.44396438 18.17263521 113.29846647 18.17358494 114.17886257 C18.05053711 116.11352539 18.05053711 116.11352539 17.05053711 117.11352539 C14.06187069 117.21363835 11.10143258 117.25226514 8.11303711 117.23852539 C7.27579102 117.24239258 6.43854492 117.24625977 5.57592773 117.25024414 C4.77477539 117.24895508 3.97362305 117.24766602 3.14819336 117.24633789 C2.41093018 117.24520996 1.67366699 117.24408203 0.9140625 117.24291992 C-0.94946289 117.11352539 -0.94946289 117.11352539 -2.94946289 116.11352539 C-2.97279267 101.13666233 -2.99044245 86.15980067 -3.00127506 71.18292332 C-3.00643785 64.22936459 -3.01348023 57.27581712 -3.02490234 50.32226562 C-3.03590983 43.6179533 -3.0417391 36.91365514 -3.04434013 30.20933342 C-3.04619491 27.64514926 -3.04981653 25.08096577 -3.05519295 22.51678658 C-3.06239948 18.93907381 -3.063454 15.3614102 -3.06298828 11.78369141 C-3.06658356 10.71195175 -3.07017883 9.6402121 -3.07388306 8.53599548 C-3.07250839 7.5669931 -3.07113373 6.59799072 -3.06971741 5.59962463 C-3.0706392 4.75249688 -3.07156099 3.90536913 -3.07251072 3.03257084 C-2.9040592 0.40541258 -2.62814814 0.15304808 0 0 Z M-1.94946289 1.11352539 C-1.94946289 38.73352539 -1.94946289 76.35352539 -1.94946289 115.11352539 C3.99053711 115.11352539 9.93053711 115.11352539 16.05053711 115.11352539 C16.05053711 77.49352539 16.05053711 39.87352539 16.05053711 1.11352539 C10.11053711 1.11352539 4.17053711 1.11352539 -1.94946289 1.11352539 Z " fill="#1642C4" transform="translate(458.949462890625,85.886474609375)"/>
<path d="M0 0 C0.495 0.99 0.495 0.99 1 2 C-0.98 4.64 -2.96 7.28 -5 10 C-4.34 10 -3.68 10 -3 10 C-3 10.99 -3 11.98 -3 13 C-2.071875 13.4640625 -2.071875 13.4640625 -1.125 13.9375 C0.25 14.625 1.625 15.3125 3 16 C3 15.34 3 14.68 3 14 C4.32 14.33 5.64 14.66 7 15 C5.71937515 16.7074998 4.38232443 18.37373596 3 20 C2.34 20 1.68 20 1 20 C0.505 21.485 0.505 21.485 0 23 C-8.91361251 30.6402393 -19.48680848 33.15024823 -31 33.125 C-32.175625 33.12757813 -33.35125 33.13015625 -34.5625 33.1328125 C-37.79725504 33.00783333 -40.82468717 32.6098924 -44 32 C-44 31.67 -44 31.34 -44 31 C-43.30438965 30.97494385 -42.6087793 30.9498877 -41.89208984 30.92407227 C-38.71956545 30.80754026 -35.54729645 30.68507432 -32.375 30.5625 C-31.28058594 30.52318359 -30.18617188 30.48386719 -29.05859375 30.44335938 C-27.99511719 30.40146484 -26.93164062 30.35957031 -25.8359375 30.31640625 C-24.37486572 30.26141968 -24.37486572 30.26141968 -22.88427734 30.20532227 C-19.8745148 29.99106712 -16.96704084 29.54068643 -14 29 C-14 28.34 -14 27.68 -14 27 C-10.04 26.505 -10.04 26.505 -6 26 C-6 25.34 -6 24.68 -6 24 C-6.66 24 -7.32 24 -8 24 C-13 18.76190476 -13 18.76190476 -13 14 C-13.99 14.48726562 -14.98 14.97453125 -16 15.4765625 C-19.97427087 17.17382405 -23.71485257 17.44888185 -28 17.375 C-29.00933594 17.39240234 -29.00933594 17.39240234 -30.0390625 17.41015625 C-35.13187715 17.38066118 -38.58078957 16.35322955 -43 14 C-43.66 13.01 -44.32 12.02 -45 11 C-44.17822266 11.32484375 -44.17822266 11.32484375 -43.33984375 11.65625 C-33.32062653 15.17519459 -22.01614167 15.92167307 -12.22265625 11.34375 C-7.28288997 8.35731837 -3.20156722 4.80235083 0 0 Z M-1 12 C1 13 1 13 1 13 Z " fill="#073FE9" transform="translate(282,172)"/>
<path d="M0 0 C4.1512605 6.22689076 4.1512605 6.22689076 3.4375 9.875 C2 12 2 12 -1 13 C-2.21869929 15.50447516 -2.21869929 15.50447516 -3 18 C-4.76949095 18.10815225 -6.54087487 18.18566083 -8.3125 18.25 C-9.29863281 18.29640625 -10.28476562 18.3428125 -11.30078125 18.390625 C-14 18 -14 18 -15.86328125 16.109375 C-17 14 -17 14 -16.875 12 C-15.79948703 9.54168465 -14.94645969 7.87934039 -13 6 C-9.8125 5.75 -9.8125 5.75 -7 6 C-6.9175 5.38125 -6.835 4.7625 -6.75 4.125 C-6 2 -6 2 -4.0625 0.75 C-2 0 -2 0 0 0 Z " fill="#023EF2" transform="translate(475,44)"/>
<path d="M0 0 C0.66 0 1.32 0 2 0 C2.33 26.73 2.66 53.46 3 81 C2.01 81.495 2.01 81.495 1 82 C-0.64936048 80.71284028 -2.29439047 79.42012981 -3.9375 78.125 C-4.85402344 77.40570313 -5.77054688 76.68640625 -6.71484375 75.9453125 C-9 74 -9 74 -10 72 C-9.46375 72.28875 -8.9275 72.5775 -8.375 72.875 C-5.68215357 74.15055883 -2.82676936 75.05774355 0 76 C0 50.92 0 25.84 0 0 Z " fill="#3965D2" transform="translate(51,144)"/>
<path d="M0 0 C1.65 0 3.3 0 5 0 C5.33 25.74 5.66 51.48 6 78 C8.475 77.505 8.475 77.505 11 77 C8.6875 79.5 8.6875 79.5 6 82 C5.01 82 4.02 82 3 82 C2.67 55.6 2.34 29.2 2 2 C1.01 2.495 1.01 2.495 0 3 C0 2.01 0 1.02 0 0 Z " fill="#3B68D2" transform="translate(140,143)"/>
<path d="M0 0 C27.72 0 55.44 0 84 0 C84 0.33 84 0.66 84 1 C75.07983236 2.11405724 66.24361281 2.12867066 57.2734375 2.09765625 C55.67347254 2.09578751 54.073507 2.09436577 52.47354126 2.09336853 C48.29464087 2.08957921 44.11577611 2.07978021 39.93688965 2.06866455 C35.65975425 2.05837269 31.382613 2.05385437 27.10546875 2.04882812 C18.73696295 2.03815417 10.36848593 2.02112166 2 2 C2.33 5.3 2.66 8.6 3 12 C2.34 12 1.68 12 1 12 C0.67 8.04 0.34 4.08 0 0 Z " fill="#065DBA" transform="translate(910,148)"/>
<path d="M0 0 C0 37.29 0 74.58 0 113 C-0.33 113 -0.66 113 -1 113 C-1.33 78.02 -1.66 43.04 -2 7 C-2.99 7.99 -3.98 8.98 -5 10 C-5.99 9.34 -6.98 8.68 -8 8 C-9.98 9.98 -11.96 11.96 -14 14 C-14.66 13.67 -15.32 13.34 -16 13 C-13.90474642 10.82404478 -11.79972937 8.65936733 -9.6875 6.5 C-8.79514648 5.56994141 -8.79514648 5.56994141 -7.88476562 4.62109375 C-7.30791016 4.03457031 -6.73105469 3.44804688 -6.13671875 2.84375 C-5.60780029 2.29912109 -5.07888184 1.75449219 -4.53393555 1.19335938 C-3 0 -3 0 0 0 Z " fill="#3461CA" transform="translate(188,78)"/>
<path d="M0 0 C1.32 0.33 2.64 0.66 4 1 C-4.98407045 11.28820971 -15.94856842 18.94365124 -30 20 C-47.56451093 20.81568936 -63.69673804 18.2832724 -77.5 6.5 C-78.325 5.675 -79.15 4.85 -80 4 C-79.34 3.67 -78.68 3.34 -78 3 C-77.34 3.33 -76.68 3.66 -76 4 C-76 4.66 -76 5.32 -76 6 C-74.02 6.66 -72.04 7.32 -70 8 C-70 8.66 -70 9.32 -70 10 C-69.41863281 10.12503906 -68.83726562 10.25007812 -68.23828125 10.37890625 C-65.34228955 11.18250604 -62.92452429 12.53783528 -60.29296875 13.96484375 C-52.98077656 17.26591859 -46.18927036 17.36595755 -38.25 17.375 C-37.13367188 17.39949219 -36.01734375 17.42398438 -34.8671875 17.44921875 C-27.26381331 17.47580397 -18.15976551 17.00987521 -12.36035156 11.41943359 C-11.68697754 10.71681396 -11.68697754 10.71681396 -11 10 C-10.13375 9.71125 -9.2675 9.4225 -8.375 9.125 C-7.59125 8.75375 -6.8075 8.3825 -6 8 C-5.10613836 5.45224694 -5.10613836 5.45224694 -5 3 C-3.35 3 -1.7 3 0 3 C0 2.01 0 1.02 0 0 Z " fill="#1B49C7" transform="translate(987,185)"/>
<path d="M0 0 C3.14364834 0.71160767 5.15995402 1.61996552 7.75 3.5625 C8.67039062 4.24505859 8.67039062 4.24505859 9.609375 4.94140625 C10.29773438 5.46541016 10.29773438 5.46541016 11 6 C9 7 9 7 5.875 6.0625 C4.92625 5.711875 3.9775 5.36125 3 5 C3.185625 5.804375 3.37125 6.60875 3.5625 7.4375 C3.706875 8.283125 3.85125 9.12875 4 10 C3.67 10.33 3.34 10.66 3 11 C2.74576981 15.26465802 2.81476837 19.54116727 2.8125 23.8125 C2.80025391 25.01455078 2.78800781 26.21660156 2.77539062 27.45507812 C2.77345703 28.61072266 2.77152344 29.76636719 2.76953125 30.95703125 C2.76542236 32.01897705 2.76131348 33.08092285 2.75708008 34.17504883 C3.00120741 37.01404111 3.55236961 38.58481902 5 41 C6 43 7 45 8 47 C6.64791086 46.37224433 5.31836295 45.69580267 4 45 C3.30165039 44.67604248 2.60330078 44.35208496 1.88378906 44.01831055 C-1.22336707 40.68927222 -0.49069334 36.89747236 -0.390625 32.51953125 C-0.38496521 31.59154221 -0.37930542 30.66355316 -0.37347412 29.70744324 C-0.35107376 26.74193854 -0.30087073 23.7776398 -0.25 20.8125 C-0.22993973 18.80275182 -0.21168813 16.79298471 -0.1953125 14.78320312 C-0.15119696 9.85500371 -0.08214424 4.92770635 0 0 Z " fill="#376ADF" transform="translate(8,21)"/>
<path d="M0 0 C0 0.99 0 1.98 0 3 C0.96035156 2.83886719 1.92070313 2.67773438 2.91015625 2.51171875 C7.42130035 1.87083456 11.88728463 1.81611415 16.4375 1.8125 C17.24509766 1.80025391 18.05269531 1.78800781 18.88476562 1.77539062 C24.25664918 1.76240461 28.83921264 2.50094236 34 4 C34 4.66 34 5.32 34 6 C34.99 6 35.98 6 37 6 C37 6.66 37 7.32 37 8 C36.40832031 7.79503906 35.81664062 7.59007813 35.20703125 7.37890625 C34.41683594 7.10949219 33.62664063 6.84007813 32.8125 6.5625 C32.03519531 6.29566406 31.25789062 6.02882813 30.45703125 5.75390625 C19.63794923 2.43421972 7.91552113 2.87939777 -2.18359375 8.13671875 C-6.4620913 10.70058212 -10.25158459 13.72013652 -14 17 C-12.25 10.25 -12.25 10.25 -10 8 C-8.4669455 6.19616142 -6.95113961 4.37874538 -5.4375 2.55859375 C-3.64862616 0.61902673 -2.6554524 0 0 0 Z " fill="#1043D4" transform="translate(553,99)"/>
<path d="M0 0 C7.88690755 0.82348594 13.78074458 5.47297638 19.04296875 11.23828125 C23 16.37960214 23 16.37960214 23 19 C21.02 19.99 21.02 19.99 19 21 C19 19.02 19 17.04 19 15 C18.1028125 15.2784375 18.1028125 15.2784375 17.1875 15.5625 C15 16 15 16 12 15 C10.31295807 16.30745749 8.64639965 17.64172029 7 19 C6.01 19 5.02 19 4 19 C4.66 17.68 5.32 16.36 6 15 C6.99 15 7.98 15 9 15 C8.938125 13.88625 8.938125 13.88625 8.875 12.75 C9.00398134 9.91241048 9.57051222 8.41226062 11 6 C9.35 6 7.7 6 6 6 C6.33 5.01 6.66 4.02 7 3 C4.69 2.67 2.38 2.34 0 2 C0 1.34 0 0.68 0 0 Z " fill="#0540E7" transform="translate(281,87)"/>
<path d="M0 0 C-0.99 0.495 -0.99 0.495 -2 1 C-2.99 2.485 -2.99 2.485 -4 4 C-4.66 3.67 -5.32 3.34 -6 3 C-6.33 3.66 -6.66 4.32 -7 5 C-9.475 4.505 -9.475 4.505 -12 4 C-11.01 5.65 -10.02 7.3 -9 9 C-10.4540625 9.61875 -10.4540625 9.61875 -11.9375 10.25 C-15.12260099 11.64899168 -15.12260099 11.64899168 -15.875 14.1875 C-15.91625 14.785625 -15.9575 15.38375 -16 16 C-16.66 16 -17.32 16 -18 16 C-18.33 15.01 -18.66 14.02 -19 13 C-20.423125 13.7115625 -20.423125 13.7115625 -21.875 14.4375 C-23.58333333 15.29166667 -25.29166667 16.14583333 -27 17 C-25.63271657 11.35995584 -21.47468683 8.3087473 -17 5 C-5.62599469 -1.87533156 -5.62599469 -1.87533156 0 0 Z " fill="#0A40E2" transform="translate(240,135)"/>
<path d="M0 0 C1.57019205 3.1403841 2.59358874 5.81870037 3.625 9.125 C6.97571026 18.3734549 12.46688683 24.9246574 21.3125 29.2578125 C21.869375 29.50273437 22.42625 29.74765625 23 30 C20 31 20 31 17.5546875 30.109375 C16.22824219 29.43648437 16.22824219 29.43648437 14.875 28.75 C13.54082031 28.09257812 13.54082031 28.09257812 12.1796875 27.421875 C10 26 10 26 9 23 C8.34 23 7.68 23 7 23 C7 23.66 7 24.32 7 25 C4.83125748 24.49396008 3.00032373 24.00016187 1 23 C1.309375 22.236875 1.61875 21.47375 1.9375 20.6875 C2.67893593 18.81210323 3.36228217 16.91315348 4 15 C2.68 14.34 1.36 13.68 0 13 C0 8.71 0 4.42 0 0 Z " fill="#0941DC" transform="translate(531,153)"/>
<path d="M0 0 C2.1682057 2.1682057 2.93954961 3.90623172 4.1875 6.6875 C8.9138814 16.26464125 15.67218483 20.74006601 25.5 24.25 C26.325 24.4975 27.15 24.745 28 25 C28 25.33 28 25.66 28 26 C23.05 26.495 23.05 26.495 18 27 C17.34 25.68 16.68 24.36 16 23 C13.82791412 22.08839907 13.82791412 22.08839907 11.375 21.75 C10.55773437 21.60046875 9.74046875 21.4509375 8.8984375 21.296875 C8.27195312 21.19890625 7.64546875 21.1009375 7 21 C7 20.01 7 19.02 7 18 C7.66 18 8.32 18 9 18 C6.47211993 15.20127563 4.79588866 13.54226981 1 13 C1.020625 11.96875 1.04125 10.9375 1.0625 9.875 C1.00723339 6.44847031 0.65449285 3.35427586 0 0 Z " fill="#1241D4" transform="translate(913,161)"/>
<path d="M0 0 C2.36407003 3.61563652 1.85885985 5.87747271 1 10 C0.78918149 13.89459074 0.78918149 13.89459074 2 17 C1.52433594 18.13501953 1.52433594 18.13501953 1.0390625 19.29296875 C-0.22649825 22.59008756 -0.00859927 24.82174665 0.375 28.3125 C0.48585937 29.38113281 0.59671875 30.44976562 0.7109375 31.55078125 C0.80632812 32.35902344 0.90171875 33.16726562 1 34 C-3.24714471 29.75285529 -4.19031756 22.83596497 -4.375 17 C-4.19715329 11.08425668 -2.64770135 5.2954027 0 0 Z " fill="#1643D7" transform="translate(212,152)"/>
<path d="M0 0 C3.58163441 2.88087985 5.95000863 5.48503709 7 10 C7 16.21433178 5.62382262 19.18065716 1.47265625 23.75 C0 25 0 25 -2 25 C-1.1875 22.5625 -1.1875 22.5625 0 20 C0.99 19.67 1.98 19.34 3 19 C4.10489987 16.54466696 4.14543121 15.40048393 3.22265625 12.859375 C2.83980469 12.16328125 2.45695312 11.4671875 2.0625 10.75 C1.68222656 10.04359375 1.30195313 9.3371875 0.91015625 8.609375 C0.60980469 8.07828125 0.30945313 7.5471875 0 7 C0.99 6.67 1.98 6.34 3 6 C2.01 5.01 1.02 4.02 0 3 C-0.33 3.99 -0.66 4.98 -1 6 C-1 4.35 -1 2.7 -1 1 C-4.96 0.67 -8.92 0.34 -13 0 C-13 -0.33 -13 -0.66 -13 -1 C-8.33727631 -2.45710115 -4.44084418 -1.82488131 0 0 Z " fill="#0E40D8" transform="translate(474,36)"/>
<path d="M0 0 C0 13.86 0 27.72 0 42 C-0.33 42 -0.66 42 -1 42 C-1.33 29.46 -1.66 16.92 -2 4 C-3.65 5.65 -5.3 7.3 -7 9 C-10.54077652 10.89992886 -12.21624161 11.10392951 -16 10 C-13.90245565 8.3243583 -11.79775361 6.65949806 -9.6875 5 C-9.09259766 4.52304687 -8.49769531 4.04609375 -7.88476562 3.5546875 C-3.33984375 0 -3.33984375 0 0 0 Z " fill="#3D6CD3" transform="translate(188,21)"/>
<path d="M0 0 C2.98631375 3.47023666 4.95970915 6.70250475 6.6875 10.9375 C7.10386719 11.93652344 7.52023437 12.93554688 7.94921875 13.96484375 C10.17166443 20.38432438 10.1538864 26.59641292 10.125 33.3125 C10.12886719 34.23095703 10.13273438 35.14941406 10.13671875 36.09570312 C10.13542969 36.96775391 10.13414062 37.83980469 10.1328125 38.73828125 C10.13168457 39.53274658 10.13055664 40.32721191 10.12939453 41.14575195 C10 43 10 43 9 44 C7.33382885 44.04063832 5.66611905 44.042721 4 44 C4 43.34 4 42.68 4 42 C5.32 42 6.64 42 8 42 C7.86070975 38.10390391 7.71242069 34.20820038 7.5625 30.3125 C7.52318359 29.20970703 7.48386719 28.10691406 7.44335938 26.97070312 C7.40146484 25.90400391 7.35957031 24.83730469 7.31640625 23.73828125 C7.27974854 22.75899658 7.24309082 21.77971191 7.20532227 20.77075195 C7.0051933 18.07008179 6.75012193 15.60440733 6 13 C3.52363988 11.62533375 3.52363988 11.62533375 1 11 C1.33 8.69 1.66 6.38 2 4 C1.34 4 0.68 4 0 4 C0 2.68 0 1.36 0 0 Z " fill="#1A45CC" transform="translate(993,106)"/>
<path d="M0 0 C1 2 1 2 0.1875 4.5 C-1 7 -1 7 -3 9 C-6.28302607 9.33213811 -9.58371639 9.04682499 -12.875 8.875 C-14.29462036 8.80647827 -14.29462036 8.80647827 -15.74291992 8.73657227 C-23.0452773 8.28130685 -29.27665435 6.99279361 -36 4 C-36 3.34 -36 2.68 -36 2 C-35.46375 2.2165625 -34.9275 2.433125 -34.375 2.65625 C-25.45147022 5.82645137 -14.21404688 6.87582699 -5.125 3.625 C-1.99686321 2.19761746 -1.99686321 2.19761746 0 0 Z " fill="#0E40D3" transform="translate(843,181)"/>
<path d="M0 0 C0.33 0 0.66 0 1 0 C0.98839844 0.70125 0.97679687 1.4025 0.96484375 2.125 C0.56336915 11.81382532 0.56336915 11.81382532 3 21 C2.5625 23.125 2.5625 23.125 2 25 C2.66 25.33 3.32 25.66 4 26 C3.67 26.66 3.34 27.32 3 28 C3.99 28 4.98 28 6 28 C6.99 30.31 7.98 32.62 9 35 C8.01 35 7.02 35 6 35 C5.20449608 33.60635 4.41378162 32.20996569 3.625 30.8125 C2.96371094 29.64654297 2.96371094 29.64654297 2.2890625 28.45703125 C-1.78287067 20.69567985 -3.23061753 11.79846325 -1.0625 3.1875 C-0.711875 2.135625 -0.36125 1.08375 0 0 Z " fill="#1341C9" transform="translate(652,157)"/>
<path d="M0 0 C0.66 0.33 1.32 0.66 2 1 C2 2.32 2 3.64 2 5 C0.68 5.33 -0.64 5.66 -2 6 C-1.67 6.99 -1.34 7.98 -1 9 C-1.928125 9.12375 -1.928125 9.12375 -2.875 9.25 C-5.18346804 9.78810733 -5.18346804 9.78810733 -6 12 C-6.33 12.66 -6.66 13.32 -7 14 C-9 14.625 -9 14.625 -11 15 C-11.66 15.66 -12.32 16.32 -13 17 C-15.125 17.625 -15.125 17.625 -17 18 C-15.61917102 14.85243351 -14.05200845 12.86116028 -11.5234375 10.546875 C-10.853125 9.928125 -10.1828125 9.309375 -9.4921875 8.671875 C-8.79351562 8.03765625 -8.09484375 7.4034375 -7.375 6.75 C-6.66859375 6.1003125 -5.9621875 5.450625 -5.234375 4.78125 C-3.49427822 3.18224215 -1.74943338 1.58877761 0 0 Z " fill="#2C62F6" transform="translate(140,119)"/>
<path d="M0 0 C1.76732001 4.41830002 0.5154198 5.6960307 -1 11 C4.94 11.33 10.88 11.66 17 12 C16.67 10.02 16.34 8.04 16 6 C17.65 5.67 19.3 5.34 21 5 C20.01 7.97 19.02 10.94 18 14 C11.07 14 4.14 14 -3 14 C-1.875 3.875 -1.875 3.875 0 0 Z " fill="#1243D8" transform="translate(656,109)"/>
<path d="M0 0 C0.66 0.33 1.32 0.66 2 1 C1.67 1.66 1.34 2.32 1 3 C0.34 3 -0.32 3 -1 3 C-1 3.66 -1 4.32 -1 5 C-0.34 5.33 0.32 5.66 1 6 C-5 9 -5 9 -7.1875 10.0625 C-9.25077159 11.08742496 -9.25077159 11.08742496 -12 13 C-12.99 13 -13.98 13 -15 13 C-15.66 14.32 -16.32 15.64 -17 17 C-18.32 17 -19.64 17 -21 17 C-21 17.66 -21 18.32 -21 19 C-21.99 18.67 -22.98 18.34 -24 18 C-16.09257064 11.86514225 -8.13282181 5.83476996 0 0 Z " fill="#3B6DDF" transform="translate(170,32)"/>
<path d="M0 0 C1.65 0 3.3 0 5 0 C2.46531894 3.05909783 -0.13496636 3.94050057 -3.875 5.125 C-4.90367187 5.45757812 -5.93234375 5.79015625 -6.9921875 6.1328125 C-12.55737619 7.73732145 -17.65188866 8.15515957 -23.4375 8.125 C-24.17548828 8.12886719 -24.91347656 8.13273438 -25.67382812 8.13671875 C-29.89208711 8.12921962 -33.8452442 7.82963428 -38 7 C-38 6.67 -38 6.34 -38 6 C-37.24904053 5.97494385 -36.49808105 5.9498877 -35.72436523 5.92407227 C-32.29526467 5.80745058 -28.86639447 5.68502583 -25.4375 5.5625 C-24.25607422 5.52318359 -23.07464844 5.48386719 -21.85742188 5.44335938 C-16.16986877 5.2362496 -10.61004186 4.98031568 -5 4 C-5 3.34 -5 2.68 -5 2 C-3.35 2 -1.7 2 0 2 C0 1.34 0 0.68 0 0 Z " fill="#1E4AC9" transform="translate(596,197)"/>
<path d="M0 0 C1.15233929 3.81964212 0.48956382 5.31990114 -1 9 C-1.19669912 12.14718585 -1.11727605 14.58953384 -0.25 17.625 C0 20 0 20 -1.6875 22.3125 C-4 24 -4 24 -8 24 C-5.96136383 15.72943539 -3.17712327 7.89885589 0 0 Z " fill="#0C43E0" transform="translate(412,88)"/>
<path d="M0 0 C1.5 1.3125 1.5 1.3125 3 3 C3 3.99 3 4.98 3 6 C3.66 6 4.32 6 5 6 C6.66361479 12.33354432 7.3537412 18.27101082 7.3125 24.8125 C7.31048584 25.68181152 7.30847168 26.55112305 7.30639648 27.44677734 C7.19098499 34.8842535 6.3702573 42.2594854 3 49 C2.34 49 1.68 49 1 49 C1.20496094 48.35933594 1.40992188 47.71867187 1.62109375 47.05859375 C6.73190697 30.6501934 5.66601699 15.97816791 0 0 Z " fill="#1643C5" transform="translate(602,119)"/>
<path d="M0 0 C1.5387163 1.9583662 2.87116077 3.68285729 3.8125 6 C5.56250268 8.94737294 8.11715393 10.24522413 11 12 C10.649375 12.515625 10.29875 13.03125 9.9375 13.5625 C8.61355291 17.00476244 9.2362696 19.43592478 10 23 C10.350625 23.70125 10.70125 24.4025 11.0625 25.125 C12.25409043 27.50818085 12.14598495 29.37227096 12 32 C8.72570769 27.08856153 6.97969547 21.49461115 4.875 16 C4.17310547 14.19789062 4.17310547 14.19789062 3.45703125 12.359375 C3.01488281 11.20953125 2.57273437 10.0596875 2.1171875 8.875 C1.71097168 7.82054688 1.30475586 6.76609375 0.88623047 5.6796875 C0 3 0 3 0 0 Z " fill="#1343D6" transform="translate(333,112)"/>
<path d="M0 0 C-12.06666068 7.80608666 -26.0299702 8.6418362 -40 6 C-40 5.67 -40 5.34 -40 5 C-39.30438965 4.97494385 -38.6087793 4.9498877 -37.89208984 4.92407227 C-34.71956545 4.80754026 -31.54729645 4.68507432 -28.375 4.5625 C-26.73337891 4.50352539 -26.73337891 4.50352539 -25.05859375 4.44335938 C-23.99511719 4.40146484 -22.93164062 4.35957031 -21.8359375 4.31640625 C-20.86188965 4.27974854 -19.8878418 4.24309082 -18.88427734 4.20532227 C-15.8745148 3.99106712 -12.96704084 3.54068643 -10 3 C-10 2.34 -10 1.68 -10 1 C-8.71073008 0.63720544 -7.41846728 0.28503302 -6.125 -0.0625 C-5.40570313 -0.25972656 -4.68640625 -0.45695313 -3.9453125 -0.66015625 C-2 -1 -2 -1 0 0 Z " fill="#1C4ACE" transform="translate(278,198)"/>
<path d="M0 0 C12.82488217 1.62739982 26.99176669 4.88583562 38 12 C38.495 12.99 38.495 12.99 39 14 C36.69 13.67 34.38 13.34 32 13 C32 12.01 32 11.02 32 10 C30.7625 9.731875 29.525 9.46375 28.25 9.1875 C22.47132371 7.90642184 16.73666298 6.45600583 11 5 C11 4.34 11 3.68 11 3 C7.7 3 4.4 3 1 3 C0.67 2.01 0.34 1.02 0 0 Z " fill="#1944CB" transform="translate(820,132)"/>
<path d="M0 0 C4.06637477 4.06637477 5.16395688 9.37337856 5.34057617 14.94726562 C5.34010777 16.76699622 5.32355257 18.58677637 5.29296875 20.40625 C5.28872391 21.3715564 5.28447906 22.33686279 5.28010559 23.3314209 C5.26343097 26.3879083 5.22579992 29.44371485 5.1875 32.5 C5.17243866 34.58332375 5.1587528 36.66665793 5.14648438 38.75 C5.11356424 43.83359215 5.06186016 48.91668099 5 54 C4.67 54 4.34 54 4 54 C3.98541748 52.76958984 3.97083496 51.53917969 3.95581055 50.27148438 C3.89756279 45.67907565 3.82033232 41.08714373 3.73754883 36.49511719 C3.7044236 34.5127744 3.67635356 32.53034011 3.65356445 30.54785156 C3.61978946 27.68775671 3.56746312 24.82849108 3.51171875 21.96875 C3.50213387 20.65263733 3.50213387 20.65263733 3.49235535 19.30993652 C3.35638989 13.53816669 2.16185267 9.34117467 0 4 C0 2.68 0 1.36 0 0 Z " fill="#053EEA" transform="translate(304,106)"/>
<path d="M0 0 C0.33 0.99 0.66 1.98 1 3 C1.99 3.33 2.98 3.66 4 4 C-0.62 8.62 -5.24 13.24 -10 18 C-11 14 -11 14 -9.8125 11.75 C-8 10 -8 10 -4 10 C-4.66 8.68 -5.32 7.36 -6 6 C-5.01 5.34 -4.02 4.68 -3 4 C-2.34 4.33 -1.68 4.66 -1 5 C-0.67 3.35 -0.34 1.7 0 0 Z " fill="#2E63E5" transform="translate(118,161)"/>
<path d="M0 0 C0.33 0.66 0.66 1.32 1 2 C1.99 1.67 2.98 1.34 4 1 C4.06058594 1.69867188 4.12117187 2.39734375 4.18359375 3.1171875 C4.26738281 4.02726562 4.35117187 4.93734375 4.4375 5.875 C4.51871094 6.77992187 4.59992187 7.68484375 4.68359375 8.6171875 C4.86989285 11.01110861 4.86989285 11.01110861 6 13 C11.61 13.33 17.22 13.66 23 14 C23 11.69 23 9.38 23 7 C23.33 7 23.66 7 24 7 C24.33 9.64 24.66 12.28 25 15 C18.07 15 11.14 15 4 15 C3.05598958 12.52604167 2.11197917 10.05208333 1.16796875 7.578125 C0.03153178 5.06960192 -1.26542927 3.12720995 -3 1 C-2.01 0.67 -1.02 0.34 0 0 Z " fill="#1842CD" transform="translate(841,105)"/>
<path d="M0 0 C3.79151583 -0.08829061 7.58276165 -0.14081946 11.375 -0.1875 C12.96634766 -0.22520508 12.96634766 -0.22520508 14.58984375 -0.26367188 C21.5846091 -0.32804088 27.43797471 0.55508971 34 3 C34 3.33 34 3.66 34 4 C29.80004999 3.76294293 25.60098154 3.51441549 21.40234375 3.25537109 C19.97479585 3.16890211 18.54705641 3.08553594 17.11914062 3.00537109 C15.06321568 2.88940318 13.00824461 2.76218616 10.953125 2.6328125 C9.71723633 2.55949707 8.48134766 2.48618164 7.20800781 2.41064453 C4.28426648 2.03638784 2.48342377 1.52367266 0 0 Z " fill="#1244D5" transform="translate(560,84)"/>
<path d="M0 0 C0 0.66 0 1.32 0 2 C-0.99 2.33 -1.98 2.66 -3 3 C-3.495 3.99 -3.99 4.98 -4.5 6 C-4.995 6.99 -5.49 7.98 -6 9 C-6.99 9.33 -7.98 9.66 -9 10 C-9.99 11.485 -9.99 11.485 -11 13 C-11.66 13 -12.32 13 -13 13 C-13 13.99 -13 14.98 -13 16 C-13.66 16 -14.32 16 -15 16 C-15.33 17.32 -15.66 18.64 -16 20 C-16.68359375 18.3046875 -16.68359375 18.3046875 -17 16 C-14.17299915 10.19266943 -7.28922134 0 0 0 Z " fill="#0B42DD" transform="translate(798,89)"/>
<path d="M0 0 C0 4.16067938 -0.9597973 7.98778958 -2 12 C-2.598125 11.79375 -3.19625 11.5875 -3.8125 11.375 C-6.28450846 10.69328085 -6.28450846 10.69328085 -9 13 C-11.6875 12.625 -11.6875 12.625 -14 12 C-14 11.34 -14 10.68 -14 10 C-13.44828125 9.92910156 -12.8965625 9.85820312 -12.328125 9.78515625 C-9.09280325 8.69404942 -7.23357287 6.75767992 -4.75 4.4375 C-3.85796875 3.61121094 -2.9659375 2.78492188 -2.046875 1.93359375 C-1.03367187 0.97646484 -1.03367187 0.97646484 0 0 Z " fill="#2C64E9" transform="translate(110,146)"/>
<path d="M0 0 C0.82177734 0.32484375 0.82177734 0.32484375 1.66015625 0.65625 C11.77938497 4.21032057 22.79517508 4.33218773 33 1 C29.65639114 4.8715471 26.31123171 5.89460872 21.2578125 6.30078125 C19.88027896 6.31526774 18.50259466 6.31893736 17.125 6.3125 C16.44308594 6.32861328 15.76117188 6.34472656 15.05859375 6.36132812 C10.00933129 6.36613695 6.46674395 5.39009983 2 3 C1.34 2.01 0.68 1.02 0 0 Z " fill="#1443C6" transform="translate(237,183)"/>
<path d="M0 0 C0.79481277 0.02361099 1.58962555 0.04722198 2.40852356 0.07154846 C4.94571224 0.14808726 7.48258815 0.23215353 10.01953125 0.31640625 C11.7402191 0.36963674 13.46092219 0.42237708 15.18164062 0.47460938 C19.39863536 0.60368914 23.6153651 0.73952016 27.83203125 0.87890625 C27.83203125 1.20890625 27.83203125 1.53890625 27.83203125 1.87890625 C14.30203125 2.20890625 0.77203125 2.53890625 -13.16796875 2.87890625 C-9.33899351 -0.95006899 -5.04464878 -0.17666751 0 0 Z " fill="#1A43C6" transform="translate(703.16796875,146.12109375)"/>
<path d="M0 0 C6.93 0 13.86 0 21 0 C21 0.33 21 0.66 21 1 C14.4 1 7.8 1 1 1 C1.928125 3.578125 2.85625 6.15625 3.8125 8.8125 C4.09843018 9.62050049 4.38436035 10.42850098 4.67895508 11.26098633 C4.91509521 11.90318115 5.15123535 12.54537598 5.39453125 13.20703125 C5.63018799 13.8616333 5.86584473 14.51623535 6.10864258 15.19067383 C7.1124973 17.22835318 8.32269404 18.48653345 10 20 C9.67 20.99 9.34 21.98 9 23 C3.62417757 15.64086444 0 9.2576589 0 0 Z " fill="#1E42A9" transform="translate(774,165)"/>
<path d="M0 0 C6.93 0 13.86 0 21 0 C20.12288257 5.2627046 19.1476409 8.33121544 17 13 C16.3125 11.4375 16.3125 11.4375 16 9 C16.99 6.69 17.98 4.38 19 2 C12.73 2 6.46 2 0 2 C0 1.34 0 0.68 0 0 Z " fill="#1C4BCD" transform="translate(413,86)"/>
<path d="M0 0 C0.33 0.66 0.66 1.32 1 2 C2.32 2 3.64 2 5 2 C5 1.34 5 0.68 5 0 C8.63 0 12.26 0 16 0 C16 0.33 16 0.66 16 1 C15.2265625 1.17015625 14.453125 1.3403125 13.65625 1.515625 C4.86630351 3.56081057 -2.14124028 5.99858524 -9 12 C-8.67 10.35 -8.34 8.7 -8 7 C-7.01 7 -6.02 7 -5 7 C-4.67 6.01 -4.34 5.02 -4 4 C-3.01 4 -2.02 4 -1 4 C-0.67 2.68 -0.34 1.36 0 0 Z " fill="#0A40DD" transform="translate(929,101)"/>
<path d="M0 0 C1.42750052 4.28250157 -0.45816175 7.06766676 -2.1875 11 C-2.84031009 12.52919419 -3.49135097 14.05914485 -4.140625 15.58984375 C-4.45966797 16.33862793 -4.77871094 17.08741211 -5.10742188 17.85888672 C-6.90730182 22.17643243 -8.46407849 26.58303317 -10 31 C-11.69046395 25.74077883 -9.8150907 22.43015919 -7.5 17.625 C-5.69219751 13.73327534 -4.3508217 10.32680094 -4 6 C-3.34 6 -2.68 6 -2 6 C-1.34 4.02 -0.68 2.04 0 0 Z " fill="#1646C8" transform="translate(421,118)"/>
<path d="M0 0 C1.65 0.33 3.3 0.66 5 1 C5 4 5 4 4 6 C2 6.66666667 0 7.33333333 -2 8 C-4.30166675 9.51553153 -4.30166675 9.51553153 -6 11 C-6.66 10.67 -7.32 10.34 -8 10 C-5.36 6.7 -2.72 3.4 0 0 Z " fill="#023FEB" transform="translate(602,168)"/>
<path d="M0 0 C1.32 0.33 2.64 0.66 4 1 C4 1.66 4 2.32 4 3 C5.98 3.66 7.96 4.32 10 5 C10 5.66 10 6.32 10 7 C10.81210937 7.16822266 10.81210937 7.16822266 11.640625 7.33984375 C14.50028221 8.13997963 17.05743708 9.3123815 19.75 10.5625 C20.73484375 11.01753906 21.7196875 11.47257813 22.734375 11.94140625 C23.48203125 12.29074219 24.2296875 12.64007813 25 13 C25 13.66 25 14.32 25 15 C15.46957914 12.37568121 7.26991727 7.69597644 0 1 C0 0.67 0 0.34 0 0 Z " fill="#1340C7" transform="translate(907,188)"/>
<path d="M0 0 C0.66 0 1.32 0 2 0 C2.66 2.97 3.32 5.94 4 9 C4.66 9 5.32 9 6 9 C6.26554687 9.86882812 6.53109375 10.73765625 6.8046875 11.6328125 C7.15789062 12.78523437 7.51109375 13.93765625 7.875 15.125 C8.22304688 16.26195312 8.57109375 17.39890625 8.9296875 18.5703125 C9.91496533 21.72751664 10.94272536 24.86627606 12 28 C8.96163322 25.24026942 7.29530559 22.9587103 5.859375 19.12109375 C5.33730469 17.73954102 5.33730469 17.73954102 4.8046875 16.33007812 C4.45664062 15.37552734 4.10859375 14.42097656 3.75 13.4375 C3.38648438 12.47908203 3.02296875 11.52066406 2.6484375 10.53320312 C0 3.42921758 0 3.42921758 0 0 Z " fill="#1947C9" transform="translate(357,175)"/>
<path d="M0 0 C0.66 0.33 1.32 0.66 2 1 C-0.67189658 4.76044704 -2.57360443 6.63803213 -7 8 C-10.08797022 8.6469565 -10.08797022 8.6469565 -11 10.875 C-11.33 11.57625 -11.66 12.2775 -12 13 C-13.375 14.8125 -13.375 14.8125 -15 16 C-17.1875 15.6875 -17.1875 15.6875 -19 15 C-15.47386038 11.18304474 -11.44625082 8.27225248 -7.25 5.25 C-6.55261719 4.74339844 -5.85523437 4.23679687 -5.13671875 3.71484375 C-3.42678278 2.47338339 -1.71370384 1.23625401 0 0 Z " fill="#3C68D8" transform="translate(118,70)"/>
<path d="M0 0 C1.65 0 3.3 0 5 0 C3.44499019 3.81684226 0.96404505 6.19195732 -2 9 C-6.2742558 7.4169423 -8.26531794 4.49431596 -11 1 C-8.525 1.495 -8.525 1.495 -6 2 C-5.67 2.99 -5.34 3.98 -5 5 C-4.01 5.33 -3.02 5.66 -2 6 C-1.34 4.02 -0.68 2.04 0 0 Z " fill="#2D64E2" transform="translate(101,179)"/>
<path d="M0 0 C0.99 0.33 1.98 0.66 3 1 C2.47731534 3.76276177 1.89130413 6.3260876 1 9 C1.08521741 10.89952346 1.23729084 12.79663573 1.4375 14.6875 C1.53933594 15.68136719 1.64117187 16.67523438 1.74609375 17.69921875 C1.82988281 18.45847656 1.91367188 19.21773437 2 20 C-0.34914492 17.65085508 -0.73140357 16.04320554 -1.625 12.875 C-1.88539063 11.96492187 -2.14578125 11.05484375 -2.4140625 10.1171875 C-2.60742188 9.41851562 -2.80078125 8.71984375 -3 8 C-2.34 7.67 -1.68 7.34 -1 7 C-1.020625 6.030625 -1.04125 5.06125 -1.0625 4.0625 C-1 1 -1 1 0 0 Z " fill="#023AEB" transform="translate(211,166)"/>
<path d="M0 0 C0.5775 0.226875 1.155 0.45375 1.75 0.6875 C-0.66556126 3.87949167 -2.93003538 6.43466687 -6.25 8.6875 C-9.61720387 7.29417426 -11.2359524 5.7085714 -13.25 2.6875 C-11.25 3.6875 -9.25 4.6875 -7.25 5.6875 C-6.92 4.6975 -6.59 3.7075 -6.25 2.6875 C-3.03057242 -0.42091284 -3.03057242 -0.42091284 0 0 Z " fill="#2F60D9" transform="translate(105.25,129.3125)"/>
<path d="M0 0 C-0.25561323 2.3431213 -0.59270772 4.67843403 -1 7 C-1.99 7.495 -1.99 7.495 -3 8 C-3.99 7.34 -4.98 6.68 -6 6 C-7.98 7.98 -9.96 9.96 -12 12 C-12.66 11.67 -13.32 11.34 -14 11 C-12.23807715 9.15730989 -10.46648194 7.32609243 -8.6875 5.5 C-7.93823242 4.71302734 -7.93823242 4.71302734 -7.17382812 3.91015625 C-3.33984375 0 -3.33984375 0 0 0 Z " fill="#3667DF" transform="translate(186,80)"/>
<path d="M0 0 C2.14588166 3.21882249 3.39802343 6.45123086 4.6875 10.0625 C4.92533203 10.69994141 5.16316406 11.33738281 5.40820312 11.99414062 C6.00030023 13.64194167 6.50661705 15.31999984 7 17 C6.67 17.66 6.34 18.32 6 19 C3.55078125 17.484375 3.55078125 17.484375 1 15 C0.46574086 12.22539454 0.21108048 10.02201654 0.1875 7.25 C0.16236328 6.55261719 0.13722656 5.85523438 0.11132812 5.13671875 C0.05271038 3.42508051 0.02342947 1.7124814 0 0 Z " fill="#1041CD" transform="translate(359,127)"/>
<path d="M0 0 C1.65 0 3.3 0 5 0 C4.79375 0.99 4.5875 1.98 4.375 3 C3.92091004 6.02522094 4.17281741 8.24824453 5 11.1875 C5.94403349 14.78662769 6.05445376 15.6975094 5 19 C3.96772138 16.39985473 2.94894848 13.79573631 1.9375 11.1875 C1.64294922 10.44951172 1.34839844 9.71152344 1.04492188 8.95117188 C-1.11328125 3.33984375 -1.11328125 3.33984375 0 0 Z " fill="#1041D6" transform="translate(325,88)"/>
<path d="M0 0 C5.94 0 11.88 0 18 0 C18 0.33 18 0.66 18 1 C12.60902318 2.13494249 7.48452296 2.07411518 2 2 C2.33 5.3 2.66 8.6 3 12 C2.34 12 1.68 12 1 12 C0.67 8.04 0.34 4.08 0 0 Z " fill="#0F46D7" transform="translate(910,148)"/>
<path d="M0 0 C1.51400391 0.01740234 1.51400391 0.01740234 3.05859375 0.03515625 C4.07050781 0.04417969 5.08242187 0.05320313 6.125 0.0625 C7.29869141 0.07990234 7.29869141 0.07990234 8.49609375 0.09765625 C8.49609375 0.75765625 8.49609375 1.41765625 8.49609375 2.09765625 C7.08457031 2.26201172 7.08457031 2.26201172 5.64453125 2.4296875 C4.39929688 2.58824219 3.1540625 2.74679688 1.87109375 2.91015625 C0.02644531 3.13638672 0.02644531 3.13638672 -1.85546875 3.3671875 C-5.52406913 4.10169314 -8.2562905 5.2739951 -11.50390625 7.09765625 C-11.50390625 5.44765625 -11.50390625 3.79765625 -11.50390625 2.09765625 C-9.453125 1.86979167 -7.40234375 1.64192708 -5.3515625 1.4140625 C-2.80701946 0.97831623 -2.79909069 0.1091689 0 0 Z " fill="#1B48C5" transform="translate(248.50390625,146.90234375)"/>
<path d="M0 0 C0.99 0.33 1.98 0.66 3 1 C2.34 1 1.68 1 1 1 C0.67 1.99 0.34 2.98 0 4 C-4.32633551 6.43356373 -9.14557204 6.59810836 -14 7 C-8.22365738 1.02447315 -8.22365738 1.02447315 -3.875 0.9375 C-2.92625 0.958125 -1.9775 0.97875 -1 1 C-0.67 0.67 -0.34 0.34 0 0 Z " fill="#0A41DE" transform="translate(925,90)"/>
<path d="M0 0 C1.32 0.66 2.64 1.32 4 2 C0.7 4.97 -2.6 7.94 -6 11 C-6.99 10.01 -7.98 9.02 -9 8 C-8.67 7.01 -8.34 6.02 -8 5 C-6.02 5.495 -6.02 5.495 -4 6 C-3.67 5.01 -3.34 4.02 -3 3 C-2.01 2.67 -1.02 2.34 0 2 C0 1.34 0 0.68 0 0 Z " fill="#2E63E4" transform="translate(156,84)"/>
<path d="M0 0 C0.66 0.33 1.32 0.66 2 1 C-3.28571429 7.42857143 -3.28571429 7.42857143 -6 10 C-5.34 10.33 -4.68 10.66 -4 11 C-4.639375 11.28875 -5.27875 11.5775 -5.9375 11.875 C-8.15206079 12.82823451 -8.15206079 12.82823451 -9 15 C-9.66 15 -10.32 15 -11 15 C-9.37956629 8.3562218 -5.62049485 3.74699657 0 0 Z " fill="#1440D1" transform="translate(664,141)"/>
<path d="M0 0 C0.82638376 2.89234315 1 4.88742431 1 8 C1.33 8.66 1.66 9.32 2 10 C1.01 11.485 1.01 11.485 0 13 C-0.66 13 -1.32 13 -2 13 C-2 12.01 -2 11.02 -2 10 C-2.66 10 -3.32 10 -4 10 C-4 10.66 -4 11.32 -4 12 C-4.66 11.67 -5.32 11.34 -6 11 C-5.18993474 9.35296694 -4.3768779 7.70740494 -3.5625 6.0625 C-3.11003906 5.14597656 -2.65757812 4.22945313 -2.19140625 3.28515625 C-1 1 -1 1 0 0 Z " fill="#0B40DB" transform="translate(902,106)"/>
<path d="M0 0 C0 3 0 3 -1 5.75 C-2.91243028 11.96539842 -1.9587029 17.00147237 0 23 C-0.99 22.67 -1.98 22.34 -3 22 C-4.50938632 18.98122735 -4.14366437 15.86920415 -4.125 12.5625 C-4.12886719 11.88123047 -4.13273438 11.19996094 -4.13671875 10.49804688 C-4.1306374 7.39351954 -3.98890312 4.96670935 -3 2 C-2.01 1.34 -1.02 0.68 0 0 Z " fill="#1441CB" transform="translate(233,156)"/>
<path d="M0 0 C1.21105854 3.63317562 0.3974399 4.82943427 -1.25390625 8.14257812 C-1.58261719 8.77615234 -1.91132812 9.40972656 -2.25 10.0625 C-2.71986328 11.01866211 -2.71986328 11.01866211 -3.19921875 11.99414062 C-4.86049853 15.26500062 -5.89123946 16.92749297 -9 19 C-8.690625 18.319375 -8.38125 17.63875 -8.0625 16.9375 C-6.65531168 13.04703818 -6 9.14297485 -6 5 C-5.38125 4.9175 -4.7625 4.835 -4.125 4.75 C-1.81562433 4.18741541 -1.81562433 4.18741541 -0.75 1.9375 C-0.37875 0.9784375 -0.37875 0.9784375 0 0 Z " fill="#1743CE" transform="translate(625,165)"/>
<path d="M0 0 C0.99 0 1.98 0 3 0 C3.33 0.99 3.66 1.98 4 3 C2.35 3.33 0.7 3.66 -1 4 C-0.01 4.33 0.98 4.66 2 5 C2 6.65 2 8.3 2 10 C-1.72114571 7.68462045 -4.61229661 5.71420527 -7 2 C-6.030625 1.855625 -5.06125 1.71125 -4.0625 1.5625 C-1.13513227 1.32437659 -1.13513227 1.32437659 0 0 Z " fill="#2A64EC" transform="translate(67,103)"/>
<path d="M0 0 C3.99012371 0.55989303 6.5255052 1.75669768 9.8125 4.0625 C10.60269531 4.61035156 11.39289062 5.15820312 12.20703125 5.72265625 C12.79871094 6.14417969 13.39039063 6.56570312 14 7 C11 7 11 7 8 6 C7.67 6.99 7.34 7.98 7 9 C6.01 8.67 5.02 8.34 4 8 C4.33 6.68 4.66 5.36 5 4 C4.01 3.67 3.02 3.34 2 3 C2 2.34 2 1.68 2 1 C1.34 0.67 0.68 0.34 0 0 Z " fill="#1244D5" transform="translate(968,87)"/>
<path d="M0 0 C0.33 1.32 0.66 2.64 1 4 C0.01 4.495 0.01 4.495 -1 5 C-1.33 5.99 -1.66 6.98 -2 8 C-3.62890625 9.38671875 -3.62890625 9.38671875 -5.5625 10.6875 C-6.52349609 11.34298828 -6.52349609 11.34298828 -7.50390625 12.01171875 C-7.99761719 12.33785156 -8.49132812 12.66398438 -9 13 C-10.32 12.34 -11.64 11.68 -13 11 C-12.39671875 10.62488281 -11.7934375 10.24976563 -11.171875 9.86328125 C-6.6901007 6.99349996 -3.03350913 4.48431785 0 0 Z " fill="#113FCF" transform="translate(976,173)"/>
<path d="M0 0 C2 1 4 2 6 3 C6 8.61 6 14.22 6 20 C5.34 20 4.68 20 4 20 C3.67 20.99 3.34 21.98 3 23 C2.34 22.67 1.68 22.34 1 22 C1.495 21.175 1.99 20.35 2.5 19.5 C4.25131229 15.41360465 4.67107893 12.37508598 4 8 C2.67570727 4.68194858 2.67570727 4.68194858 1 2 C0.67 1.34 0.34 0.68 0 0 Z " fill="#123EC4" transform="translate(843,158)"/>
<path d="M0 0 C6.93 0 13.86 0 21 0 C20.34 2.31 19.68 4.62 19 7 C18.67 7 18.34 7 18 7 C18 5.02 18 3.04 18 1 C12.39 1 6.78 1 1 1 C0.67 2.65 0.34 4.3 0 6 C-0.66 6 -1.32 6 -2 6 C-1.34 4.02 -0.68 2.04 0 0 Z " fill="#1845D1" transform="translate(979,167)"/>
<path d="M0 0 C1.27609323 0.90933009 2.54565553 1.82782853 3.8125 2.75 C4.87404297 3.51570312 4.87404297 3.51570312 5.95703125 4.296875 C8.02977691 6.02482358 9.47375854 7.78526476 11 10 C8.69 10.33 6.38 10.66 4 11 C4.33 10.01 4.66 9.02 5 8 C4.01 7.67 3.02 7.34 2 7 C2.33 6.01 2.66 5.02 3 4 C2.01 4 1.02 4 0 4 C0 2.68 0 1.36 0 0 Z " fill="#2E63E8" transform="translate(80,141)"/>
<path d="M0 0 C2.64 0.33 5.28 0.66 8 1 C8.33 1.99 8.66 2.98 9 4 C10.64551962 4.71727778 12.31422289 5.38325228 14 6 C14.66 6.66 15.32 7.32 16 8 C10.80073761 7.48007376 6.36286536 5.84961927 2 3 C1.34 2.01 0.68 1.02 0 0 Z " fill="#1141D7" transform="translate(221,195)"/>
<path d="M0 0 C1.52475575 4.57426725 -0.52553539 7.77664414 -2.25 12.125 C-2.56324219 12.96160156 -2.87648438 13.79820312 -3.19921875 14.66015625 C-3.50988281 15.45550781 -3.82054687 16.25085938 -4.140625 17.0703125 C-4.42454102 17.80008301 -4.70845703 18.52985352 -5.00097656 19.28173828 C-6 21 -6 21 -9 22 C-9.33 21.34 -9.66 20.68 -10 20 C-9.01 20 -8.02 20 -7 20 C-6.855625 19.030625 -6.71125 18.06125 -6.5625 17.0625 C-6 14 -6 14 -5 13 C-4.814375 11.081875 -4.814375 11.081875 -4.625 9.125 C-4.19533679 5.24417098 -4.19533679 5.24417098 -2.5 3.125 C-2.005 2.75375 -1.51 2.3825 -1 2 C-0.67 1.34 -0.34 0.68 0 0 Z " fill="#1842CB" transform="translate(397,181)"/>
<path d="M0 0 C0.66 0.33 1.32 0.66 2 1 C2 2.32 2 3.64 2 5 C1.01 5.350625 0.02 5.70125 -1 6.0625 C-5.77728877 8.07501838 -9.27727239 11.47066083 -13 15 C-13.66 14.67 -14.32 14.34 -15 14 C-10.05 9.38 -5.1 4.76 0 0 Z " fill="#406ACA" transform="translate(140,119)"/>
<path d="M0 0 C2.32100162 3.48150244 3.67675155 7.10566684 5.125 11 C5.40214844 11.72445312 5.67929687 12.44890625 5.96484375 13.1953125 C7.11095711 16.25537872 8 18.70542099 8 22 C7.34 22 6.68 22 6 22 C4.50178941 18.62902617 4 16.79557881 4 13 C3.34 13 2.68 13 2 13 C1.66127487 11.58461283 1.32925376 10.16762037 1 8.75 C0.814375 7.96109375 0.62875 7.1721875 0.4375 6.359375 C0 4 0 4 0 0 Z " fill="#1640C9" transform="translate(347,94)"/>
<path d="M0 0 C-0.33 1.32 -0.66 2.64 -1 4 C0.32 4.66 1.64 5.32 3 6 C1 7 1 7 -1.06640625 6.4765625 C-1.89011719 6.19554688 -2.71382812 5.91453125 -3.5625 5.625 C-8.41529752 4.07803835 -12.93024712 3.40885104 -18 3 C-18 2.67 -18 2.34 -18 2 C-16.75283203 2.03480469 -16.75283203 2.03480469 -15.48046875 2.0703125 C-14.39378906 2.08835937 -13.30710937 2.10640625 -12.1875 2.125 C-11.10855469 2.14820312 -10.02960937 2.17140625 -8.91796875 2.1953125 C-5.24403353 1.94939983 -3.71329193 0 0 0 Z " fill="#0D44D3" transform="translate(717,98)"/>
<path d="M0 0 C1.5625 1.25 1.5625 1.25 3 3 C2.6875 5.1875 2.6875 5.1875 2 7 C2.66 7.33 3.32 7.66 4 8 C3.67 8.66 3.34 9.32 3 10 C3.99 10 4.98 10 6 10 C6.99 12.31 7.98 14.62 9 17 C8.01 17 7.02 17 6 17 C2.40476401 11.26884891 0.37035409 6.78982507 0 0 Z " fill="#0E3CDD" transform="translate(652,175)"/>
<path d="M0 0 C3.4375 0.8125 3.4375 0.8125 7 2 C7.33 2.99 7.66 3.98 8 5 C8.99 5.33 9.98 5.66 11 6 C11.33 7.98 11.66 9.96 12 12 C7.47384007 8.32167983 3.60575001 4.58913637 0 0 Z " fill="#3664DC" transform="translate(64,154)"/>
<path d="M0 0 C0.66 0.33 1.32 0.66 2 1 C3.35123413 7.02858305 3.09557043 10.449322 0 16 C-2.0625 18.4375 -2.0625 18.4375 -4 20 C-4.66 20 -5.32 20 -6 20 C-5.1875 17.5625 -5.1875 17.5625 -4 15 C-3.01 14.67 -2.02 14.34 -1 14 C0.38226016 11.23547967 0.09525387 8.9538637 0.0625 5.875 C0.05347656 4.77929688 0.04445313 3.68359375 0.03515625 2.5546875 C0.02355469 1.71164063 0.01195312 0.86859375 0 0 Z " fill="#1844C7" transform="translate(478,41)"/>
<path d="M0 0 C0.66 0.33 1.32 0.66 2 1 C-0.97688535 3.04660868 -3.63549194 4.25772416 -7.125 5.0625 C-11.0312056 5.77272906 -11.0312056 5.77272906 -14 8 C-14 7.34 -14 6.68 -14 6 C-15.32 6 -16.64 6 -18 6 C-18 5.34 -18 4.68 -18 4 C-17.11957031 3.87882813 -16.23914063 3.75765625 -15.33203125 3.6328125 C-14.17058594 3.46523437 -13.00914062 3.29765625 -11.8125 3.125 C-10.66394531 2.96257812 -9.51539063 2.80015625 -8.33203125 2.6328125 C-5.02933443 2.11799815 -5.02933443 2.11799815 -2.19921875 0.8671875 C-1.47347656 0.58101562 -0.74773438 0.29484375 0 0 Z " fill="#1143D5" transform="translate(585,183)"/>
<path d="M0 0 C1.32 0.66 2.64 1.32 4 2 C4 1.34 4 0.68 4 0 C5.32 0.33 6.64 0.66 8 1 C6.71937515 2.7074998 5.38232443 4.37373596 4 6 C3.34 6 2.68 6 2 6 C1.67 6.99 1.34 7.98 1 9 C0.34 8.67 -0.32 8.34 -1 8 C-1.08226668 4.95613276 -0.97608217 2.92824652 0 0 Z " fill="#0745D6" transform="translate(281,186)"/>
<path d="M0 0 C3.45925163 1.2491742 6.14693203 2.67527795 9 5 C9.66 4.01 10.32 3.02 11 2 C12 5 12 5 12.375 6.9375 C13.1259947 9.41578253 14.36725641 11.01231215 16 13 C12.06014326 11.32651716 8.98587525 8.67405957 5.75 5.9375 C5.19570312 5.47794922 4.64140625 5.01839844 4.0703125 4.54492188 C2.69175775 3.38876943 1.34298593 2.19728462 0 1 C0 0.67 0 0.34 0 0 Z " fill="#3D68D8" transform="translate(76,119)"/>
<path d="M0 0 C5.41028673 1.6907146 11.39988925 5.16321059 14.23828125 10.1953125 C14.61533203 11.08863281 14.61533203 11.08863281 15 12 C14.01 12 13.02 12 12 12 C11.67 11.34 11.34 10.68 11 10 C10.34 10 9.68 10 9 10 C8.9175 9.38125 8.835 8.7625 8.75 8.125 C8.21402157 5.85609195 8.21402157 5.85609195 6.1875 5 C5.465625 4.67 4.74375 4.34 4 4 C2.62913085 2.70529025 1.28659163 1.37849103 0 0 Z " fill="#1843CD" transform="translate(727,88)"/>
<path d="M0 0 C7.26 0 14.52 0 22 0 C24 5 24 5 24 8 C23.34 8 22.68 8 22 8 C21.67 5.69 21.34 3.38 21 1 C10.605 1.495 10.605 1.495 0 2 C0 1.34 0 0.68 0 0 Z " fill="#214AC1" transform="translate(323,86)"/>
<path d="M0 0 C0.66 0.33 1.32 0.66 2 1 C0.78115393 2.61202222 -0.45056485 4.21431577 -1.6875 5.8125 C-2.37199219 6.70582031 -3.05648437 7.59914062 -3.76171875 8.51953125 C-6.00505524 11.00560223 -8.05477113 12.44743627 -11 14 C-11 13.34 -11 12.68 -11 12 C-10.34 11.67 -9.68 11.34 -9 11 C-8.67 10.01 -8.34 9.02 -8 8 C-7.34 8 -6.68 8 -6 8 C-5.34 6.68 -4.68 5.36 -4 4 C-3.34 4 -2.68 4 -2 4 C-2 3.01 -2 2.02 -2 1 C-1.34 0.67 -0.68 0.34 0 0 Z " fill="#1540D0" transform="translate(731,183)"/>
<path d="M0 0 C0.66 0 1.32 0 2 0 C2.33 0.99 2.66 1.98 3 3 C1.68 3.33 0.36 3.66 -1 4 C-1.061875 4.763125 -1.12375 5.52625 -1.1875 6.3125 C-2 9 -2 9 -4.4375 10.875 C-5.7059375 11.431875 -5.7059375 11.431875 -7 12 C-7.66 11.67 -8.32 11.34 -9 11 C-8.43410156 10.37351563 -7.86820313 9.74703125 -7.28515625 9.1015625 C-6.18494141 7.87566406 -6.18494141 7.87566406 -5.0625 6.625 C-4.33160156 5.81289062 -3.60070312 5.00078125 -2.84765625 4.1640625 C-0.97010529 2.14075833 -0.97010529 2.14075833 0 0 Z " fill="#1141D1" transform="translate(725,170)"/>
<path d="M0 0 C0.33 0 0.66 0 1 0 C1.7342166 6.75479274 -0.72408048 11.18524285 -4 17 C-4.99 16.67 -5.98 16.34 -7 16 C-6.67 14.68 -6.34 13.36 -6 12 C-5.67 12.33 -5.34 12.66 -5 13 C-3.35 8.71 -1.7 4.42 0 0 Z " fill="#1C45CD" transform="translate(384,165)"/>
<path d="M0 0 C1.14680101 3.44040303 0.87124738 4.00270384 -0.43359375 7.23046875 C-0.75263672 8.03291016 -1.07167969 8.83535156 -1.40039062 9.66210938 C-1.74263672 10.49548828 -2.08488281 11.32886719 -2.4375 12.1875 C-2.77587891 13.03248047 -3.11425781 13.87746094 -3.46289062 14.74804688 C-4.30025552 16.83556216 -5.14620197 18.91916409 -6 21 C-7.07174763 17.34811918 -6.76411467 14.73567172 -6 11 C-5.34 11 -4.68 11 -4 11 C-3.79503906 10.37351563 -3.59007812 9.74703125 -3.37890625 9.1015625 C-3.10949219 8.28429687 -2.84007812 7.46703125 -2.5625 6.625 C-2.29566406 5.81289062 -2.02882813 5.00078125 -1.75390625 4.1640625 C-1 2 -1 2 0 0 Z " fill="#1743CA" transform="translate(405,160)"/>
<path d="M0 0 C0.66 0.33 1.32 0.66 2 1 C1 4 1 4 -1 5 C-1.226875 5.66 -1.45375 6.32 -1.6875 7 C-2.3371875 7.99 -2.3371875 7.99 -3 9 C-6.625 9.75 -6.625 9.75 -10 10 C-6.66666667 6.66666667 -3.33333333 3.33333333 0 0 Z " fill="#3967E3" transform="translate(160,101)"/>
<path d="M0 0 C4.94515667 2.62711448 8.87775489 6.26645294 13 10 C10.0644353 10 7.80814729 9.84244419 5 9 C2.55352838 6.46916729 2 5.5747073 2 2 C1.34 2 0.68 2 0 2 C0 1.34 0 0.68 0 0 Z " fill="#2D61D5" transform="translate(25,92)"/>
<path d="M0 0 C1.98 0 3.96 0 6 0 C6.33 0.66 6.66 1.32 7 2 C7.99 2.66 8.98 3.32 10 4 C5.71 4.99 1.42 5.98 -3 7 C-2.67 6.34 -2.34 5.68 -2 5 C-1.01 5 -0.02 5 1 5 C0.67 3.35 0.34 1.7 0 0 Z " fill="#0E41D7" transform="translate(689,98)"/>
<path d="M0 0 C5.97942407 2.11038497 10.69355877 5.36229406 15 10 C14.67 10.66 14.34 11.32 14 12 C13.34 11.67 12.68 11.34 12 11 C12 10.34 12 9.68 12 9 C11.34 9 10.68 9 10 9 C10 8.34 10 7.68 10 7 C8.02 6.34 6.04 5.68 4 5 C4 4.34 4 3.68 4 3 C3.01 3 2.02 3 1 3 C0.67 2.01 0.34 1.02 0 0 Z " fill="#1B43CD" transform="translate(843,88)"/>
<path d="M0 0 C-0.99 0.495 -0.99 0.495 -2 1 C-2.99 2.485 -2.99 2.485 -4 4 C-4.66 3.67 -5.32 3.34 -6 3 C-6.33 3.66 -6.66 4.32 -7 5 C-9.64 5 -12.28 5 -15 5 C-12.72676563 2.4061813 -10.76597542 1.31688531 -7.5 0.25 C-6.7265625 -0.01296875 -5.953125 -0.2759375 -5.15625 -0.546875 C-3 -1 -3 -1 0 0 Z " fill="#1242D8" transform="translate(240,135)"/>
<path d="M0 0 C1.58323688 -0.027193 3.16661062 -0.04648306 4.75 -0.0625 C6.07257813 -0.07990234 6.07257813 -0.07990234 7.421875 -0.09765625 C9.7818838 -0.00826198 11.74498524 0.33087179 14 1 C14.33 2.98 14.66 4.96 15 7 C14.50371094 6.73445313 14.00742187 6.46890625 13.49609375 6.1953125 C9.05021478 3.88379288 4.86099676 2.21524919 0 1 C0 0.67 0 0.34 0 0 Z " fill="#113FD4" transform="translate(266,101)"/>
<path d="M0 0 C4.81033104 2.54664585 8.32442148 4.99027798 12 9 C9.03 8.505 9.03 8.505 6 8 C6 7.34 6 6.68 6 6 C5.01 6 4.02 6 3 6 C3 5.34 3 4.68 3 4 C2.01 4.33 1.02 4.66 0 5 C0 3.35 0 1.7 0 0 Z " fill="#3264DB" transform="translate(65,61)"/>
<path d="M0 0 C6 7.2 6 7.2 6 13 C3.525 12.01 3.525 12.01 1 11 C1.33 8.69 1.66 6.38 2 4 C1.34 4 0.68 4 0 4 C0 2.68 0 1.36 0 0 Z " fill="#1241D5" transform="translate(993,106)"/>
<path d="M0 0 C0.99 0.33 1.98 0.66 3 1 C1.35653302 2.33624901 -0.28983686 3.66892851 -1.9375 5 C-3.31228516 6.11375 -3.31228516 6.11375 -4.71484375 7.25 C-7 9 -7 9 -8 9 C-8 7.02 -8 5.04 -8 3 C-7.34 2.67 -6.68 2.34 -6 2 C-5.01 2.33 -4.02 2.66 -3 3 C-2.01 2.01 -1.02 1.02 0 0 Z " fill="#3166DC" transform="translate(173,72)"/>
<path d="M0 0 C0.66 0.33 1.32 0.66 2 1 C2 1.66 2 2.32 2 3 C0.7934375 3.4021875 0.7934375 3.4021875 -0.4375 3.8125 C-1.283125 4.204375 -2.12875 4.59625 -3 5 C-3.33 5.99 -3.66 6.98 -4 8 C-5.84765625 8.73046875 -5.84765625 8.73046875 -8.0625 9.1875 C-8.79597656 9.34605469 -9.52945313 9.50460938 -10.28515625 9.66796875 C-10.85105469 9.77753906 -11.41695313 9.88710937 -12 10 C-8.29909479 6.0747975 -4.45040344 3.05419844 0 0 Z " fill="#3A68DB" transform="translate(132,60)"/>
<path d="M0 0 C0.53625 0.28875 1.0725 0.5775 1.625 0.875 C4.08024809 2.11346577 4.08024809 2.11346577 7.1875 2.9375 C8.5796875 3.4634375 8.5796875 3.4634375 10 4 C10.33 4.99 10.66 5.98 11 7 C11.66 7.66 12.32 8.32 13 9 C12.01 9.495 12.01 9.495 11 10 C9.35063952 8.71284028 7.70560953 7.42012981 6.0625 6.125 C5.14597656 5.40570313 4.22945312 4.68640625 3.28515625 3.9453125 C1 2 1 2 0 0 Z " fill="#446EDE" transform="translate(41,216)"/>
<path d="M0 0 C0.6290625 0.39832031 1.258125 0.79664062 1.90625 1.20703125 C7.16108792 4.4596493 12.13654848 7.04551616 18 9 C18 9.33 18 9.66 18 10 C11.52422843 10.9854435 8.2347946 8.56797134 3.0390625 4.82421875 C1 3 1 3 0 0 Z " fill="#1A41CB" transform="translate(801,122)"/>
<path d="M0 0 C0.66 0.33 1.32 0.66 2 1 C1.57847656 1.45890625 1.15695312 1.9178125 0.72265625 2.390625 C0.17480469 3.00421875 -0.37304688 3.6178125 -0.9375 4.25 C-1.48277344 4.85328125 -2.02804687 5.4565625 -2.58984375 6.078125 C-4.06212799 8.08467305 -4.57529189 9.57002449 -5 12 C-5.66 12 -6.32 12 -7 12 C-7.33 13.32 -7.66 14.64 -8 16 C-8.70703125 14.3203125 -8.70703125 14.3203125 -9 12 C-7.63671875 9.4921875 -7.63671875 9.4921875 -5.6875 6.875 C-4.73423828 5.57175781 -4.73423828 5.57175781 -3.76171875 4.2421875 C-2 2 -2 2 0 0 Z " fill="#1A46C4" transform="translate(790,93)"/>
<path d="M0 0 C-6.625 3 -6.625 3 -10 3 C-10 3.66 -10 4.32 -10 5 C-11.32 5 -12.64 5 -14 5 C-14 5.66 -14 6.32 -14 7 C-14.66 7 -15.32 7 -16 7 C-15 4 -15 4 -13.2578125 2.8671875 C-12.55398438 2.53976563 -11.85015625 2.21234375 -11.125 1.875 C-10.42632813 1.54242188 -9.72765625 1.20984375 -9.0078125 0.8671875 C-5.49507184 -0.64998843 -3.64386809 -1.13085562 0 0 Z " fill="#1840D1" transform="translate(560,86)"/>
<path d="M0 0 C4.455 0.99 4.455 0.99 9 2 C9.33 3.98 9.66 5.96 10 8 C6.05205855 6.32971708 3.18203882 3.8204435 0 1 C0 0.67 0 0.34 0 0 Z " fill="#3569E0" transform="translate(30,80)"/>
<path d="M0 0 C0.66 0 1.32 0 2 0 C0.4169423 4.2742558 -2.50568404 6.26531794 -6 9 C-6.33 8.34 -6.66 7.68 -7 7 C-6.0625 4.375 -6.0625 4.375 -5 2 C-3.68 2.33 -2.36 2.66 -1 3 C-0.67 2.01 -0.34 1.02 0 0 Z " fill="#1543D0" transform="translate(861,188)"/>
<path d="M0 0 C0 0.66 0 1.32 0 2 C-4.0271824 4.20536179 -7.43545749 5.45660208 -12 6 C-7.9356402 1.59694355 -5.91662521 0 0 0 Z " fill="#346AE8" transform="translate(184,26)"/>
<path d="M0 0 C2.475 0.99 2.475 0.99 5 2 C5 2.66 5 3.32 5 4 C5.66 4 6.32 4 7 4 C8.05771739 5.63064764 9.05273046 7.30280873 10 9 C10.99 10.485 10.99 10.485 12 12 C8.87142986 10.6118265 6.71810826 8.98898122 4.3125 6.5625 C3.71050781 5.96566406 3.10851562 5.36882812 2.48828125 4.75390625 C1 3 1 3 0 0 Z " fill="#183ECC" transform="translate(530,184)"/>
<path d="M0 0 C0.99386719 0.00902344 1.98773437 0.01804688 3.01171875 0.02734375 C4.15060547 0.04474609 4.15060547 0.04474609 5.3125 0.0625 C5.3125 0.3925 5.3125 0.7225 5.3125 1.0625 C3.3325 1.0625 1.3525 1.0625 -0.6875 1.0625 C-0.6875 1.7225 -0.6875 2.3825 -0.6875 3.0625 C-3.9875 3.0625 -7.2875 3.0625 -10.6875 3.0625 C-7.3968001 -0.2281999 -4.43626547 -0.05219136 0 0 Z " fill="#1241D2" transform="translate(700.6875,145.9375)"/>
<path d="M0 0 C5.82271337 -0.59720137 9.9209404 1.471757 15 4 C15 4.66 15 5.32 15 6 C13.24719267 5.57388649 11.49782565 5.13360733 9.75 4.6875 C8.77546875 4.44386719 7.8009375 4.20023438 6.796875 3.94921875 C4.01024335 3.00347644 2.22695632 1.89291287 0 0 Z " fill="#1644CD" transform="translate(797,143)"/>
<path d="M0 0 C1.32 0.33 2.64 0.66 4 1 C0.7 3.97 -2.6 6.94 -6 10 C-6.66 9.01 -7.32 8.02 -8 7 C-7.195625 6.731875 -6.39125 6.46375 -5.5625 6.1875 C-4.716875 5.795625 -3.87125 5.40375 -3 5 C-2.67 4.01 -2.34 3.02 -2 2 C-1.34 1.34 -0.68 0.68 0 0 Z " fill="#3161D7" transform="translate(137,101)"/>
<path d="M0 0 C0.66 0.33 1.32 0.66 2 1 C1.67 1.66 1.34 2.32 1 3 C0.34 3 -0.32 3 -1 3 C-1 3.66 -1 4.32 -1 5 C-0.34 5.33 0.32 5.66 1 6 C-2.465 7.485 -2.465 7.485 -6 9 C-5.69381595 5.32579134 -5.24228216 4.21864487 -2.4375 1.6875 C-1.633125 1.130625 -0.82875 0.57375 0 0 Z " fill="#326AE5" transform="translate(170,32)"/>
<path d="M0 0 C1.29349001 2.48748078 2.38570901 4.95588754 3.4375 7.5625 C4.7584079 10.46849738 5.57851984 12.03975416 8 14 C7.67 14.99 7.34 15.98 7 17 C2.70211724 11.32206314 0.26123813 7.18404854 0 0 Z " fill="#1540C5" transform="translate(776,171)"/>
<path d="M0 0 C1.80125336 2.70188004 3.00243753 4.93057703 4 8 C3.67 8.99 3.34 9.98 3 11 C1.66666667 11 0.33333333 11 -1 11 C-1.33 9.68 -1.66 8.36 -2 7 C-1.34 7 -0.68 7 0 7 C0 4.69 0 2.38 0 0 Z " fill="#0E42D5" transform="translate(355,116)"/>
<path d="M0 0 C0.66 0.33 1.32 0.66 2 1 C1.66226563 1.51949219 1.32453125 2.03898437 0.9765625 2.57421875 C-1.39891701 6.28848007 -3.55762815 9.80400915 -5 14 C-5.33 14 -5.66 14 -6 14 C-6.17942163 10.05272412 -6.09350689 7.4019487 -4 4 C-3.34 4 -2.68 4 -2 4 C-2 3.01 -2 2.02 -2 1 C-1.34 0.67 -0.68 0.34 0 0 Z " fill="#123CC2" transform="translate(237,109)"/>
<path d="M0 0 C0.66 0.33 1.32 0.66 2 1 C0.35 2.65 -1.3 4.3 -3 6 C-2.01 6.66 -1.02 7.32 0 8 C0 8.66 0 9.32 0 10 C-2.64 9.67 -5.28 9.34 -8 9 C-7.04270084 7.87411986 -6.08412105 6.7493285 -5.125 5.625 C-4.59132812 4.99851562 -4.05765625 4.37203125 -3.5078125 3.7265625 C-2.38567993 2.44163349 -1.20628025 1.20628025 0 0 Z " fill="#3964DA" transform="translate(170,92)"/>
<path d="M0 0 C8.19256018 0.35010941 8.19256018 0.35010941 11.5625 3.0625 C12.036875 3.701875 12.51125 4.34125 13 5 C8.02693484 4.50269348 4.36200187 3.44697666 0 1 C0 0.67 0 0.34 0 0 Z " fill="#113ED0" transform="translate(667,198)"/>
<path d="M0 0 C0.99 0.33 1.98 0.66 3 1 C0.36 3.64 -2.28 6.28 -5 9 C-5.33 7.68 -5.66 6.36 -6 5 C-5.01 5 -4.02 5 -3 5 C-3.33 3.68 -3.66 2.36 -4 1 C-2.68 1.33 -1.36 1.66 0 2 C0 1.34 0 0.68 0 0 Z " fill="#3264DD" transform="translate(137,146)"/>
<path d="M0 0 C2.8125 0.125 2.8125 0.125 6 1 C8.09232309 4.20822874 9 6.15947088 9 10 C7.49702124 8.52386015 5.99768715 7.04400843 4.5 5.5625 C3.6646875 4.73878906 2.829375 3.91507813 1.96875 3.06640625 C0 1 0 1 0 0 Z " fill="#3A64DC" transform="translate(80,170)"/>
<path d="M0 0 C0.66 0 1.32 0 2 0 C2.66 1.65 3.32 3.3 4 5 C2.35 5.33 0.7 5.66 -1 6 C-1 7.65 -1 9.3 -1 11 C-1.66 10.67 -2.32 10.34 -3 10 C-2.01 6.7 -1.02 3.4 0 0 Z " fill="#1244D4" transform="translate(388,154)"/>
<path d="M0 0 C1.32 0.66 2.64 1.32 4 2 C1.36 3.98 -1.28 5.96 -4 8 C-4.33 7.01 -4.66 6.02 -5 5 C-4.01 4.67 -3.02 4.34 -2 4 C-0.79117904 1.99983534 -0.79117904 1.99983534 0 0 Z " fill="#2C5BDD" transform="translate(112,122)"/>
<path d="M0 0 C0 3 0 3 -2 6 C-3.32467746 6.6837045 -4.65863633 7.34964186 -6 8 C-7.70921589 9.5412312 -7.70921589 9.5412312 -9 11 C-9.66 10.67 -10.32 10.34 -11 10 C-9.73232923 8.70522938 -8.46073776 7.41429661 -7.1875 6.125 C-6.47980469 5.40570313 -5.77210938 4.68640625 -5.04296875 3.9453125 C-3 2 -3 2 0 0 Z " fill="#1940CF" transform="translate(542,92)"/>
<path d="M0 0 C0 0.66 0 1.32 0 2 C0.99 2 1.98 2 3 2 C2.67 2.99 2.34 3.98 2 5 C-0.31 4.67 -2.62 4.34 -5 4 C-4.67 3.01 -4.34 2.02 -4 1 C-2 0 -2 0 0 0 Z " fill="#0944DF" transform="translate(236,89)"/>
<path d="M0 0 C-1.40751221 0.86916887 -2.8264521 1.71985149 -4.25 2.5625 C-5.03890625 3.03816406 -5.8278125 3.51382813 -6.640625 4.00390625 C-9.30844625 5.13022151 -10.34501768 5.0169313 -13 4 C-12.01 4 -11.02 4 -10 4 C-10 3.01 -10 2.02 -10 1 C-8.71073008 0.63720544 -7.41846728 0.28503302 -6.125 -0.0625 C-5.40570313 -0.25972656 -4.68640625 -0.45695313 -3.9453125 -0.66015625 C-2 -1 -2 -1 0 0 Z " fill="#113CCE" transform="translate(278,198)"/>
<path d="M0 0 C2.8125 0.1875 2.8125 0.1875 6 1 C7.75 3.375 7.75 3.375 9 6 C9.99 7.485 9.99 7.485 11 9 C8.03469503 7.64199529 5.70868729 6.07571737 3.25 3.9375 C2.63640625 3.41027344 2.0228125 2.88304687 1.390625 2.33984375 C0.93171875 1.89769531 0.4728125 1.45554688 0 1 C0 0.67 0 0.34 0 0 Z " fill="#3C69DC" transform="translate(15,195)"/>
<path d="M0 0 C1.32 0.33 2.64 0.66 4 1 C3.0479279 2.00596297 2.08812654 3.00461563 1.125 4 C0.59132813 4.556875 0.05765625 5.11375 -0.4921875 5.6875 C-2 7 -2 7 -4 7 C-4.33 5.68 -4.66 4.36 -5 3 C-3.35 3 -1.7 3 0 3 C0 2.01 0 1.02 0 0 Z " fill="#1344D6" transform="translate(987,185)"/>
<path d="M0 0 C3 3 6 6 9 9 C6.03 8.505 6.03 8.505 3 8 C3 7.01 3 6.02 3 5 C2.01 4.67 1.02 4.34 0 4 C0 2.68 0 1.36 0 0 Z " fill="#1241CA" transform="translate(798,174)"/>
<path d="M0 0 C0.33 0.66 0.66 1.32 1 2 C-0.65909182 6.10406925 -2.21704034 8.65195608 -6 11 C-6.66 10.67 -7.32 10.34 -8 10 C-5.36 6.7 -2.72 3.4 0 0 Z " fill="#1341C8" transform="translate(602,168)"/>
<path d="M0 0 C8.12628256 -0.46882399 8.12628256 -0.46882399 11.5625 1.375 C13 3 13 3 13 5 C11.58208592 4.54554036 10.16571954 4.08625056 8.75 3.625 C7.96109375 3.36976563 7.1721875 3.11453125 6.359375 2.8515625 C4.13372042 2.04826333 2.09068328 1.10288338 0 0 Z " fill="#103EC8" transform="translate(830,153)"/>
<path d="M0 0 C4.98791571 0.47503959 8.0232741 1.9701136 12 5 C12 5.33 12 5.66 12 6 C10.02 6 8.04 6 6 6 C6.33 5.01 6.66 4.02 7 3 C4.69 2.67 2.38 2.34 0 2 C0 1.34 0 0.68 0 0 Z " fill="#1541CD" transform="translate(281,87)"/>
<path d="M0 0 C0.99 0.33 1.98 0.66 3 1 C3.73080266 2.97746603 4.39421747 4.98072489 5 7 C5.99 8.485 5.99 8.485 7 10 C3.64084842 8.56036361 1.28375062 6.87583411 -1 4 C-0.75 1.75 -0.75 1.75 0 0 Z " fill="#3363E0" transform="translate(9,58)"/>
<path d="M0 0 C2.475 0.495 2.475 0.495 5 1 C5.33 1.99 5.66 2.98 6 4 C7.65 4.33 9.3 4.66 11 5 C10.01 6.485 10.01 6.485 9 8 C4.7257442 6.4169423 2.73468206 3.49431596 0 0 Z " fill="#3D67D2" transform="translate(90,180)"/>
<path d="M0 0 C3.46528089 3.46528089 4.88505382 8.16086116 5.1875 13 C5.125625 13.66 5.06375 14.32 5 15 C3.39282229 12.58923344 2.38457485 10.71900755 1.375 8.0625 C0.98441406 7.05896484 0.98441406 7.05896484 0.5859375 6.03515625 C0 4 0 4 0 0 Z " fill="#1743C4" transform="translate(304,106)"/>
<path d="M0 0 C0.66 0.33 1.32 0.66 2 1 C2 1.66 2 2.32 2 3 C2.66 3 3.32 3 4 3 C3.67 4.32 3.34 5.64 3 7 C3 6.34 3 5.68 3 5 C1.02 5.33 -0.96 5.66 -3 6 C-1.125 1.125 -1.125 1.125 0 0 Z " fill="#0D3FDA" transform="translate(660,103)"/>
<path d="M0 0 C6.51396648 1.35195531 6.51396648 1.35195531 8.875 4.5 C9.24625 5.325 9.6175 6.15 10 7 C10.33 7.66 10.66 8.32 11 9 C8.03469503 7.64199529 5.70868729 6.07571737 3.25 3.9375 C2.63640625 3.41027344 2.0228125 2.88304688 1.390625 2.33984375 C0.93171875 1.89769531 0.4728125 1.45554687 0 1 C0 0.67 0 0.34 0 0 Z " fill="#3B6AD7" transform="translate(49,96)"/>
<path d="M0 0 C0.66 1.32 1.32 2.64 2 4 C-1.3 4 -4.6 4 -8 4 C-7.01 3.67 -6.02 3.34 -5 3 C-5 2.34 -5 1.68 -5 1 C-3 0 -3 0 0 0 Z " fill="#0C42E1" transform="translate(470,58)"/>
<path d="M0 0 C0.66 0.99 1.32 1.98 2 3 C-0.31 4.98 -2.62 6.96 -5 9 C-5.33 7.68 -5.66 6.36 -6 5 C-5.01 5 -4.02 5 -3 5 C-3 4.34 -3 3.68 -3 3 C-2.01 3 -1.02 3 0 3 C0 2.01 0 1.02 0 0 Z " fill="#3065DE" transform="translate(157,211)"/>
<path d="M0 0 C1.98 0 3.96 0 6 0 C6.66 2.31 7.32 4.62 8 7 C4.63718422 5.55879324 2.4480582 3.71035015 0 1 C0 0.67 0 0.34 0 0 Z " fill="#0E38DB" transform="translate(784,188)"/>
<path d="M0 0 C1.258125 -0.04125 2.51625 -0.0825 3.8125 -0.125 C4.52019531 -0.14820313 5.22789062 -0.17140625 5.95703125 -0.1953125 C8 0 8 0 11 2 C7.7 2.33 4.4 2.66 1 3 C0.67 2.01 0.34 1.02 0 0 Z " fill="#0943DD" transform="translate(930,185)"/>
<path d="M0 0 C0.33 0.66 0.66 1.32 1 2 C-0.5625 4.5625 -0.5625 4.5625 -3 7 C-6.75 6.8125 -6.75 6.8125 -10 6 C-9.46375 5.7525 -8.9275 5.505 -8.375 5.25 C-5.43575748 3.70303025 -2.74245592 1.86985631 0 0 Z " fill="#1241CE" transform="translate(843,181)"/>
<path d="M0 0 C1.79093191 -0.08086147 3.58289628 -0.13912702 5.375 -0.1875 C6.87160156 -0.23970703 6.87160156 -0.23970703 8.3984375 -0.29296875 C9.25695312 -0.19628906 10.11546875 -0.09960938 11 0 C11.66 0.99 12.32 1.98 13 3 C12.125 6.1875 12.125 6.1875 11 9 C10.67 9 10.34 9 10 9 C10 6.36 10 3.72 10 1 C6.7 1 3.4 1 0 1 C0 0.67 0 0.34 0 0 Z " fill="#043AE4" transform="translate(280,146)"/>
<path d="M0 0 C1.32 0.33 2.64 0.66 4 1 C4 3.97 4 6.94 4 10 C1.04816899 7.04816899 0.91336012 4.04488053 0 0 Z " fill="#1242CF" transform="translate(353,165)"/>
<path d="M0 0 C2.475 0.99 2.475 0.99 5 2 C5 1.34 5 0.68 5 0 C5.66 0 6.32 0 7 0 C6.67 2.64 6.34 5.28 6 8 C3.87961365 5.38485683 1.86908256 2.80362384 0 0 Z " fill="#0D3FD3" transform="translate(281,108)"/>
<path d="M0 0 C1.32 0.66 2.64 1.32 4 2 C1.36 3.98 -1.28 5.96 -4 8 C-3.67 6.35 -3.34 4.7 -3 3 C-1.68 3 -0.36 3 1 3 C0.67 2.01 0.34 1.02 0 0 Z " fill="#3566D7" transform="translate(169,201)"/>
<path d="M0 0 C3.8665284 3.222107 4.88059018 6.14922412 6 11 C2.1334716 7.777893 1.11940982 4.85077588 0 0 Z " fill="#113EC5" transform="translate(896,170)"/>
<path d="M0 0 C1.32 0.66 2.64 1.32 4 2 C1.03 4.475 1.03 4.475 -2 7 C-1.125 1.125 -1.125 1.125 0 0 Z " fill="#2E62DD" transform="translate(126,155)"/>
<path d="M0 0 C0.99 0.33 1.98 0.66 3 1 C3 2.98 3 4.96 3 7 C1.02 5.35 -0.96 3.7 -3 2 C-2.01 1.34 -1.02 0.68 0 0 Z " fill="#3365E5" transform="translate(61,147)"/>
<path d="M0 0 C0.66 0.33 1.32 0.66 2 1 C0.68 3.64 -0.64 6.28 -2 9 C-2.33 9 -2.66 9 -3 9 C-3.33 6.69 -3.66 4.38 -4 2 C-2.68 2 -1.36 2 0 2 C0 1.34 0 0.68 0 0 Z " fill="#1141CC" transform="translate(537,116)"/>
<path d="M0 0 C3.53790403 3.69172595 3.59115883 7.09390595 4 12 C1.07034088 9.07034088 0.05866431 6.319947 -0.125 2.1875 C-0.08375 1.465625 -0.0425 0.74375 0 0 Z " fill="#1944C8" transform="translate(209,174)"/>
<path d="M0 0 C0 3.86695678 -1.41909971 6.5088452 -3 10 C-3.33 10 -3.66 10 -4 10 C-3.51171875 3.9453125 -3.51171875 3.9453125 -3 2 C-2.01 1.34 -1.02 0.68 0 0 Z " fill="#0F3AD3" transform="translate(233,156)"/>
<path d="M0 0 C0.33 0 0.66 0 1 0 C1.04241723 2.33294775 1.04092937 4.66702567 1 7 C0 8 0 8 -2.5625 8.0625 C-3.366875 8.041875 -4.17125 8.02125 -5 8 C-5 7.34 -5 6.68 -5 6 C-3.68 6 -2.36 6 -1 6 C-0.67 4.02 -0.34 2.04 0 0 Z " fill="#1650BF" transform="translate(1002,142)"/>
<path d="M0 0 C0.89694794 3.58779175 1.08304117 6.34618837 1 10 C-0.32 10.33 -1.64 10.66 -3 11 C-2.01 7.37 -1.02 3.74 0 0 Z " fill="#1443CE" transform="translate(407,101)"/>
<path d="M0 0 C1.32 0.33 2.64 0.66 4 1 C2.35 2.98 0.7 4.96 -1 7 C-1.33 6.34 -1.66 5.68 -2 5 C-1.0625 2.375 -1.0625 2.375 0 0 Z " fill="#103FCF" transform="translate(541,109)"/>
<path d="M0 0 C1.65 0 3.3 0 5 0 C2.93243723 2.7972908 1.85559629 3.02692273 -1.6875 3.6875 C-2.780625 3.790625 -3.87375 3.89375 -5 4 C-5 3.34 -5 2.68 -5 2 C-3.35 2 -1.7 2 0 2 C0 1.34 0 0.68 0 0 Z " fill="#1346D1" transform="translate(596,197)"/>
<path d="M0 0 C2.31 1.98 4.62 3.96 7 6 C6.67 6.66 6.34 7.32 6 8 C5.34 7.34 4.68 6.68 4 6 C2.68 6 1.36 6 0 6 C0 4.02 0 2.04 0 0 Z " fill="#1542CC" transform="translate(859,146)"/>
<path d="M0 0 C1.98 0 3.96 0 6 0 C6 0.66 6 1.32 6 2 C4.02 2.99 2.04 3.98 0 5 C0 3.35 0 1.7 0 0 Z " fill="#0D3DCF" transform="translate(237,149)"/>
<path d="M0 0 C1.31611677 0.95336021 2.62778961 1.91285774 3.9375 2.875 C4.66839844 3.40867188 5.39929688 3.94234375 6.15234375 4.4921875 C8 6 8 6 9 8 C8.01 8 7.02 8 6 8 C5.34 7.01 4.68 6.02 4 5 C1.94996045 3.80767387 1.94996045 3.80767387 0 3 C0 2.01 0 1.02 0 0 Z " fill="#3163CF" transform="translate(71,133)"/>
<path d="M0 0 C3.63 0 7.26 0 11 0 C11 0.33 11 0.66 11 1 C7.04 1.66 3.08 2.32 -1 3 C-0.67 2.01 -0.34 1.02 0 0 Z " fill="#1347C6" transform="translate(934,101)"/>
<path d="M0 0 C0.66 0.33 1.32 0.66 2 1 C1.25 6.75 1.25 6.75 -1 9 C-1.625 5.625 -1.625 5.625 -2 2 C-1.34 1.34 -0.68 0.68 0 0 Z " fill="#1040CF" transform="translate(427,98)"/>
<path d="M0 0 C1.14926266 0.95421808 2.29430541 1.91352045 3.4375 2.875 C4.07558594 3.40867187 4.71367187 3.94234375 5.37109375 4.4921875 C7 6 7 6 8 8 C3.25 6.125 3.25 6.125 1 5 C0.375 2.4375 0.375 2.4375 0 0 Z " fill="#2F63CC" transform="translate(17,84)"/>
<path d="M0 0 C5.57142857 5.14285714 5.57142857 5.14285714 6 9 C4.125 8.4375 4.125 8.4375 2 7 C0.75 3.375 0.75 3.375 0 0 Z " fill="#143ED2" transform="translate(538,171)"/>
<path d="M0 0 C1.9789756 3.63616656 2.5251065 6.88425629 3 11 C2.01 10.34 1.02 9.68 0 9 C-0.29296875 6.8359375 -0.29296875 6.8359375 -0.1875 4.375 C-0.16042969 3.55773437 -0.13335938 2.74046875 -0.10546875 1.8984375 C-0.05326172 0.95871094 -0.05326172 0.95871094 0 0 Z " fill="#1647C9" transform="translate(531,153)"/>
<path d="M0 0 C2.31 1.65 4.62 3.3 7 5 C5.02 5.99 5.02 5.99 3 7 C3 6.01 3 5.02 3 4 C2.01 4 1.02 4 0 4 C0 2.68 0 1.36 0 0 Z " fill="#3563D4" transform="translate(80,141)"/>
<path d="M0 0 C1.13643966 3.40931897 0.86747764 4.00335456 -0.4375 7.1875 C-0.86869141 8.26064453 -0.86869141 8.26064453 -1.30859375 9.35546875 C-1.53675781 9.89816406 -1.76492188 10.44085938 -2 11 C-3.21563174 7.05347724 -2.53534125 4.83835312 -1 1 C-0.67 0.67 -0.34 0.34 0 0 Z " fill="#1744C3" transform="translate(425,107)"/>
<path d="M0 0 C1.98 0 3.96 0 6 0 C6 1.65 6 3.3 6 5 C3.98079663 3.69593116 1.98075027 2.36176581 0 1 C0 0.67 0 0.34 0 0 Z " fill="#3B67D7" transform="translate(63,108)"/>
<path d="M0 0 C1.70884005 1.62339805 3.37446717 3.29319053 5 5 C5 5.66 5 6.32 5 7 C3.02 7.99 3.02 7.99 1 9 C1.020625 8.071875 1.04125 7.14375 1.0625 6.1875 C1.15769604 2.97713989 1.15769604 2.97713989 0 0 Z " fill="#1240CF" transform="translate(299,99)"/>
<path d="M0 0 C-2.91403262 1.94268841 -5.85808576 3.46395304 -9 5 C-8.625 3.0625 -8.625 3.0625 -8 1 C-5.29120665 -0.35439668 -2.99066732 -0.06501451 0 0 Z " fill="#1443C3" transform="translate(249,103)"/>
<path d="M0 0 C4.455 2.97 4.455 2.97 9 6 C6 7 6 7 3.9375 6.375 C2 5 2 5 0 0 Z " fill="#3660D2" transform="translate(89,78)"/>
<path d="M0 0 C0.66 0 1.32 0 2 0 C1.67 0.99 1.34 1.98 1 3 C0.34 3 -0.32 3 -1 3 C-1 3.66 -1 4.32 -1 5 C-2.65 5 -4.3 5 -6 5 C-6 4.34 -6 3.68 -6 3 C-5.38125 2.87625 -4.7625 2.7525 -4.125 2.625 C-1.80879168 2.12802644 -1.80879168 2.12802644 0 0 Z " fill="#3D66DE" transform="translate(102,153)"/>
<path d="M0 0 C0.66 0.33 1.32 0.66 2 1 C2 2.32 2 3.64 2 5 C0.35 5.33 -1.3 5.66 -3 6 C-2.42655063 3.13275314 -2.1385485 2.1385485 0 0 Z " fill="#3868DF" transform="translate(140,119)"/>
<path d="M0 0 C-1.64169528 2.02054804 -3.30911778 4.02043058 -5 6 C-5.33 6 -5.66 6 -6 6 C-6 4.02 -6 2.04 -6 0 C-2.25 -1.125 -2.25 -1.125 0 0 Z " fill="#1240CB" transform="translate(683,108)"/>
<path d="M0 0 C-2.64 1.98 -5.28 3.96 -8 6 C-7.8125 3.625 -7.8125 3.625 -7 1 C-2.77108434 -1.38554217 -2.77108434 -1.38554217 0 0 Z " fill="#1B42CB" transform="translate(928,107)"/>
<path d="M0 0 C6.875 3.75 6.875 3.75 8 6 C5.69 5.67 3.38 5.34 1 5 C0.67 3.35 0.34 1.7 0 0 Z " fill="#3461DC" transform="translate(80,72)"/>
</svg>
