<?xml version="1.0" encoding="UTF-8"?>
<svg version="1.1" xmlns="http://www.w3.org/2000/svg" width="500" height="500">
<path d="M0 0 C3.1571559 0.70665254 4.8167849 1.43127101 7.1640625 3.6875 C7.72867188 4.22117188 8.29328125 4.75484375 8.875 5.3046875 C9.4525 5.86414063 10.03 6.42359375 10.625 7 C14.48721484 10.94126037 14.48721484 10.94126037 19 14 C19 14.66 19 15.32 19 16 C19.66 16 20.32 16 21 16 C21 16.66 21 17.32 21 18 C21.5775 18.268125 22.155 18.53625 22.75 18.8125 C25.05550043 20.02929189 27.02056192 21.30333879 29 23 C29 23.66 29 24.32 29 25 C29.99 25.33 30.98 25.66 32 26 C32 26.66 32 27.32 32 28 C32.54140625 28.22300781 33.0828125 28.44601563 33.640625 28.67578125 C36.74980911 30.42083657 39.17836485 32.75327424 41.75 35.1875 C42.83144648 36.1946387 43.91347693 37.2011507 44.99609375 38.20703125 C45.51671387 38.69252441 46.03733398 39.17801758 46.57373047 39.67822266 C49.64922195 42.52839569 52.82803781 45.25840454 56 48 C57.20461948 49.0466536 58.40902542 50.09355301 59.61328125 51.140625 C60.95043295 52.30218451 62.28767349 53.46364176 63.625 54.625 C64.25897705 55.17591309 64.8929541 55.72682617 65.54614258 56.29443359 C66.16255615 56.82891113 66.77896973 57.36338867 67.4140625 57.9140625 C68.3117334 58.69378418 68.3117334 58.69378418 69.22753906 59.48925781 C70.94537971 60.95344486 72.69903531 62.36288237 74.4609375 63.7734375 C75.29882812 64.50820312 76.13671875 65.24296875 77 66 C77 66.66 77 67.32 77 68 C77.66 68 78.32 68 79 68 C79 68.66 79 69.32 79 70 C79.556875 70.2475 80.11375 70.495 80.6875 70.75 C83.42410913 72.22924818 85.67650869 73.93467439 88 76 C88 76.66 88 77.32 88 78 C88.57878906 78.26039063 89.15757812 78.52078125 89.75390625 78.7890625 C92.15195442 80.08192325 93.92218697 81.54725075 95.9375 83.375 C98.1529671 85.36071495 100.35227805 87.27854544 102.6875 89.125 C105.31673332 91.2568108 107.60733884 93.60396414 110 96 C112.18914953 98.10405645 114.40357488 100.18009157 116.625 102.25 C117.23311523 102.81775146 117.84123047 103.38550293 118.46777344 103.97045898 C123.10162046 108.25852365 127.88834758 112.24235073 132.890625 116.09765625 C134.99571988 117.99613996 135.85594373 119.45461164 137 122 C138.84971696 123.05021103 138.84971696 123.05021103 141 124 C143.75 126 143.75 126 146 128 C146 128.66 146 129.32 146 130 C146.804375 130.3403125 146.804375 130.3403125 147.625 130.6875 C152.83032704 133.5641281 156.83125012 137.83125012 161 142 C163.3902369 144.09145729 165.79085015 146.16902876 168.20703125 148.23046875 C168.79871094 148.81441406 169.39039063 149.39835938 170 150 C170 150.66 170 151.32 170 152 C170.5465625 152.22816406 171.093125 152.45632813 171.65625 152.69140625 C174.69505068 154.38806996 176.96006164 156.56154118 179.5 158.9375 C183.28256641 162.48345739 183.28256641 162.48345739 187.34375 165.69140625 C187.8903125 166.12324219 188.436875 166.55507813 189 167 C189 167.66 189 168.32 189 169 C189.556875 169.226875 190.11375 169.45375 190.6875 169.6875 C193.63246684 171.35896766 195.68156544 173.55276352 198 176 C205.34095603 172.69402673 211.43916863 166.69985216 217 161 C218.7177511 159.38361539 220.44806897 157.78053099 222.1875 156.1875 C223.04730469 155.39730469 223.90710938 154.60710937 224.79296875 153.79296875 C227 152 227 152 229 152 C229 151.34 229 150.68 229 150 C230.6796875 148.2734375 230.6796875 148.2734375 232.875 146.375 C233.59429687 145.74335938 234.31359375 145.11171875 235.0546875 144.4609375 C237 143 237 143 239 143 C239 142.34 239 141.68 239 141 C240.57421875 139.4140625 240.57421875 139.4140625 242.6875 137.625 C243.41582031 137.00753906 244.14414062 136.39007813 244.89453125 135.75390625 C245.58933594 135.17511719 246.28414062 134.59632813 247 134 C247.94875 133.195625 248.8975 132.39125 249.875 131.5625 C252 130 252 130 254 130 C254.2475 129.38125 254.495 128.7625 254.75 128.125 C256.20628639 125.64931313 257.37812506 125.04874998 260 124 C260 123.34 260 122.68 260 122 C261.6376272 120.54597658 263.33734196 119.16151322 265.0625 117.8125 C269.13095179 114.56400576 272.88380228 111.24077342 276.50390625 107.5078125 C278.53119768 105.4646415 280.65892985 103.67219296 283 102 C283.66 102 284.32 102 285 102 C285 101.34 285 100.68 285 100 C285.66 100 286.32 100 287 100 C287 99.34 287 98.68 287 98 C288.36328125 96.625 288.36328125 96.625 290.3125 95 C293.77017549 92.06250578 297.15244741 89.06275384 300.5 86 C304.25476804 82.57532146 308.03967171 79.19596867 311.8828125 75.87109375 C313.56400507 74.38531655 315.22018498 72.87124577 316.8671875 71.34765625 C317.36476563 70.88746094 317.86234375 70.42726563 318.375 69.953125 C319.81337654 68.61963008 321.24665028 67.28063741 322.6796875 65.94140625 C325 64 325 64 327 64 C327.33 63.01 327.66 62.02 328 61 C329.77734375 59.17578125 329.77734375 59.17578125 331.9375 57.3125 C332.64777344 56.68988281 333.35804688 56.06726563 334.08984375 55.42578125 C336 54 336 54 338 54 C338.33 53.01 338.66 52.02 339 51 C344.46511628 46 344.46511628 46 347 46 C347 45.34 347 44.68 347 44 C347.66 44 348.32 44 349 44 C349 43.34 349 42.68 349 42 C350.328125 40.66015625 350.328125 40.66015625 352.25 39.0625 C355.81771541 36.02868566 359.30602611 32.92299281 362.75 29.75 C363.25950195 29.28150635 363.76900391 28.8130127 364.29394531 28.33032227 C365.34141081 27.36698726 366.38860947 26.40336203 367.43554688 25.43945312 C368.96074359 24.03611982 370.48773487 22.63477495 372.015625 21.234375 C372.50901367 20.7820752 373.00240234 20.32977539 373.51074219 19.86376953 C374.50021909 18.95766823 375.490449 18.0523885 376.48144531 17.14794922 C379.10261732 14.7530964 381.70378307 12.34032845 384.28125 9.8984375 C385.08949219 9.13950195 385.08949219 9.13950195 385.9140625 8.36523438 C386.94567788 7.39587165 387.97204021 6.42087755 388.9921875 5.43945312 C391.6247563 2.97778313 393.48724656 1.70273734 397 1 C397.06839402 32.79744537 397.12150638 64.59486988 397.15319599 96.39237158 C397.15694824 100.14382402 397.1608312 103.8952763 397.16479492 107.64672852 C397.16558185 108.39359528 397.16636878 109.14046204 397.16717956 109.90996113 C397.18024406 122.0132946 397.20390363 134.11658545 397.23145839 146.21989361 C397.25948358 158.63309166 397.27617013 171.04626734 397.28226548 183.45949572 C397.28638794 191.12308659 397.29942212 198.78655701 397.3237494 206.45011082 C397.3414376 212.32019084 397.34337294 218.19020858 397.33932304 224.06031609 C397.34015142 226.47306181 397.3461589 228.88581191 397.35761642 231.29853058 C397.37244974 234.58194779 397.36898703 237.86484139 397.36076355 241.14826965 C397.36950207 242.1122682 397.3782406 243.07626675 397.38724393 244.06947738 C397.38127078 244.94629942 397.37529764 245.82312146 397.36914349 246.72651386 C397.37085223 247.86396611 397.37085223 247.86396611 397.37259549 249.02439719 C396.5010267 253.64569241 391.15578562 256.27603155 387.625 259 C382.82541672 262.73300922 378.11686377 266.54340123 373.5 270.5 C368.838369 274.48260573 364.11479399 278.37536972 359.3125 282.1875 C358.41144531 282.91066406 358.41144531 282.91066406 357.4921875 283.6484375 C353.23639113 287 353.23639113 287 351 287 C351 287.66 351 288.32 351 289 C349.1015625 290.7265625 349.1015625 290.7265625 346.625 292.625 C345.81289063 293.25664062 345.00078125 293.88828125 344.1640625 294.5390625 C342 296 342 296 340 296 C340 296.66 340 297.32 340 298 C338.55859375 299.3046875 338.55859375 299.3046875 336.4375 300.875 C333.29123526 303.24223753 330.18642907 305.64383762 327.1328125 308.12890625 C326.46193604 308.67369629 325.79105957 309.21848633 325.09985352 309.77978516 C323.74876457 310.87911337 322.40025893 311.98162464 321.05444336 313.08740234 C316.22193059 317 316.22193059 317 314 317 C314 317.66 314 318.32 314 319 C312.1015625 320.7265625 312.1015625 320.7265625 309.625 322.625 C308.81289063 323.25664062 308.00078125 323.88828125 307.1640625 324.5390625 C305 326 305 326 303 326 C303 326.66 303 327.32 303 328 C301.68 328 300.36 328 299 328 C298.99365209 326.62671885 298.99365209 326.62671885 298.98717594 325.22569466 C298.88399203 302.97665691 298.77537286 280.72765153 298.66066074 258.47867012 C298.60531933 247.71935245 298.55183584 236.96003147 298.50268555 226.20068359 C298.45985495 216.82578262 298.41357982 207.45090615 298.36312145 198.07604301 C298.33651144 193.10948127 298.31165815 188.14292442 298.29092598 183.17633438 C298.2713765 178.50608425 298.24723782 173.83588081 298.21950912 169.1656723 C298.21012973 167.4475349 298.20245766 165.72938724 298.19658089 164.01123428 C298.18833477 161.67346373 298.1740624 159.33580694 298.15821838 156.99807739 C298.15176583 155.68728777 298.14531328 154.37649815 298.1386652 153.02598763 C298.20872051 150.07927366 298.20872051 150.07927366 297 148 C293.90963625 148.64254319 293.90963625 148.64254319 293.03515625 150.8671875 C292.69355469 151.57101562 292.35195313 152.27484375 292 153 C290.30859375 154.6328125 290.30859375 154.6328125 288.4375 156.125 C285.78974334 158.20903634 285.78974334 158.20903634 284 161 C283.34 161 282.68 161 282 161 C281.731875 161.639375 281.46375 162.27875 281.1875 162.9375 C280 165 280 165 277 166 C276.566875 166.86625 276.566875 166.86625 276.125 167.75 C274.28043039 171.43913922 271.5302022 174.25675893 267.8125 176.0625 C265.42469435 177.29757189 265.16389103 178.60375377 264 181 C261.5 183.75 261.5 183.75 259 186 C258.34 186 257.68 186 257 186 C256.76738464 186.55760513 256.53476929 187.11521027 256.29510498 187.68971252 C254.66300092 190.60115958 252.64172272 192.60508754 250.27832031 194.96459961 C249.79998749 195.44483078 249.32165466 195.92506195 248.8288269 196.41984558 C247.25010001 198.00226928 245.6642992 199.57738785 244.078125 201.15234375 C242.9739799 202.25529575 241.8702053 203.35861876 240.76678467 204.46229553 C238.45307233 206.77444461 236.13604311 209.08319925 233.81640625 211.3894043 C230.85471127 214.33415966 227.89959091 217.28540409 224.94673538 220.23902035 C222.66667876 222.51880385 220.3840156 224.79596241 218.10048676 227.07226753 C217.01073997 228.15884863 215.92158328 229.24602189 214.83304596 230.33381462 C213.3042706 231.86040113 211.7722334 233.3836386 210.23925781 234.90600586 C208.93592499 236.20362099 208.93592499 236.20362099 207.60626221 237.52745056 C204.7985068 240.19115571 202.11199081 242.6941987 199 245 C198.01 244.67 197.02 244.34 196 244 C196 243.34 196 242.68 196 242 C195.45859375 241.7834375 194.9171875 241.566875 194.359375 241.34375 C191.18354656 239.53500003 188.79271919 237.08276201 186.25 234.5 C185.74339844 234.00113281 185.23679688 233.50226563 184.71484375 232.98828125 C181 229.25341139 181 229.25341139 181 227 C180.44781799 226.77248047 179.89563599 226.54496094 179.32672119 226.31054688 C176.31508539 224.61421561 174.21989585 222.47442831 171.77246094 220.03125 C171.26469116 219.52698486 170.75692139 219.02271973 170.23376465 218.50317383 C168.56224561 216.84043464 166.8981215 215.17051377 165.234375 213.5 C164.07453163 212.34150393 162.9143915 211.18330488 161.75396729 210.02539062 C159.32652647 207.60089564 156.90273366 205.17282638 154.48144531 202.7421875 C151.37204303 199.62136558 148.25371488 196.50964136 145.13262558 193.4005127 C142.73733217 191.01243075 140.34680356 188.61962507 137.95771027 186.2253418 C136.80927748 185.07557186 135.65934895 183.92729398 134.50792694 182.78051758 C132.90372591 181.18137281 131.30603808 179.5759975 129.70996094 177.96875 C128.79825134 177.05544922 127.88654175 176.14214844 126.94720459 175.20117188 C125 173 125 173 125 171 C124.41734375 170.7421875 123.8346875 170.484375 123.234375 170.21875 C120.8197097 168.90165983 119.18259823 167.44911616 117.25 165.5 C116.63640625 164.8915625 116.0228125 164.283125 115.390625 163.65625 C114 162 114 162 114 160 C113.44828125 159.77570313 112.8965625 159.55140625 112.328125 159.3203125 C107.47587182 156.56853133 103.86664 151.96839368 100 148 C99.15028221 158.63889564 98.8600634 169.18115979 98.88647461 179.84936523 C98.88675751 181.47717283 98.88659674 183.10498056 98.8860321 184.73278809 C98.88574815 189.10160669 98.89157929 193.47039718 98.89860606 197.83920932 C98.90490709 202.42357152 98.90544869 207.00793455 98.90663147 211.59230042 C98.90972505 220.25101101 98.91791154 228.90970881 98.92798096 237.56841379 C98.93920376 247.43556127 98.94466801 257.30270939 98.94967639 267.16986167 C98.96009605 287.44658156 98.97765683 307.72328997 99 328 C97.68 328 96.36 328 95 328 C95 327.34 95 326.68 95 326 C94.2265625 325.6596875 94.2265625 325.6596875 93.4375 325.3125 C90.10452995 323.51782382 86.85296329 321.50034985 84 319 C84 318.34 84 317.68 84 317 C82.948125 316.6596875 82.948125 316.6596875 81.875 316.3125 C78.25871465 314.66158712 75.91230024 312.7091165 73 310 C73 309.34 73 308.68 73 308 C72.2678125 307.7525 71.535625 307.505 70.78125 307.25 C67.72015394 305.87422649 65.91611139 304.31681914 63.5 302 C59.72369701 298.50300936 55.84777751 295.23532395 51.75 292.125 C51.21479736 291.71765625 50.67959473 291.3103125 50.12817383 290.890625 C49.01195446 290.04255507 47.89516092 289.19524041 46.77783203 288.34863281 C43.56901475 285.91447919 40.37311947 283.46442384 37.1875 281 C36.57036133 280.53094238 35.95322266 280.06188477 35.31738281 279.57861328 C33.84069889 278.43256167 32.41472577 277.22171221 31 276 C31 275.34 31 274.68 31 274 C29.948125 273.6596875 29.948125 273.6596875 28.875 273.3125 C25.40470352 271.72823422 22.81923831 269.51143066 20 267 C18.9823788 266.10051952 17.96134569 265.20488896 16.9375 264.3125 C16.39241885 263.81372786 15.8473377 263.31495571 15.28573895 262.80106926 C12.96054727 260.85500695 12.96054727 260.85500695 9.82361317 259.33896065 C5.14458141 256.74833338 0.95445531 253.96715363 -0.74658799 248.67905188 C-1.96201095 241.45467961 -1.62704454 234.12014256 -1.47583008 226.82373047 C-1.47216054 224.34938247 -1.47422649 221.87502033 -1.48158264 219.40068054 C-1.48453655 214.08554716 -1.44784433 208.77298523 -1.37449074 203.4585228 C-1.26851179 195.7753247 -1.23495017 188.09312778 -1.21864685 180.40927805 C-1.19024444 167.94122654 -1.10386972 155.47428519 -0.98071289 143.00683594 C-0.86125403 130.90109789 -0.76930041 118.79566214 -0.71411133 106.68945312 C-0.71069592 105.94234447 -0.70728052 105.19523581 -0.70376161 104.4254875 C-0.68679525 100.67719386 -0.67036725 96.92889808 -0.65420687 93.18060088 C-0.51959499 62.11959349 -0.28979304 31.05996586 0 0 Z " fill="#2761F8" transform="translate(52,148)"/>
<path d="M0 0 C4.43226316 1.10806579 7.13826439 3.10621946 10.6875 5.8125 C12.02631839 6.81387235 13.36620444 7.8138185 14.70703125 8.8125 C15.75624756 9.59560547 15.75624756 9.59560547 16.82666016 10.39453125 C20.47172746 13.08718039 24.17076894 15.70212204 27.875 18.3125 C28.94935303 19.0717981 28.94935303 19.0717981 30.04541016 19.84643555 C34.50204412 22.98391 39.00350986 26.02865454 43.62890625 28.9140625 C44.08136719 29.27242187 44.53382812 29.63078125 45 30 C45 30.66 45 31.32 45 32 C46.02867188 32.34417969 46.02867188 32.34417969 47.078125 32.6953125 C50.673979 34.30094784 53.63318215 36.50853485 56.75 38.875 C58.07579976 39.86465341 59.40266602 40.85287932 60.73046875 41.83984375 C61.42317871 42.35530762 62.11588867 42.87077148 62.82958984 43.40185547 C66.53735815 46.13200748 70.29823868 48.78604329 74.0625 51.4375 C74.76407227 51.9329834 75.46564453 52.4284668 76.18847656 52.93896484 C79.25589751 55.09852933 82.32795014 57.2134765 85.49609375 59.22265625 C86.32238281 59.80917969 87.14867187 60.39570312 88 61 C88 61.66 88 62.32 88 63 C88.70125 63.2475 89.4025 63.495 90.125 63.75 C93.39514548 65.17180238 96.141122 66.87246288 99 69 C99 69.66 99 70.32 99 71 C99.73718262 71.2686084 100.47436523 71.5372168 101.23388672 71.81396484 C103.91670934 72.9642872 105.93114163 74.23062182 108.2578125 75.9765625 C109.04325439 76.56131348 109.82869629 77.14606445 110.63793945 77.74853516 C111.45866943 78.36776855 112.27939941 78.98700195 113.125 79.625 C114.82928172 80.89602827 116.53370805 82.16686267 118.23828125 83.4375 C119.0576416 84.05109375 119.87700195 84.6646875 120.72119141 85.296875 C123.57065022 87.42648981 126.4369235 89.53078704 129.3125 91.625 C130.14007813 92.22828125 130.96765625 92.8315625 131.8203125 93.453125 C133.74517913 94.81915938 135.69636129 96.10874589 137.6875 97.375 C138.450625 97.91125 139.21375 98.4475 140 99 C140 99.66 140 100.32 140 101 C140.73790771 101.2686084 141.47581543 101.5372168 142.23608398 101.81396484 C144.91476896 102.96342616 146.90747774 104.22329963 149.22265625 105.9765625 C150.00342529 106.56147461 150.78419434 107.14638672 151.58862305 107.74902344 C152.40500244 108.3680957 153.22138184 108.98716797 154.0625 109.625 C160.58680456 114.51963816 167.1374361 119.20139618 174.04296875 123.546875 C174.68878906 124.02640625 175.33460938 124.5059375 176 125 C176 125.66 176 126.32 176 127 C176.74040527 127.26731934 177.48081055 127.53463867 178.24365234 127.81005859 C180.93028661 128.96990407 182.82819248 130.21827931 185.1015625 132.0390625 C185.83890625 132.61914062 186.57625 133.19921875 187.3359375 133.796875 C188.87055908 135.02247721 190.4044053 136.24905087 191.9375 137.4765625 C192.67226562 138.0540625 193.40703125 138.6315625 194.1640625 139.2265625 C194.82873535 139.75846191 195.4934082 140.29036133 196.17822266 140.83837891 C198.06148693 142.26881784 198.06148693 142.26881784 201 142 C202.75383936 140.99339799 202.75383936 140.99339799 204.50390625 139.59375 C205.16197266 139.09746094 205.82003906 138.60117188 206.49804688 138.08984375 C207.17931641 137.56519531 207.86058594 137.04054687 208.5625 136.5 C209.91473637 135.46451514 211.27006331 134.43304987 212.62890625 133.40625 C213.5271814 132.71499023 213.5271814 132.71499023 214.44360352 132.00976562 C216 131 216 131 218 131 C218 130.34 218 129.68 218 129 C223.41176471 125 223.41176471 125 226 125 C226 124.34 226 123.68 226 123 C227.68066386 121.76448494 229.42364751 120.61353171 231.1875 119.5 C236.54294107 116.03546111 241.58423316 112.33327077 246.5456543 108.32617188 C249.56675583 105.930307 252.33845369 104.22725861 256 103 C256 102.34 256 101.68 256 101 C256.99 101 257.98 101 259 101 C259 100.34 259 99.68 259 99 C260.92984733 97.54202756 262.85609442 96.19936396 264.875 94.875 C270.16519305 91.33247297 275.12470338 87.56815144 279.9765625 83.43359375 C282 82 282 82 285 82 C285 81.34 285 80.68 285 80 C287.1171875 78.2734375 287.1171875 78.2734375 289.875 76.375 C291.23238281 75.42753906 291.23238281 75.42753906 292.6171875 74.4609375 C295 73 295 73 297 73 C297 72.34 297 71.68 297 71 C297.99 71 298.98 71 300 71 C300 70.34 300 69.68 300 69 C305.41176471 65 305.41176471 65 308 65 C308 64.34 308 63.68 308 63 C310.0944968 61.36570249 312.17782091 59.85832766 314.375 58.375 C315.27992188 57.74464844 315.27992188 57.74464844 316.203125 57.1015625 C320.73462865 54 320.73462865 54 323 54 C323 53.34 323 52.68 323 52 C325.0944968 50.36570249 327.17782091 48.85832766 329.375 47.375 C330.27992188 46.74464844 330.27992188 46.74464844 331.203125 46.1015625 C335.73462865 43 335.73462865 43 338 43 C338 42.34 338 41.68 338 41 C339.96498322 39.61558 341.97048465 38.28796166 344 37 C345.0828125 36.13375 345.0828125 36.13375 346.1875 35.25 C348 34 348 34 351 34 C351 33.34 351 32.68 351 32 C353.40228135 30.16676097 355.81623858 28.44757791 358.3125 26.75 C359.86976692 25.67241652 361.42570577 24.59291183 362.98046875 23.51171875 C364.20902588 22.65779541 364.20902588 22.65779541 365.46240234 21.78662109 C370.53525137 18.21503083 375.50596078 14.50413156 380.48950195 10.80957031 C381.96701453 9.71483384 383.44602747 8.6221185 384.92675781 7.53173828 C386.29191828 6.52313998 387.65086125 5.50606263 389.00292969 4.47998047 C393.66979496 1 393.66979496 1 397 1 C397.11583931 12.778467 397.20468797 24.55679853 397.25906086 36.33571911 C397.28515697 41.80515345 397.32055588 47.27419813 397.37719727 52.7434082 C397.43151563 58.02132816 397.46142043 63.29887327 397.47438622 68.57705116 C397.48362635 70.59093439 397.5016703 72.60479705 397.52865028 74.61852074 C397.56493813 77.43908424 397.56994545 80.25809813 397.56762695 83.07885742 C397.58560333 83.91179825 397.60357971 84.74473907 397.62210083 85.60292053 C397.58372219 89.91668014 397.41990934 91.48764642 394.58634949 94.94502258 C393.73285416 95.62316513 392.87935883 96.30130768 392 97 C391.35675781 97.59425781 390.71351563 98.18851562 390.05078125 98.80078125 C389.47714844 99.29964844 388.90351563 99.79851562 388.3125 100.3125 C387.73113281 100.82425781 387.14976562 101.33601563 386.55078125 101.86328125 C385 103 385 103 383 103 C383 103.66 383 104.32 383 105 C381.5234375 106.3046875 381.5234375 106.3046875 379.375 107.875 C375.15155006 111.06250939 371.12388674 114.41467652 367.125 117.875 C362.73589352 121.65912153 358.33683434 125.42668812 353.875 129.125 C353.02679688 129.82882813 352.17859375 130.53265625 351.3046875 131.2578125 C349 133 349 133 346.7578125 134.0546875 C344.64101046 134.93405078 344.64101046 134.93405078 344 138 C340.55555556 141 340.55555556 141 338 141 C338 141.66 338 142.32 338 143 C336.51261765 144.35382149 334.95569449 145.63139886 333.375 146.875 C328.91058521 150.44767509 324.51928877 154.08018901 320.1875 157.8125 C319.31206543 158.56575562 319.31206543 158.56575562 318.41894531 159.33422852 C317.2205811 160.36571741 316.02250395 161.3975399 314.82470703 162.4296875 C312.9782292 164.01873558 311.12840155 165.60379026 309.27734375 167.1875 C301.82771973 173.55941098 301.82771973 173.55941098 294.4375 180 C286.44483496 187 286.44483496 187 284 187 C284 187.66 284 188.32 284 189 C279.52941176 193 279.52941176 193 277 193 C277 193.66 277 194.32 277 195 C271.52380952 200 271.52380952 200 269 200 C269 200.66 269 201.32 269 202 C264.52941176 206 264.52941176 206 262 206 C262 206.66 262 207.32 262 208 C260.49212839 209.37491299 258.91460239 210.67364462 257.3125 211.9375 C256.30832031 212.74058594 255.30414063 213.54367188 254.26953125 214.37109375 C253.73408691 214.79890137 253.19864258 215.22670898 252.64697266 215.66748047 C249.8909197 217.89732586 247.19757296 220.20005316 244.5 222.5 C240.47545081 225.92407409 236.41971148 229.29983866 232.3125 232.625 C228.76103154 235.51249827 225.3206971 238.47968021 221.9375 241.5625 C214.66288321 248.17998025 206.91064496 254.16645176 199 260 C193.11602282 255.22442734 187.27449084 250.40702249 181.5 245.5 C171.8320122 237.13343151 171.8320122 237.13343151 161.69140625 229.375 C161.13324219 228.92125 160.57507813 228.4675 160 228 C160 227.34 160 226.68 160 226 C159.44441406 225.76410156 158.88882813 225.52820313 158.31640625 225.28515625 C155.43624409 223.6872248 153.33630924 221.694995 150.9375 219.4375 C146.40550348 215.22900004 141.73350262 211.26329793 136.91796875 207.37890625 C132.97180926 204.16175614 129.10131104 200.85811598 125.23876953 197.54125977 C122.3020798 195.00556186 122.3020798 195.00556186 119 193 C119 192.34 119 191.68 119 191 C118.1028125 190.566875 118.1028125 190.566875 117.1875 190.125 C115 189 115 189 112 187 C112 186.34 112 185.68 112 185 C111.46761719 184.77699219 110.93523437 184.55398437 110.38671875 184.32421875 C107.18623687 182.54850131 104.55761801 180.20579308 101.8125 177.8125 C97.16780149 173.80663649 92.45880229 169.97244189 87.51171875 166.33984375 C87.01285156 165.89769531 86.51398438 165.45554688 86 165 C86 164.34 86 163.68 86 163 C85.43796875 162.7421875 84.8759375 162.484375 84.296875 162.21875 C81.73295421 160.85830223 79.54773635 159.27211038 77.25 157.5 C76.45078125 156.8915625 75.6515625 156.283125 74.828125 155.65625 C73.92320313 154.83640625 73.92320313 154.83640625 73 154 C73 153.34 73 152.68 73 152 C72.47921875 151.78730469 71.9584375 151.57460937 71.421875 151.35546875 C67.98642347 149.4327241 65.20337464 146.89936582 62.25 144.3125 C61.30858154 143.49785278 61.30858154 143.49785278 60.34814453 142.66674805 C57.16582692 139.90887668 54.01359001 137.12001512 50.875 134.3125 C46.60763462 130.52963899 41.96892673 127.24374558 37.34375 123.91796875 C36.5703125 123.28503906 35.796875 122.65210938 35 122 C35 121.34 35 120.68 35 120 C34.4112207 119.72220703 33.82244141 119.44441406 33.21582031 119.15820312 C29.74844629 117.34581635 26.81701451 114.91246873 23.75 112.5 C22.77546875 111.75169922 22.77546875 111.75169922 21.78125 110.98828125 C20.14763436 109.70815807 18.56865759 108.35894401 17 107 C17 106.34 17 105.68 17 105 C16.34 105 15.68 105 15 105 C15 104.34 15 103.68 15 103 C14.195625 102.731875 13.39125 102.46375 12.5625 102.1875 C11.716875 101.795625 10.87125 101.40375 10 101 C9.67 100.01 9.34 99.02 9 98 C6.49552484 96.78130071 6.49552484 96.78130071 4 96 C4 95.34 4 94.68 4 94 C2.68 93.34 1.36 92.68 0 92 C0 61.64 0 31.28 0 0 Z " fill="#2763F9" transform="translate(52,22)"/>
<path d="M0 0 C3.76863353 0.94215838 4.58123124 1.20485425 7.1640625 3.6875 C7.72867188 4.22117188 8.29328125 4.75484375 8.875 5.3046875 C9.4525 5.86414063 10.03 6.42359375 10.625 7 C14.48721484 10.94126037 14.48721484 10.94126037 19 14 C18.67 14.66 18.34 15.32 18 16 C15.6875 15.8125 15.6875 15.8125 13 15 C11.3125 12.5 11.3125 12.5 10 10 C9.34 9.67 8.68 9.34 8 9 C8 8.34 8 7.68 8 7 C6.68 7.33 5.36 7.66 4 8 C2.67727051 32.13908678 2.86882263 56.2883577 2.89860606 80.45485544 C2.90493102 86.46720674 2.90545053 92.47955873 2.90663147 98.49191284 C2.90971818 109.834786 2.91789507 121.17764932 2.92798096 132.52051818 C2.93922553 145.45194995 2.94467341 158.38338222 2.94967639 171.31481767 C2.96008043 197.87655053 2.97762741 224.43827471 3 251 C3.66 251.33 4.32 251.66 5 252 C2 252 2 252 0 251 C0 168.17 0 85.34 0 0 Z " fill="#86A4E8" transform="translate(52,148)"/>
<path d="M0 0 C0.99 0 1.98 0 3 0 C3.06839402 31.79744537 3.12150638 63.59486988 3.15319599 95.39237158 C3.15694824 99.14382402 3.1608312 102.8952763 3.16479492 106.64672852 C3.16558185 107.39359528 3.16636878 108.14046204 3.16717956 108.90996113 C3.18024406 121.0132946 3.20390363 133.11658545 3.23145839 145.21989361 C3.25948358 157.63309166 3.27617013 170.04626734 3.28226548 182.45949572 C3.28638794 190.12308659 3.29942212 197.78655701 3.3237494 205.45011082 C3.3414376 211.32019084 3.34337294 217.19020858 3.33932304 223.06031609 C3.34015142 225.47306181 3.3461589 227.88581191 3.35761642 230.29853058 C3.37244974 233.58194779 3.36898703 236.86484139 3.36076355 240.14826965 C3.36950207 241.1122682 3.3782406 242.07626675 3.38724393 243.06947738 C3.38127078 243.94629942 3.37529764 244.82312146 3.36914349 245.72651386 C3.37085223 246.86396611 3.37085223 246.86396611 3.37259549 248.02439719 C2.48192899 252.74695363 -3.08293134 255.46594875 -6.6875 258.25 C-11.9427501 262.33915235 -17.07248672 266.51626898 -22 271 C-22.33 269.68 -22.66 268.36 -23 267 C-21.68 266.67 -20.36 266.34 -19 266 C-19 265.34 -19 264.68 -19 264 C-17.25 261.875 -17.25 261.875 -15 260 C-13.68 260 -12.36 260 -11 260 C-10.505 258.02 -10.505 258.02 -10 256 C-9.34 256 -8.68 256 -8 256 C-7.505 255.01 -7.505 255.01 -7 254 C-6.01 254 -5.02 254 -4 254 C-4 253.34 -4 252.68 -4 252 C-2.35 251.67 -0.7 251.34 1 251 C1 169.49 1 87.98 1 4 C-0.65 4.33 -2.3 4.66 -4 5 C-2.1875 2.5 -2.1875 2.5 0 0 Z " fill="#6388E0" transform="translate(446,149)"/>
<path d="M0 0 C0.61359375 0.15339844 1.2271875 0.30679687 1.859375 0.46484375 C2.56578125 0.64144531 3.2721875 0.81804687 4 1 C5.33333333 1.33333333 6.66666667 1.66666667 8 2 C8.33 3.65 8.66 5.3 9 7 C6 7 6 7 4.3125 5.5 C3.879375 5.005 3.44625 4.51 3 4 C2.15028221 14.63889564 1.8600634 25.18115979 1.88647461 35.84936523 C1.88675751 37.47717283 1.88659674 39.10498056 1.8860321 40.73278809 C1.88574815 45.10160669 1.89157929 49.47039718 1.89860606 53.83920932 C1.90490709 58.42357152 1.90544869 63.00793455 1.90663147 67.59230042 C1.90972505 76.25101101 1.91791154 84.90970881 1.92798096 93.56841379 C1.93920376 103.43556127 1.94466801 113.30270939 1.94967639 123.16986167 C1.96009605 143.44658156 1.97765683 163.72328997 2 184 C0.68 184 -0.64 184 -2 184 C-2 183.34 -2 182.68 -2 182 C-2.7734375 181.6596875 -2.7734375 181.6596875 -3.5625 181.3125 C-6.89547005 179.51782382 -10.14703671 177.50034985 -13 175 C-13 174.34 -13 173.68 -13 173 C-13.66 172.67 -14.32 172.34 -15 172 C-7.65882353 172.48941176 -7.65882353 172.48941176 -4.5 174.9375 C-3 177 -3 177 -3 179 C-2.34 179 -1.68 179 -1 179 C-1.00699732 178.18684137 -1.01399464 177.37368275 -1.02120399 176.53588295 C-1.19135586 156.67642274 -1.34956893 136.81689799 -1.49477577 116.95723915 C-1.56528172 107.35294704 -1.63970961 97.74871627 -1.72363281 88.14453125 C-1.79683837 79.76570336 -1.86241797 71.38685492 -1.91914403 63.00789869 C-1.94939012 58.57842627 -1.98324801 54.14905294 -2.02626419 49.7196846 C-2.06677961 45.53534322 -2.09696101 41.35104457 -2.11981392 37.16657066 C-2.12983471 35.64539802 -2.14336737 34.12424292 -2.16103554 32.60313988 C-2.28583212 21.60012507 -1.41117071 10.9114683 0 0 Z " fill="#3D74E4" transform="translate(149,292)"/>
<path d="M0 0 C1.65 0.33 3.3 0.66 5 1 C5.33 61.06 5.66 121.12 6 183 C6.66 183 7.32 183 8 183 C8 182.34 8 181.68 8 181 C8.99 181.33 9.98 181.66 11 182 C9.02 182.99 9.02 182.99 7 184 C7 184.66 7 185.32 7 186 C5.68 186 4.36 186 3 186 C2.99576806 185.08447924 2.99153612 184.16895847 2.98717594 183.22569466 C2.88399203 160.97665691 2.77537286 138.72765153 2.66066074 116.47867012 C2.60531933 105.71935245 2.55183584 94.96003147 2.50268555 84.20068359 C2.45985495 74.82578262 2.41357982 65.45090615 2.36312145 56.07604301 C2.33651144 51.10948127 2.31165815 46.14292442 2.29092598 41.17633438 C2.2713765 36.50608425 2.24723782 31.83588081 2.21950912 27.1656723 C2.21012973 25.4475349 2.20245766 23.72938724 2.19658089 22.01123428 C2.18833477 19.67346373 2.1740624 17.33580694 2.15821838 14.99807739 C2.15176583 13.68728777 2.14531328 12.37649815 2.1386652 11.02598763 C2.20872051 8.07927366 2.20872051 8.07927366 1 6 C-2.11332248 6.66868314 -2.11332248 6.66868314 -3.1875 9.0625 C-3.455625 9.701875 -3.72375 10.34125 -4 11 C-5.10844919 7.67465243 -4.84454356 5.37817425 -4 2 C-2.02 2.495 -2.02 2.495 0 3 C0 2.01 0 1.02 0 0 Z " fill="#6C8EE7" transform="translate(348,290)"/>
<path d="M0 0 C1.32 0.33 2.64 0.66 4 1 C4.33 1.66 4.66 2.32 5 3 C4.01 3 3.02 3 2 3 C2 32.04 2 61.08 2 91 C4.31 91 6.62 91 9 91 C9 92.98 9 94.96 9 97 C9.66 97 10.32 97 11 97 C11 97.99 11 98.98 11 100 C11.61488281 100.18175781 12.22976562 100.36351563 12.86328125 100.55078125 C13.67152344 100.80214844 14.47976562 101.05351563 15.3125 101.3125 C16.11300781 101.55613281 16.91351563 101.79976563 17.73828125 102.05078125 C20.12757893 103.05354349 21.39589507 103.98059282 23 106 C23 106.66 23 107.32 23 108 C23.66 108 24.32 108 25 108 C25.45375 108.804375 25.9075 109.60875 26.375 110.4375 C27.73420995 113.15236193 27.73420995 113.15236193 30.1875 113.8125 C31.0846875 113.9053125 31.0846875 113.9053125 32 114 C32.33 115.32 32.66 116.64 33 118 C35.31 118.33 37.62 118.66 40 119 C40.33 120.65 40.66 122.3 41 124 C41.66 124 42.32 124 43 124 C43 124.66 43 125.32 43 126 C44.65 126 46.3 126 48 126 C48 127.32 48 128.64 48 130 C49.32 130.66 50.64 131.32 52 132 C52 132.66 52 133.32 52 134 C53.65 134 55.3 134 57 134 C56.34 135.32 55.68 136.64 55 138 C54.56171875 137.59910156 54.1234375 137.19820312 53.671875 136.78515625 C48.4683771 132.12104533 43.01057433 127.99275208 37.34375 123.91796875 C36.5703125 123.28503906 35.796875 122.65210938 35 122 C35 121.34 35 120.68 35 120 C34.4112207 119.72220703 33.82244141 119.44441406 33.21582031 119.15820312 C29.74844629 117.34581635 26.81701451 114.91246873 23.75 112.5 C22.77546875 111.75169922 22.77546875 111.75169922 21.78125 110.98828125 C20.14763436 109.70815807 18.56865759 108.35894401 17 107 C17 106.34 17 105.68 17 105 C16.34 105 15.68 105 15 105 C15 104.34 15 103.68 15 103 C14.195625 102.731875 13.39125 102.46375 12.5625 102.1875 C11.716875 101.795625 10.87125 101.40375 10 101 C9.67 100.01 9.34 99.02 9 98 C6.49552484 96.78130071 6.49552484 96.78130071 4 96 C4 95.34 4 94.68 4 94 C2.68 93.34 1.36 92.68 0 92 C0 61.64 0 31.28 0 0 Z " fill="#94B6EE" transform="translate(52,22)"/>
<path d="M0 0 C0.11583931 11.778467 0.20468797 23.55679853 0.25906086 35.33571911 C0.28515697 40.80515345 0.32055588 46.27419813 0.37719727 51.7434082 C0.43151563 57.02132816 0.46142043 62.29887327 0.47438622 67.57705116 C0.48362635 69.59093439 0.5016703 71.60479705 0.52865028 73.61852074 C0.56493813 76.43908424 0.56994545 79.25809813 0.56762695 82.07885742 C0.58560333 82.91179825 0.60357971 83.74473907 0.62210083 84.60292053 C0.58372219 88.91668014 0.41990934 90.48764642 -2.41365051 93.94502258 C-3.26714584 94.62316513 -4.12064117 95.30130768 -5 96 C-5.64324219 96.59425781 -6.28648437 97.18851562 -6.94921875 97.80078125 C-7.52285156 98.29964844 -8.09648437 98.79851562 -8.6875 99.3125 C-9.26886719 99.82425781 -9.85023438 100.33601563 -10.44921875 100.86328125 C-12 102 -12 102 -14 102 C-14 102.66 -14 103.32 -14 104 C-15.828125 105.65625 -15.828125 105.65625 -18.25 107.5 C-19.03890625 108.1084375 -19.8278125 108.716875 -20.640625 109.34375 C-22.71137679 110.79739033 -24.7058932 111.94765743 -27 113 C-27.33 111.68 -27.66 110.36 -28 109 C-24.375 106 -24.375 106 -21 106 C-21 105.34 -21 104.68 -21 104 C-19.68 104 -18.36 104 -17 104 C-16.67 103.01 -16.34 102.02 -16 101 C-15.34 101 -14.68 101 -14 101 C-13.34 99.02 -12.68 97.04 -12 95 C-10.515 95.495 -10.515 95.495 -9 96 C-8.34 94.68 -7.68 93.36 -7 92 C-6.01 92 -5.02 92 -4 92 C-4 91.34 -4 90.68 -4 90 C-3.34 90 -2.68 90 -2 90 C-2 61.29 -2 32.58 -2 3 C-6 4.5 -6 4.5 -7 7 C-8.32 6.67 -9.64 6.34 -11 6 C-9.73608512 4.99126984 -8.46359117 3.99328178 -7.1875 3 C-6.47980469 2.443125 -5.77210938 1.88625 -5.04296875 1.3125 C-3 0 -3 0 0 0 Z " fill="#628BDE" transform="translate(449,23)"/>
<path d="M0 0 C0.33 0 0.66 0 1 0 C1.33 54.45 1.66 108.9 2 165 C0.68 165 -0.64 165 -2 165 C-2 164.34 -2 163.68 -2 163 C-2.7734375 162.6596875 -2.7734375 162.6596875 -3.5625 162.3125 C-6.89547005 160.51782382 -10.14703671 158.50034985 -13 156 C-13 155.34 -13 154.68 -13 154 C-13.66 153.67 -14.32 153.34 -15 153 C-7.70886076 153.48607595 -7.70886076 153.48607595 -4.5 155.8125 C-3 158 -3 158 -3 162 C-2.01 162 -1.02 162 0 162 C0 108.54 0 55.08 0 0 Z " fill="#719AE1" transform="translate(149,311)"/>
<path d="M0 0 C0.495 1.485 0.495 1.485 1 3 C0.67 3.66 0.34 4.32 0 5 C-1.134375 5.268125 -2.26875 5.53625 -3.4375 5.8125 C-7.15552425 6.59467449 -7.15552425 6.59467449 -8.3125 9.5 C-8.539375 10.325 -8.76625 11.15 -9 12 C-11 14 -11 14 -14.5 15.4375 C-18.19437242 16.71343494 -18.19437242 16.71343494 -20 20 C-20.99 20.12375 -21.98 20.2475 -23 20.375 C-23.99 20.58125 -24.98 20.7875 -26 21 C-26.28875 21.763125 -26.5775 22.52625 -26.875 23.3125 C-28.41264323 26.98575883 -30.45461423 27.40194201 -33.9765625 28.953125 C-36.30380417 30.02292664 -36.30380417 30.02292664 -38.6875 32.75 C-41 35 -41 35 -43.8125 35.3125 C-44.534375 35.209375 -45.25625 35.10625 -46 35 C-46 34.34 -46 33.68 -46 33 C-44.31933614 31.76448494 -42.57635249 30.61353171 -40.8125 29.5 C-35.45705893 26.03546111 -30.41576684 22.33327077 -25.4543457 18.32617188 C-22.43324417 15.930307 -19.66154631 14.22725861 -16 13 C-16 12.34 -16 11.68 -16 11 C-15.01 11 -14.02 11 -13 11 C-13 10.34 -13 9.68 -13 9 C-10.86229382 7.37322909 -8.7324466 5.86020356 -6.5 4.375 C-5.87996094 3.95476562 -5.25992188 3.53453125 -4.62109375 3.1015625 C-3.08482736 2.06162833 -1.54292476 1.03002944 0 0 Z " fill="#5682E7" transform="translate(324,112)"/>
<path d="M0 0 C6.75 1.125 6.75 1.125 9.6484375 3.28515625 C10.26074219 3.73310547 10.87304688 4.18105469 11.50390625 4.64257812 C12.12136719 5.11115234 12.73882812 5.57972656 13.375 6.0625 C14.01566406 6.53494141 14.65632813 7.00738281 15.31640625 7.49414062 C16.88489835 8.65295195 18.44348458 9.82515069 20 11 C19.34 11.66 18.68 12.32 18 13 C18 12.34 18 11.68 18 11 C15.69 11.66 13.38 12.32 11 13 C11 11.02 11 9.04 11 7 C9.68 7 8.36 7 7 7 C5.95374591 5.70264493 4.95298777 4.36733028 4 3 C3.01 2.67 2.02 2.34 1 2 C1 30.38 1 58.76 1 88 C0.67 88 0.34 88 0 88 C0 58.96 0 29.92 0 0 Z " fill="#356DEB" transform="translate(54,25)"/>
<path d="M0 0 C11.39556136 3.71018277 11.39556136 3.71018277 14 7 C14 7.66 14 8.32 14 9 C14.66 9 15.32 9 16 9 C16.680625 10.2065625 16.680625 10.2065625 17.375 11.4375 C18.73420995 14.15236193 18.73420995 14.15236193 21.1875 14.8125 C21.785625 14.874375 22.38375 14.93625 23 15 C23.33 16.32 23.66 17.64 24 19 C26.31 19.33 28.62 19.66 31 20 C31.33 21.65 31.66 23.3 32 25 C32.66 25 33.32 25 34 25 C34 25.66 34 26.32 34 27 C35.65 27 37.3 27 39 27 C39 28.32 39 29.64 39 31 C40.32 31.66 41.64 32.32 43 33 C43 33.66 43 34.32 43 35 C44.65 35 46.3 35 48 35 C47.34 36.32 46.68 37.64 46 39 C45.56171875 38.59910156 45.1234375 38.19820312 44.671875 37.78515625 C39.4683771 33.12104533 34.01057433 28.99275208 28.34375 24.91796875 C27.5703125 24.28503906 26.796875 23.65210938 26 23 C26 22.34 26 21.68 26 21 C25.4112207 20.72220703 24.82244141 20.44441406 24.21582031 20.15820312 C20.74844629 18.34581635 17.81701451 15.91246873 14.75 13.5 C14.1003125 13.00113281 13.450625 12.50226563 12.78125 11.98828125 C11.14763436 10.70815807 9.56865759 9.35894401 8 8 C8 7.34 8 6.68 8 6 C7.34 6 6.68 6 6 6 C6 5.34 6 4.68 6 4 C5.195625 3.71125 4.39125 3.4225 3.5625 3.125 C1 2 1 2 0 0 Z " fill="#628AE7" transform="translate(61,121)"/>
<path d="M0 0 C0.66 0.33 1.32 0.66 2 1 C1.67 2.32 1.34 3.64 1 5 C0.34 5 -0.32 5 -1 5 C-1.33644531 5.93972656 -1.33644531 5.93972656 -1.6796875 6.8984375 C-3.46322845 9.73732813 -4.92033999 9.81267671 -8.125 10.625 C-14.12924622 12.57657675 -16.73058695 15.6402065 -20.24609375 20.7578125 C-23.18996777 24.52125056 -26.77375988 25.32924628 -31.25 26.625 C-32.58804687 27.01558594 -32.58804687 27.01558594 -33.953125 27.4140625 C-34.62859375 27.60742188 -35.3040625 27.80078125 -36 28 C-35.67 27.34 -35.34 26.68 -35 26 C-34.34 26 -33.68 26 -33 26 C-33 25.34 -33 24.68 -33 24 C-32.01 24 -31.02 24 -30 24 C-30 23.34 -30 22.68 -30 22 C-24.58823529 18 -24.58823529 18 -22 18 C-22 17.34 -22 16.68 -22 16 C-19.9055032 14.36570249 -17.82217909 12.85832766 -15.625 11.375 C-15.02171875 10.95476562 -14.4184375 10.53453125 -13.796875 10.1015625 C-9.26537135 7 -9.26537135 7 -7 7 C-7 6.34 -7 5.68 -7 5 C-5.46875 3.7109375 -5.46875 3.7109375 -3.5 2.375 C-2.8503125 1.92898437 -2.200625 1.48296875 -1.53125 1.0234375 C-1.0259375 0.68570313 -0.520625 0.34796875 0 0 Z " fill="#5082E7" transform="translate(382,69)"/>
<path d="M0 0 C0.33 0.99 0.66 1.98 1 3 C0.01 3.33 -0.98 3.66 -2 4 C-2.73323796 6.01508358 -2.73323796 6.01508358 -3 8 C-3.99 8 -4.98 8 -6 8 C-6 8.66 -6 9.32 -6 10 C-6.66 10 -7.32 10 -8 10 C-8.33 10.99 -8.66 11.98 -9 13 C-11.0625 13.6875 -11.0625 13.6875 -13 14 C-13.33 16.31 -13.66 18.62 -14 21 C-14.969375 21.28875 -15.93875 21.5775 -16.9375 21.875 C-20.10664203 22.64214682 -20.10664203 22.64214682 -21 25 C-22.32 25 -23.64 25 -25 25 C-25 25.66 -25 26.32 -25 27 C-26.65 27.33 -28.3 27.66 -30 28 C-25.17365769 22.03057661 -19.77568492 17.04254845 -14 12 C-13.27039063 11.35546875 -12.54078125 10.7109375 -11.7890625 10.046875 C-7.91290638 6.63110524 -3.98518611 3.28777854 0 0 Z " fill="#3166EF" transform="translate(372,217)"/>
<path d="M0 0 C1.2065625 0.0309375 1.2065625 0.0309375 2.4375 0.0625 C2.4375 3.0625 2.4375 3.0625 0.0625 5.75 C-2.5625 8.0625 -2.5625 8.0625 -4.5625 8.0625 C-4.79372559 8.61969727 -5.02495117 9.17689453 -5.26318359 9.75097656 C-6.90884585 12.6786598 -8.96225251 14.68635188 -11.3515625 17.046875 C-11.81484955 17.50733215 -12.2781366 17.96778931 -12.75546265 18.44219971 C-14.22815898 19.90375078 -15.70767403 21.35817168 -17.1875 22.8125 C-18.19056322 23.80552611 -19.19317257 24.79901089 -20.1953125 25.79296875 C-22.64580835 28.22147941 -25.1024667 30.64364675 -27.5625 33.0625 C-27.8925 32.0725 -28.2225 31.0825 -28.5625 30.0625 C-27.5725 28.5775 -27.5725 28.5775 -26.5625 27.0625 C-25.5725 27.0625 -24.5825 27.0625 -23.5625 27.0625 C-23.48 26.464375 -23.3975 25.86625 -23.3125 25.25 C-22.34673221 22.43317727 -21.07381433 21.58450868 -18.5625 20.0625 C-17.9025 20.0625 -17.2425 20.0625 -16.5625 20.0625 C-15.9025 18.7425 -15.2425 17.4225 -14.5625 16.0625 C-13.9025 16.0625 -13.2425 16.0625 -12.5625 16.0625 C-12.52125 15.505625 -12.48 14.94875 -12.4375 14.375 C-11.07272892 10.768105 -8.65169824 9.33211504 -5.5625 7.0625 C-4.9025 7.0625 -4.2425 7.0625 -3.5625 7.0625 C-3.5625 6.4025 -3.5625 5.7425 -3.5625 5.0625 C-4.2225 5.0625 -4.8825 5.0625 -5.5625 5.0625 C-3.15007962 0.07683121 -3.15007962 0.07683121 0 0 Z " fill="#517DDE" transform="translate(313.5625,325.9375)"/>
<path d="M0 0 C0.61359375 0.15339844 1.2271875 0.30679687 1.859375 0.46484375 C2.56578125 0.64144531 3.2721875 0.81804687 4 1 C5.33333333 1.33333333 6.66666667 1.66666667 8 2 C8.33 3.65 8.66 5.3 9 7 C8.01 7 7.02 7 6 7 C5.01 6.01 4.02 5.02 3 4 C2.67 8.95 2.34 13.9 2 19 C1.34 19 0.68 19 0 19 C0 29.89 0 40.78 0 52 C-0.33 52 -0.66 52 -1 52 C-2.60666308 15.12295442 -2.60666308 15.12295442 0 0 Z " fill="#366DE3" transform="translate(149,292)"/>
<path d="M0 0 C0.609375 1.86328125 0.609375 1.86328125 1 4 C-1.21867135 6.77333918 -2.60620325 7.86873442 -6 9 C-6.61875 9.94875 -7.2375 10.8975 -7.875 11.875 C-10.06935526 15.10199304 -11.5248501 16.3493038 -15 18 C-15.721875 18.12375 -16.44375 18.2475 -17.1875 18.375 C-17.785625 18.58125 -18.38375 18.7875 -19 19 C-19.268125 19.7425 -19.53625 20.485 -19.8125 21.25 C-21.45451805 25.05256812 -24.25454977 27.2482304 -28 29 C-28.99 28.67 -29.98 28.34 -31 28 C-30.42894531 27.48953125 -29.85789062 26.9790625 -29.26953125 26.453125 C-24.26636879 21.96698251 -19.30344734 17.44289931 -14.375 12.875 C-9.65350192 8.50052857 -4.88549495 4.19178419 0 0 Z " fill="#6790E4" transform="translate(441,154)"/>
<path d="M0 0 C0.66 0 1.32 0 2 0 C2.33 0.99 2.66 1.98 3 3 C1.40012144 4.31772362 -0.20505966 5.62901137 -1.8125 6.9375 C-2.70582031 7.66839844 -3.59914063 8.39929688 -4.51953125 9.15234375 C-7 11 -7 11 -10 12 C-10 12.66 -10 13.32 -10 14 C-11.828125 15.65625 -11.828125 15.65625 -14.25 17.5 C-15.03890625 18.1084375 -15.8278125 18.716875 -16.640625 19.34375 C-18.71137679 20.79739033 -20.7058932 21.94765743 -23 23 C-23.33 21.68 -23.66 20.36 -24 19 C-20.375 16 -20.375 16 -17 16 C-17 15.34 -17 14.68 -17 14 C-15.68 14 -14.36 14 -13 14 C-12.67 13.01 -12.34 12.02 -12 11 C-11.34 11 -10.68 11 -10 11 C-9.34 9.02 -8.68 7.04 -8 5 C-7.01 5.33 -6.02 5.66 -5 6 C-4.34 4.68 -3.68 3.36 -3 2 C-2.01 2 -1.02 2 0 2 C0 1.34 0 0.68 0 0 Z " fill="#5787E8" transform="translate(445,113)"/>
<path d="M0 0 C-9.6285435 9.84848485 -9.6285435 9.84848485 -14 13 C-14.99 12.67 -15.98 12.34 -17 12 C-17 11.34 -17 10.68 -17 10 C-17.58265625 9.74476563 -18.1653125 9.48953125 -18.765625 9.2265625 C-21.21388223 7.88258913 -22.81743248 6.38189704 -24.75 4.375 C-25.36359375 3.74335938 -25.9771875 3.11171875 -26.609375 2.4609375 C-27.06828125 1.97882813 -27.5271875 1.49671875 -28 1 C-26.0625 0.4375 -26.0625 0.4375 -24 0 C-23.67 0.33 -23.34 0.66 -23 1 C-22.319375 1.639375 -21.63875 2.27875 -20.9375 2.9375 C-19 5 -19 5 -19 7 C-18.01 7 -17.02 7 -16 7 C-16 7.66 -16 8.32 -16 9 C-15.01 8.34 -14.02 7.68 -13 7 C-11.68 7 -10.36 7 -9 7 C-8.938125 6.05125 -8.87625 5.1025 -8.8125 4.125 C-8 1 -8 1 -5.625 -0.4375 C-3 -1 -3 -1 0 0 Z " fill="#658DE7" transform="translate(265,380)"/>
<path d="M0 0 C0.99 0.33 1.98 0.66 3 1 C-0.33841698 4.42913483 -3.7774775 7.55624939 -7.5 10.5625 C-8.4178125 11.30628906 -9.335625 12.05007812 -10.28125 12.81640625 C-12.85161073 14.88081954 -15.42430635 16.94224475 -18 19 C-19.10844919 15.67465243 -18.84454356 13.37817425 -18 10 C-16.68 10.66 -15.36 11.32 -14 12 C-13.67 11.34 -13.34 10.68 -13 10 C-12.01 10 -11.02 10 -10 10 C-10 8.68 -10 7.36 -10 6 C-9.34 5.67 -8.68 5.34 -8 5 C-7.67 4.01 -7.34 3.02 -7 2 C-6.21625 2.04125 -5.4325 2.0825 -4.625 2.125 C-1.83883881 2.28728734 -1.83883881 2.28728734 0 0 Z " fill="#4977E5" transform="translate(298,239)"/>
<path d="M0 0 C0.66 0.33 1.32 0.66 2 1 C-0.18434976 2.8995663 -2.37232283 4.79467211 -4.5625 6.6875 C-5.17158203 7.21794922 -5.78066406 7.74839844 -6.40820312 8.29492188 C-10.45433116 11.7844397 -14.60942057 14.95428274 -19 18 C-18.67 15.69 -18.34 13.38 -18 11 C-16.68 11 -15.36 11 -14 11 C-13.67 10.01 -13.34 9.02 -13 8 C-12.34 8 -11.68 8 -11 8 C-10.67 7.34 -10.34 6.68 -10 6 C-10.66 6 -11.32 6 -12 6 C-12 5.34 -12 4.68 -12 4 C-8.6559085 1.77060567 -7.81650662 2 -4 2 C-2.65909241 1.34870203 -1.32407669 0.68486725 0 0 Z " fill="#4E7DEA" transform="translate(383,168)"/>
<path d="M0 0 C0.3125 2.3125 0.3125 2.3125 0 5 C-2.3832946 6.81883009 -3.95818337 8 -7 8 C-7 8.66 -7 9.32 -7 10 C-7.66 10 -8.32 10 -9 10 C-8.67 11.32 -8.34 12.64 -8 14 C-8.99 14.33 -9.98 14.66 -11 15 C-11.66 15.66 -12.32 16.32 -13 17 C-14.2684375 17.2475 -14.2684375 17.2475 -15.5625 17.5 C-16.7690625 17.7475 -16.7690625 17.7475 -18 18 C-18.33 18.66 -18.66 19.32 -19 20 C-21.5625 20.625 -21.5625 20.625 -24 21 C-22.33333333 19.33333333 -20.66666667 17.66666667 -19 16 C-18.443125 15.401875 -17.88625 14.80375 -17.3125 14.1875 C-16 13 -16 13 -14 13 C-14 12.34 -14 11.68 -14 11 C-12.3203125 9.2734375 -12.3203125 9.2734375 -10.125 7.375 C-9.40570313 6.74335938 -8.68640625 6.11171875 -7.9453125 5.4609375 C-6 4 -6 4 -4 4 C-4 3.34 -4 2.68 -4 2 C-1 0 -1 0 0 0 Z " fill="#5682E5" transform="translate(295,287)"/>
<path d="M0 0 C0.66 0 1.32 0 2 0 C0.39845555 4.49292336 -3.12941769 6.93523168 -6.6875 9.875 C-7.28755859 10.37902344 -7.88761719 10.88304687 -8.50585938 11.40234375 C-9.71745192 12.42002943 -10.93214088 13.43404012 -12.14990234 14.44433594 C-13.42940825 15.52021501 -14.69459182 16.61327461 -15.94775391 17.71972656 C-16.56956543 18.26854492 -17.19137695 18.81736328 -17.83203125 19.3828125 C-18.67278198 20.13522217 -18.67278198 20.13522217 -19.53051758 20.90283203 C-21 22 -21 22 -23 22 C-23 22.66 -23 23.32 -23 24 C-23.66 24 -24.32 24 -25 24 C-24.34 22.68 -23.68 21.36 -23 20 C-22.34 20 -21.68 20 -21 20 C-21.33 18.68 -21.66 17.36 -22 16 C-20.68 16 -19.36 16 -18 16 C-18 15.34 -18 14.68 -18 14 C-16.68 14 -15.36 14 -14 14 C-14 13.34 -14 12.68 -14 12 C-13.34 12 -12.68 12 -12 12 C-11.67 10.68 -11.34 9.36 -11 8 C-10.01 8 -9.02 8 -8 8 C-8 7.01 -8 6.02 -8 5 C-6.35 5 -4.7 5 -3 5 C-3 4.01 -3 3.02 -3 2 C-2.01 2 -1.02 2 0 2 C0 1.34 0 0.68 0 0 Z " fill="#5984E3" transform="translate(359,187)"/>
<path d="M0 0 C3.56237924 0.4452974 5.41081499 1.97798106 8 4.375 C10.57750752 6.74107136 13.1695991 8.94037792 16 11 C15.67 11.66 15.34 12.32 15 13 C12.6875 12.8125 12.6875 12.8125 10 12 C8.3125 9.5 8.3125 9.5 7 7 C6.34 6.67 5.68 6.34 5 6 C5 5.34 5 4.68 5 4 C3.68 4.33 2.36 4.66 1 5 C0.67 13.58 0.34 22.16 0 31 C-0.33 31 -0.66 31 -1 31 C-1.02465622 26.74585377 -1.04283899 22.49174502 -1.05493164 18.23754883 C-1.05997101 16.78929927 -1.06680253 15.34105483 -1.07543945 13.89282227 C-1.08752247 11.81525412 -1.09323211 9.73775303 -1.09765625 7.66015625 C-1.10289307 6.40855713 -1.10812988 5.15695801 -1.11352539 3.86743164 C-1 1 -1 1 0 0 Z " fill="#366AE7" transform="translate(55,151)"/>
<path d="M0 0 C0.99 0.33 1.98 0.66 3 1 C-13.26666667 16 -13.26666667 16 -17 16 C-17 16.66 -17 17.32 -17 18 C-21.47058824 22 -21.47058824 22 -24 22 C-24 20.68 -24 19.36 -24 18 C-23.01 18 -22.02 18 -21 18 C-20.67 17.01 -20.34 16.02 -20 15 C-17.9375 14.3125 -17.9375 14.3125 -16 14 C-16 13.34 -16 12.68 -16 12 C-15.34 12 -14.68 12 -14 12 C-14 11.34 -14 10.68 -14 10 C-11.35261084 8.5393715 -10.10551666 8 -7 8 C-7 6.68 -7 5.36 -7 4 C-5.35 4 -3.7 4 -2 4 C-1.34 2.68 -0.68 1.36 0 0 Z " fill="#638DE3" transform="translate(383,449)"/>
<path d="M0 0 C1.67180274 0.94934513 3.33733936 1.90973313 5 2.875 C5.928125 3.40867188 6.85625 3.94234375 7.8125 4.4921875 C8.8953125 5.23855469 8.8953125 5.23855469 10 6 C10 6.66 10 7.32 10 8 C10.69480469 8.23460937 11.38960937 8.46921875 12.10546875 8.7109375 C15.54688715 10.24355298 18.35901548 12.32824412 21.3125 14.625 C21.86228516 15.04523438 22.41207031 15.46546875 22.97851562 15.8984375 C24.32292168 16.92720039 25.66201413 17.9629009 27 19 C25.68 19.33 24.36 19.66 23 20 C22.67 19.01 22.34 18.02 22 17 C20.19747131 16.29805007 20.19747131 16.29805007 18 16 C17.0925 15.814375 16.185 15.62875 15.25 15.4375 C14.5075 15.293125 13.765 15.14875 13 15 C12.67 13.35 12.34 11.7 12 10 C11.443125 9.87625 10.88625 9.7525 10.3125 9.625 C7.77885636 8.94023145 5.42078968 8.00866237 3 7 C3 6.34 3 5.68 3 5 C2.34 5 1.68 5 1 5 C0.67 3.35 0.34 1.7 0 0 Z " fill="#5D88E4" transform="translate(218,141)"/>
<path d="M0 0 C1.3921875 1.2065625 1.3921875 1.2065625 2.8125 2.4375 C6.00239765 5.17447101 9.24217618 7.84431189 12.5 10.5 C16.72106676 13.94089718 20.88475887 17.43345769 25 21 C24.01 21.66 23.02 22.32 22 23 C20.29159719 21.36587557 19.06546953 20.13093906 18 18 C15.6859378 17.26924352 13.35171131 16.59861742 11 16 C11 15.01 11 14.02 11 13 C10.360625 12.7525 9.72125 12.505 9.0625 12.25 C6.455699 10.67012061 6.70804922 9.83219689 6 7 C4.0162233 5.71563266 4.0162233 5.71563266 2 5 C2 4.34 2 3.68 2 3 C1.34 3 0.68 3 0 3 C0 2.01 0 1.02 0 0 Z " fill="#628BE4" transform="translate(161,244)"/>
<path d="M0 0 C0.66 1.32 1.32 2.64 2 4 C1.360625 4.28875 0.72125 4.5775 0.0625 4.875 C-2.15206079 5.82823451 -2.15206079 5.82823451 -3 8 C-4.32 8 -5.64 8 -7 8 C-7 8.99 -7 9.98 -7 11 C-7.66 11 -8.32 11 -9 11 C-9.144375 11.804375 -9.28875 12.60875 -9.4375 13.4375 C-10 16 -10 16 -11 17 C-12.66617115 17.04063832 -14.33388095 17.042721 -16 17 C-16 17.66 -16 18.32 -16 19 C-17.32 19 -18.64 19 -20 19 C-20 18.34 -20 17.68 -20 17 C-18.20703125 15.4140625 -18.20703125 15.4140625 -15.8125 13.625 C-14.57693359 12.68914062 -14.57693359 12.68914062 -13.31640625 11.734375 C-12.55199219 11.16203125 -11.78757812 10.5896875 -11 10 C-7.3942016 7.21370124 -4.17907274 4.26738032 -1 1 C-0.67 0.67 -0.34 0.34 0 0 Z " fill="#527FE3" transform="translate(270,308)"/>
<path d="M0 0 C1.32 0 2.64 0 4 0 C4 0.99 4 1.98 4 3 C4.763125 3.103125 5.52625 3.20625 6.3125 3.3125 C9.19807812 4.05067115 10.26179817 4.62140803 12 7 C12 7.99 12 8.98 12 10 C13.423125 9.9690625 13.423125 9.9690625 14.875 9.9375 C18 10 18 10 20 11 C19.67 12.32 19.34 13.64 19 15 C19.66 15 20.32 15 21 15 C21 15.99 21 16.98 21 18 C18.06598967 16.65729678 15.80853825 15.13488676 13.3984375 12.99609375 C12.74359375 12.42052734 12.08875 11.84496094 11.4140625 11.25195312 C10.74117187 10.65318359 10.06828125 10.05441406 9.375 9.4375 C8.03027366 8.24685689 6.68399178 7.05796763 5.3359375 5.87109375 C4.74345215 5.34443115 4.1509668 4.81776855 3.54052734 4.27514648 C2.01102524 2.91142412 2.01102524 2.91142412 0 2 C0 1.34 0 0.68 0 0 Z " fill="#5482EB" transform="translate(138,185)"/>
<path d="M0 0 C1.32 0.33 2.64 0.66 4 1 C2.21326795 2.5058745 0.42046492 4.0045485 -1.375 5.5 C-2.87160156 6.75296875 -2.87160156 6.75296875 -4.3984375 8.03125 C-7 10 -7 10 -9 10 C-9 10.66 -9 11.32 -9 12 C-10.8984375 13.7265625 -10.8984375 13.7265625 -13.375 15.625 C-14.59316406 16.57246094 -14.59316406 16.57246094 -15.8359375 17.5390625 C-18 19 -18 19 -20 19 C-20.33 18.01 -20.66 17.02 -21 16 C-20.38125 15.938125 -19.7625 15.87625 -19.125 15.8125 C-18.073125 15.4103125 -18.073125 15.4103125 -17 15 C-16.7525 14.195625 -16.505 13.39125 -16.25 12.5625 C-15 10 -15 10 -13.1015625 9.2265625 C-11.08527147 8.73840783 -9.04264232 8.36240428 -7 8 C-7 6.68 -7 5.36 -7 4 C-4 2 -4 2 0 2 C0 1.34 0 0.68 0 0 Z " fill="#5583E4" transform="translate(412,425)"/>
<path d="M0 0 C1.65 0 3.3 0 5 0 C5 0.66 5 1.32 5 2 C4.34 2 3.68 2 3 2 C2.731875 2.639375 2.46375 3.27875 2.1875 3.9375 C1 6 1 6 -2 7 C-2.433125 7.86625 -2.433125 7.86625 -2.875 8.75 C-5.10560523 13.21121045 -8.55782342 15.93756087 -13 18 C-13.33 18.66 -13.66 19.32 -14 20 C-14 18.02 -14 16.04 -14 14 C-13.01 14.33 -12.02 14.66 -11 15 C-11 14.01 -11 13.02 -11 12 C-10.34 12 -9.68 12 -9 12 C-9 11.34 -9 10.68 -9 10 C-8.34 10 -7.68 10 -7 10 C-7 9.34 -7 8.68 -7 8 C-6.01 8 -5.02 8 -4 8 C-3.67 6.68 -3.34 5.36 -3 4 C-2.01 4 -1.02 4 0 4 C0 2.68 0 1.36 0 0 Z " fill="#5C8CE6" transform="translate(331,307)"/>
<path d="M0 0 C0 3.67599089 -0.28739376 5.71179602 -2 9 C-4.28034644 10.00869767 -6.47453641 10.61929549 -8.90625 11.1640625 C-11.16507079 11.81638658 -11.16507079 11.81638658 -12.1484375 13.9765625 C-12.42945313 14.64429688 -12.71046875 15.31203125 -13 16 C-15.125 17.75 -15.125 17.75 -17 19 C-17.66 18.34 -18.32 17.68 -19 17 C-10.07749077 7.87822878 -10.07749077 7.87822878 -6 5 C-5.34 5 -4.68 5 -4 5 C-4 4.34 -4 3.68 -4 3 C-3.34 3 -2.68 3 -2 3 C-2 2.34 -2 1.68 -2 1 C-1.34 0.67 -0.68 0.34 0 0 Z " fill="#4E7DE6" transform="translate(341,245)"/>
<path d="M0 0 C0.99 0 1.98 0 3 0 C3.66 0.66 4.32 1.32 5 2 C5.99 1.67 6.98 1.34 8 1 C8.66 1.66 9.32 2.32 10 3 C9.34 3 8.68 3 8 3 C8.33 4.65 8.66 6.3 9 8 C9.99 7.67 10.98 7.34 12 7 C12.28875 7.804375 12.5775 8.60875 12.875 9.4375 C13.73262568 12.1326468 13.73262568 12.1326468 16 13 C16.625 15.5625 16.625 15.5625 17 18 C11.00040771 13.04381506 5.19144551 7.80773381 0 2 C0 1.34 0 0.68 0 0 Z " fill="#5B88E8" transform="translate(177,319)"/>
<path d="M0 0 C3.14952839 0.6998952 6.0652503 1.65160149 9 3 C9.33 3.66 9.66 4.32 10 5 C10.99 5.33 11.98 5.66 13 6 C13 6.66 13 7.32 13 8 C13.9590625 8.1546875 13.9590625 8.1546875 14.9375 8.3125 C15.618125 8.539375 16.29875 8.76625 17 9 C17.33 9.99 17.66 10.98 18 12 C17.67 12.66 17.34 13.32 17 14 C17.66 14 18.32 14 19 14 C18.67 14.66 18.34 15.32 18 16 C4.57320668 5.40714052 4.57320668 5.40714052 0 1 C0 0.67 0 0.34 0 0 Z " fill="#4977E5" transform="translate(214,250)"/>
<path d="M0 0 C-0.8125 2.4375 -0.8125 2.4375 -2 5 C-2.99 5.33 -3.98 5.66 -5 6 C-5 6.66 -5 7.32 -5 8 C-6.65 8 -8.3 8 -10 8 C-10 8.66 -10 9.32 -10 10 C-10.99 10 -11.98 10 -13 10 C-13 10.66 -13 11.32 -13 12 C-13.99 12 -14.98 12 -16 12 C-16.185625 12.61875 -16.37125 13.2375 -16.5625 13.875 C-18.71437233 17.05602866 -21.37533763 17.19451947 -25 18 C-20.6269457 13.18964027 -15.53722562 9.40073857 -10 6 C-9.34 6 -8.68 6 -8 6 C-8 5.34 -8 4.68 -8 4 C-2.58823529 0 -2.58823529 0 0 0 Z " fill="#628CE0" transform="translate(278,147)"/>
<path d="M0 0 C0.928125 0.0825 1.85625 0.165 2.8125 0.25 C-0.43156198 3.60219738 -3.80959917 6.78676364 -7.25 9.9375 C-8.50490234 11.08798828 -8.50490234 11.08798828 -9.78515625 12.26171875 C-11.88284604 13.9978555 -13.70363066 15.17728969 -16.1875 16.25 C-15.8575 14.93 -15.5275 13.61 -15.1875 12.25 C-14.5275 12.58 -13.8675 12.91 -13.1875 13.25 C-13.1875 12.26 -13.1875 11.27 -13.1875 10.25 C-13.8475 10.25 -14.5075 10.25 -15.1875 10.25 C-15.1875 9.59 -15.1875 8.93 -15.1875 8.25 C-12.2175 8.745 -12.2175 8.745 -9.1875 9.25 C-9.5175 8.26 -9.8475 7.27 -10.1875 6.25 C-9.589375 6.0025 -8.99125 5.755 -8.375 5.5 C-6.04935408 4.39325062 -6.04935408 4.39325062 -4.8125 2.125 C-3.1875 0.25 -3.1875 0.25 0 0 Z " fill="#5180E6" transform="translate(417.1875,137.75)"/>
<path d="M0 0 C-0.8559375 0.5465625 -1.711875 1.093125 -2.59375 1.65625 C-6.13026301 4.01392534 -9.30002426 6.71047246 -12.5 9.5 C-16.50716066 12.99317806 -20.51562727 16.13648488 -25 19 C-25 17.68 -25 16.36 -25 15 C-23.68 14.67 -22.36 14.34 -21 14 C-21 13.34 -21 12.68 -21 12 C-19.25 9.875 -19.25 9.875 -17 8 C-15.68 8 -14.36 8 -13 8 C-12.67 6.68 -12.34 5.36 -12 4 C-11.34 4 -10.68 4 -10 4 C-9.67 3.34 -9.34 2.68 -9 2 C-8.01 2 -7.02 2 -6 2 C-6 1.34 -6 0.68 -6 0 C-3.50907189 -1.24546405 -2.58919267 -0.7767578 0 0 Z " fill="#5A86E4" transform="translate(448,401)"/>
<path d="M0 0 C1.17219543 0.78345715 2.33763668 1.57702836 3.5 2.375 C4.47453125 3.03628906 4.47453125 3.03628906 5.46875 3.7109375 C5.9740625 4.13632812 6.479375 4.56171875 7 5 C7 5.66 7 6.32 7 7 C7.57234375 7.25523437 8.1446875 7.51046875 8.734375 7.7734375 C11.24173733 9.13087159 13.1330456 10.71974104 15.25 12.625 C15.95640625 13.25664062 16.6628125 13.88828125 17.390625 14.5390625 C17.92171875 15.02117187 18.4528125 15.50328125 19 16 C17.02 16.99 17.02 16.99 15 18 C14.773125 17.401875 14.54625 16.80375 14.3125 16.1875 C12.62055499 13.36759165 10.94846119 12.40402914 8 11 C6.68 11 5.36 11 4 11 C3 8 3 8 4 5 C3.01 4.67 2.02 4.34 1 4 C0.3125 1.9375 0.3125 1.9375 0 0 Z " fill="#4976E9" transform="translate(215,293)"/>
<path d="M0 0 C1.2065625 0.0309375 1.2065625 0.0309375 2.4375 0.0625 C1.0625 2.0625 1.0625 2.0625 -0.5625 4.0625 C-1.2225 4.0625 -1.8825 4.0625 -2.5625 4.0625 C-2.5625 4.7225 -2.5625 5.3825 -2.5625 6.0625 C-8.03869048 11.0625 -8.03869048 11.0625 -10.5625 11.0625 C-10.5625 11.7225 -10.5625 12.3825 -10.5625 13.0625 C-15.03308824 17.0625 -15.03308824 17.0625 -17.5625 17.0625 C-17.8925 17.7225 -18.2225 18.3825 -18.5625 19.0625 C-18.05646008 16.89375748 -17.56266187 15.06282373 -16.5625 13.0625 C-15.5725 13.0625 -14.5825 13.0625 -13.5625 13.0625 C-13.2325 11.7425 -12.9025 10.4225 -12.5625 9.0625 C-11.2425 9.0625 -9.9225 9.0625 -8.5625 9.0625 C-8.8925 8.0725 -9.2225 7.0825 -9.5625 6.0625 C-8.94375 5.98 -8.325 5.8975 -7.6875 5.8125 C-5.38868538 5.25642091 -5.38868538 5.25642091 -4.375 3.0625 C-4.106875 2.4025 -3.83875 1.7425 -3.5625 1.0625 C-2.5625 0.0625 -2.5625 0.0625 0 0 Z " fill="#4F80DF" transform="translate(331.5625,210.9375)"/>
<path d="M0 0 C1.216875 0.165 2.43375 0.33 3.6875 0.5 C6.81607836 0.89454541 9.84168804 1.09869725 13 1 C12.67 1.66 12.34 2.32 12 3 C12.29369827 4.34262065 12.6278958 5.67696283 13 7 C13 7.66 13 8.32 13 9 C13.66 9.33 14.32 9.66 15 10 C14.01 10.495 14.01 10.495 13 11 C11.5805831 9.92027262 10.1645917 8.83604137 8.75 7.75 C7.96109375 7.14671875 7.1721875 6.5434375 6.359375 5.921875 C4.08368843 4.06817005 2.03628442 2.11101046 0 0 Z " fill="#4C7CEC" transform="translate(56,401)"/>
<path d="M0 0 C3.465 1.98 3.465 1.98 7 4 C7 4.66 7 5.32 7 6 C7.70125 6.2475 8.4025 6.495 9.125 6.75 C12.39514548 8.17180238 15.141122 9.87246288 18 12 C18 12.66 18 13.32 18 14 C18.66 14.33 19.32 14.66 20 15 C19.01 15.33 18.02 15.66 17 16 C17 15.34 17 14.68 17 14 C15.68 13.67 14.36 13.34 13 13 C13 12.34 13 11.68 13 11 C12.195625 10.87625 11.39125 10.7525 10.5625 10.625 C9.716875 10.41875 8.87125 10.2125 8 10 C7.67 9.34 7.34 8.68 7 8 C5.35 8 3.7 8 2 8 C1.855625 7.236875 1.71125 6.47375 1.5625 5.6875 C1.0367406 2.91827092 1.0367406 2.91827092 0 0 Z " fill="#5683E3" transform="translate(133,79)"/>
<path d="M0 0 C2.475 0.495 2.475 0.495 5 1 C5 1.66 5 2.32 5 3 C5.928125 2.773125 6.85625 2.54625 7.8125 2.3125 C11 2 11 2 12.875 3.4375 C13.431875 4.2109375 13.431875 4.2109375 14 5 C13.0022242 7.99332739 12.2477975 8.94766315 10 11 C8.5 9.625 8.5 9.625 7 8 C7 7.34 7 6.68 7 6 C6.401875 5.7525 5.80375 5.505 5.1875 5.25 C2.71352479 3.83629988 1.56629745 2.34944617 0 0 Z " fill="#4979ED" transform="translate(226,369)"/>
<path d="M0 0 C0.99 0.33 1.98 0.66 3 1 C-0.3 3.97 -3.6 6.94 -7 10 C-11.2026393 7.36113346 -14.56638098 4.63559661 -18 1 C-16.68 1 -15.36 1 -14 1 C-14 1.66 -14 2.32 -14 3 C-12.35 2.67 -10.7 2.34 -9 2 C-9.33 3.65 -9.66 5.3 -10 7 C-8.68 7 -7.36 7 -6 7 C-6 6.01 -6 5.02 -6 4 C-4.02 3.34 -2.04 2.68 0 2 C0 1.34 0 0.68 0 0 Z " fill="#6286DC" transform="translate(259,272)"/>
<path d="M0 0 C0.33 0.99 0.66 1.98 1 3 C0.01 3.33 -0.98 3.66 -2 4 C-2.73323796 6.01508358 -2.73323796 6.01508358 -3 8 C-3.99 8 -4.98 8 -6 8 C-6 8.66 -6 9.32 -6 10 C-6.66 10 -7.32 10 -8 10 C-8.33 10.99 -8.66 11.98 -9 13 C-11.9375 14.75 -11.9375 14.75 -15 16 C-15.66 15.67 -16.32 15.34 -17 15 C-14.91880554 13.06015834 -12.83515453 11.12307706 -10.75 9.1875 C-9.87021484 8.36668945 -9.87021484 8.36668945 -8.97265625 7.52929688 C-6.08463321 4.85219687 -3.22478709 2.27491168 0 0 Z " fill="#5C83E2" transform="translate(372,217)"/>
<path d="M0 0 C0.66 0.33 1.32 0.66 2 1 C-0.24164579 4.42145937 -2.53239298 5.91943579 -6 8 C-6.515625 8.721875 -7.03125 9.44375 -7.5625 10.1875 C-8.2740625 11.0846875 -8.2740625 11.0846875 -9 12 C-10.32 12 -11.64 12 -13 12 C-13 12.66 -13 13.32 -13 14 C-14.98 14.33 -16.96 14.66 -19 15 C-16.17528319 12.07066405 -13.31005488 9.37644966 -10 7 C-9.01 7 -8.02 7 -7 7 C-7 6.34 -7 5.68 -7 5 C-5.46875 3.7109375 -5.46875 3.7109375 -3.5 2.375 C-2.8503125 1.92898437 -2.200625 1.48296875 -1.53125 1.0234375 C-1.0259375 0.68570313 -0.520625 0.34796875 0 0 Z " fill="#658CE6" transform="translate(344,97)"/>
<path d="M0 0 C6.09304549 3.18756546 11.61114807 6.72709561 17 11 C16.34 11.66 15.68 12.32 15 13 C15 12.34 15 11.68 15 11 C12.69 11.66 10.38 12.32 8 13 C8 11.02 8 9.04 8 7 C6.68 7 5.36 7 4 7 C0 2.77777778 0 2.77777778 0 0 Z " fill="#5A89E0" transform="translate(57,25)"/>
<path d="M0 0 C0.66 0 1.32 0 2 0 C2 0.66 2 1.32 2 2 C2.5775 2.268125 3.155 2.53625 3.75 2.8125 C6.05550043 4.02929189 8.02056192 5.30333879 10 7 C10 7.66 10 8.32 10 9 C10.99 9.33 11.98 9.66 13 10 C13 10.66 13 11.32 13 12 C13.61875 12.268125 14.2375 12.53625 14.875 12.8125 C17 14 17 14 19 17 C18.01 17 17.02 17 16 17 C15.773125 16.38125 15.54625 15.7625 15.3125 15.125 C13.62070165 12.38589791 12.00755839 11.94975528 9 11 C9 10.34 9 9.68 9 9 C7.35 9 5.7 9 4 9 C3.67 7.02 3.34 5.04 3 3 C2.01 2.67 1.02 2.34 0 2 C0 1.34 0 0.68 0 0 Z " fill="#567FE1" transform="translate(71,164)"/>
<path d="M0 0 C4.32710945 2.86720322 8.61172878 5.78885913 12.875 8.75 C13.46796875 9.16121094 14.0609375 9.57242188 14.671875 9.99609375 C16.1149178 10.99691375 17.55750704 11.99838768 19 13 C18.67 13.66 18.34 14.32 18 15 C13.11187968 14.58101826 11.29592586 12.4649477 8 9 C7.319375 8.67 6.63875 8.34 5.9375 8 C3.16381652 6.56842143 1.76889891 4.52699845 0 2 C0 1.34 0 0.68 0 0 Z " fill="#5982E2" transform="translate(199,127)"/>
<path d="M0 0 C5.97842675 3.24914497 11.47131676 7.03981643 17 11 C16.34 11.66 15.68 12.32 15 13 C15 12.34 15 11.68 15 11 C12.03 10.01 9.06 9.02 6 8 C6 7.34 6 6.68 6 6 C4.35 6.33 2.7 6.66 1 7 C0.67 4.69 0.34 2.38 0 0 Z " fill="#4E7DE0" transform="translate(74,37)"/>
<path d="M0 0 C1.2065625 0.0309375 1.2065625 0.0309375 2.4375 0.0625 C2.4375 3.0625 2.4375 3.0625 0.0625 5.75 C-2.5625 8.0625 -2.5625 8.0625 -4.5625 8.0625 C-4.8925 9.0525 -5.2225 10.0425 -5.5625 11.0625 C-6.5525 10.7325 -7.5425 10.4025 -8.5625 10.0625 C-7.1875 8.5625 -7.1875 8.5625 -5.5625 7.0625 C-4.9025 7.0625 -4.2425 7.0625 -3.5625 7.0625 C-3.5625 6.4025 -3.5625 5.7425 -3.5625 5.0625 C-4.2225 5.0625 -4.8825 5.0625 -5.5625 5.0625 C-3.15007962 0.07683121 -3.15007962 0.07683121 0 0 Z " fill="#5282E7" transform="translate(313.5625,325.9375)"/>
<path d="M0 0 C7.29113924 0.48607595 7.29113924 0.48607595 10.5 2.8125 C12 5 12 5 12 9 C12.99 9.33 13.98 9.66 15 10 C15 10.66 15 11.32 15 12 C14.34 12 13.68 12 13 12 C13 11.34 13 10.68 13 10 C12.484375 9.773125 11.96875 9.54625 11.4375 9.3125 C8.10452995 7.51782382 4.85296329 5.50034985 2 3 C2 2.34 2 1.68 2 1 C1.34 0.67 0.68 0.34 0 0 Z " fill="#5B86E7" transform="translate(134,464)"/>
<path d="M0 0 C0.33 0.66 0.66 1.32 1 2 C2.32 1.67 3.64 1.34 5 1 C5.33 1.99 5.66 2.98 6 4 C6.66 4.33 7.32 4.66 8 5 C8.625 7.5625 8.625 7.5625 9 10 C10.32 10.33 11.64 10.66 13 11 C13.33 12.65 13.66 14.3 14 16 C8.70987876 11.59156563 3.81191572 6.92440206 -1 2 C-0.67 1.34 -0.34 0.68 0 0 Z " fill="#5083E9" transform="translate(212,353)"/>
<path d="M0 0 C1.98 0.99 1.98 0.99 4 2 C3.01 2.33 2.02 2.66 1 3 C1 15.87 1 28.74 1 42 C0.67 42 0.34 42 0 42 C0 28.14 0 14.28 0 0 Z " fill="#4B73D2" transform="translate(53,22)"/>
<path d="M0 0 C0.66 0.33 1.32 0.66 2 1 C1.67 2.32 1.34 3.64 1 5 C0.34 5 -0.32 5 -1 5 C-1.20625 5.61875 -1.4125 6.2375 -1.625 6.875 C-3.54775888 9.84653645 -5.66594527 10.13024659 -9 11 C-9 9.68 -9 8.36 -9 7 C-8.34 7 -7.68 7 -7 7 C-7 6.34 -7 5.68 -7 5 C-5.46875 3.7109375 -5.46875 3.7109375 -3.5 2.375 C-2.8503125 1.92898437 -2.200625 1.48296875 -1.53125 1.0234375 C-0.77328125 0.51683594 -0.77328125 0.51683594 0 0 Z " fill="#336DE9" transform="translate(382,69)"/>
<path d="M0 0 C2.66666667 0.66666667 5.33333333 1.33333333 8 2 C8.33 3.65 8.66 5.3 9 7 C8.01 7 7.02 7 6 7 C5.01 6.01 4.02 5.02 3 4 C2.67 8.95 2.34 13.9 2 19 C1.67 19 1.34 19 1 19 C0.67 12.73 0.34 6.46 0 0 Z " fill="#7EA4F1" transform="translate(149,292)"/>
<path d="M0 0 C2 2 2 2 2.22705078 4.15478516 C2.21657715 5.02409668 2.20610352 5.8934082 2.1953125 6.7890625 C2.18886719 7.73007812 2.18242187 8.67109375 2.17578125 9.640625 C2.15902344 10.62546875 2.14226562 11.6103125 2.125 12.625 C2.11597656 13.61757813 2.10695312 14.61015625 2.09765625 15.6328125 C2.07404116 18.08878134 2.04110799 20.54427168 2 23 C1.01 22.67 0.02 22.34 -1 22 C-0.67 14.74 -0.34 7.48 0 0 Z " fill="#7E9EE2" transform="translate(149,453)"/>
<path d="M0 0 C0.99 0.33 1.98 0.66 3 1 C2.360625 1.268125 1.72125 1.53625 1.0625 1.8125 C-1.33131686 2.88667752 -1.33131686 2.88667752 -2 6 C-5.44444444 9 -5.44444444 9 -8 9 C-8 9.66 -8 10.32 -8 11 C-9.98 11.99 -9.98 11.99 -12 13 C-12 11.35 -12 9.7 -12 8 C-10.02 7.67 -8.04 7.34 -6 7 C-6 6.34 -6 5.68 -6 5 C-5.34 5 -4.68 5 -4 5 C-3.71125 4.360625 -3.4225 3.72125 -3.125 3.0625 C-2 1 -2 1 0 0 Z " fill="#648ADE" transform="translate(398,154)"/>
<path d="M0 0 C2.97 0 5.94 0 9 0 C8.67 0.99 8.34 1.98 8 3 C8.66 3 9.32 3 10 3 C10.66 4.65 11.32 6.3 12 8 C11.01 8.495 11.01 8.495 10 9 C8.33043913 7.69118353 6.66441696 6.37785174 5 5.0625 C4.071875 4.33160156 3.14375 3.60070312 2.1875 2.84765625 C1.465625 2.23792969 0.74375 1.62820313 0 1 C0 0.67 0 0.34 0 0 Z " fill="#5181E7" transform="translate(70,412)"/>
<path d="M0 0 C3.32687768 1.54684266 6.24703978 3.45954979 9.25 5.5625 C10.14203125 6.18253906 11.0340625 6.80257812 11.953125 7.44140625 C12.62859375 7.95574219 13.3040625 8.47007813 14 9 C14 9.33 14 9.66 14 10 C12.02 10 10.04 10 8 10 C7.67 8.68 7.34 7.36 7 6 C4.03 5.505 4.03 5.505 1 5 C0.67 3.35 0.34 1.7 0 0 Z " fill="#5985E0" transform="translate(153,94)"/>
<path d="M0 0 C0.66 0 1.32 0 2 0 C3.35439668 2.70879335 3.06501451 5.00933268 3 8 C2.34 7.34 1.68 6.68 1 6 C-2.11332248 6.66868314 -2.11332248 6.66868314 -3.1875 9.0625 C-3.455625 9.701875 -3.72375 10.34125 -4 11 C-5.10844919 7.67465243 -4.84454356 5.37817425 -4 2 C-2.02 2.495 -2.02 2.495 0 3 C0 2.01 0 1.02 0 0 Z " fill="#6995EE" transform="translate(348,290)"/>
<path d="M0 0 C0.66 0 1.32 0 2 0 C2.33 1.65 2.66 3.3 3 5 C2.34 5 1.68 5 1 5 C0.90203125 5.62648438 0.8040625 6.25296875 0.703125 6.8984375 C0.55359375 7.71570313 0.4040625 8.53296875 0.25 9.375 C0.04117187 10.59316406 0.04117187 10.59316406 -0.171875 11.8359375 C-1 14 -1 14 -3.078125 15.2890625 C-4.02945312 15.64097656 -4.02945312 15.64097656 -5 16 C-5.56093761 11.51249916 -4.05184496 8.6976642 -1.97265625 4.8671875 C-0.86746821 2.86545514 -0.86746821 2.86545514 0 0 Z " fill="#3770EE" transform="translate(344,288)"/>
<path d="M0 0 C-1.24354886 1.29787866 -2.4951264 2.58806759 -3.75 3.875 C-4.44609375 4.59429687 -5.1421875 5.31359375 -5.859375 6.0546875 C-7.85122217 7.86479679 -9.5427658 8.94848086 -12 10 C-12.33 9.01 -12.66 8.02 -13 7 C-11.68 7 -10.36 7 -9 7 C-8.938125 6.05125 -8.87625 5.1025 -8.8125 4.125 C-8 1 -8 1 -5.625 -0.4375 C-3 -1 -3 -1 0 0 Z " fill="#5A83E2" transform="translate(265,380)"/>
<path d="M0 0 C2.5 1.375 2.5 1.375 5 3 C5 3.66 5 4.32 5 5 C5.5775 5.2475 6.155 5.495 6.75 5.75 C9.3002997 7.16683317 11.01785701 8.87627537 13 11 C12.01 11.33 11.02 11.66 10 12 C7.8125 10.6875 7.8125 10.6875 6 9 C6 8.34 6 7.68 6 7 C5.195625 6.773125 4.39125 6.54625 3.5625 6.3125 C2.716875 5.879375 1.87125 5.44625 1 5 C0.1875 2.375 0.1875 2.375 0 0 Z " fill="#5682E4" transform="translate(135,221)"/>
<path d="M0 0 C4.17882671 2.56428003 7.12505529 5.01930733 10 9 C7.50935112 9.68707555 5.62113708 10 3 10 C2.87625 9.46375 2.7525 8.9275 2.625 8.375 C1.87793984 5.5361714 0.94696636 2.77776798 0 0 Z " fill="#4D79E7" transform="translate(98,188)"/>
<path d="M0 0 C2.31 0.33 4.62 0.66 7 1 C7 1.99 7 2.98 7 4 C8.32 4 9.64 4 11 4 C11.33 5.65 11.66 7.3 12 9 C12.66 9 13.32 9 14 9 C13.67 9.66 13.34 10.32 13 11 C11.66102417 10.04956626 10.32894573 9.08940853 9 8.125 C8.2575 7.59132813 7.515 7.05765625 6.75 6.5078125 C6.1725 6.01023437 5.595 5.51265625 5 5 C5 4.34 5 3.68 5 3 C2.525 2.01 2.525 2.01 0 1 C0 0.67 0 0.34 0 0 Z " fill="#6E90E5" transform="translate(120,453)"/>
<path d="M0 0 C1.98 0 3.96 0 6 0 C2.84778899 4.41309542 -0.55463907 7.00793014 -5 10 C-4.67 7.69 -4.34 5.38 -4 3 C-2.68 3 -1.36 3 0 3 C0 2.01 0 1.02 0 0 Z " fill="#537EE7" transform="translate(369,176)"/>
<path d="M0 0 C5.57457614 2.47758939 9.36861987 6.15815983 13 11 C10.625 10.75 10.625 10.75 8 10 C6.6875 7.9375 6.6875 7.9375 6 6 C4.35 6 2.7 6 1 6 C0.4465236 3.92446352 0 2.15634036 0 0 Z " fill="#5E88E3" transform="translate(148,233)"/>
<path d="M0 0 C0.66 0.33 1.32 0.66 2 1 C1.67 1.66 1.34 2.32 1 3 C0.34 3 -0.32 3 -1 3 C-1.185625 3.721875 -1.37125 4.44375 -1.5625 5.1875 C-3.46652605 8.91276836 -6.19997658 11.2227062 -10 13 C-10.99 12.67 -11.98 12.34 -13 12 C-12.31292969 11.38511719 -11.62585938 10.77023438 -10.91796875 10.13671875 C-10.01691406 9.32847656 -9.11585938 8.52023438 -8.1875 7.6875 C-7.29417969 6.88699219 -6.40085937 6.08648437 -5.48046875 5.26171875 C-3.60073214 3.54775419 -1.77407253 1.82122396 0 0 Z " fill="#6B93E2" transform="translate(423,170)"/>
<path d="M0 0 C0.68835937 0.59748047 0.68835937 0.59748047 1.390625 1.20703125 C4.52271585 3.91142062 7.63877459 6.57991771 11 9 C10.67 9.66 10.34 10.32 10 11 C7.6875 10.8125 7.6875 10.8125 5 10 C3.3125 7.5 3.3125 7.5 2 5 C1.34 4.67 0.68 4.34 0 4 C0 2.68 0 1.36 0 0 Z " fill="#678EE4" transform="translate(60,153)"/>
<path d="M0 0 C0 0.99 0 1.98 0 3 C-1.96185416 4.71140469 -3.96302383 6.37873325 -6 8 C-6.33 8.66 -6.66 9.32 -7 10 C-8.65 10 -10.3 10 -12 10 C-12 9.34 -12 8.68 -12 8 C-10.02559073 6.5368217 -8.06761129 5.19286936 -6 3.875 C-5.42765625 3.50246094 -4.8553125 3.12992188 -4.265625 2.74609375 C-2.84778218 1.82449592 -1.42439275 0.91144179 0 0 Z " fill="#648CE4" transform="translate(290,137)"/>
<path d="M0 0 C0.33 0.66 0.66 1.32 1 2 C-0.1875 4.5625 -0.1875 4.5625 -2 7 C-4.125 7.6875 -4.125 7.6875 -6 8 C-6.33 8.66 -6.66 9.32 -7 10 C-10.0625 10.625 -10.0625 10.625 -13 11 C-11.71034824 9.62437146 -10.37310707 8.29233607 -9 7 C-8.34 7 -7.68 7 -7 7 C-7 6.34 -7 5.68 -7 5 C-5.03277992 3.61876037 -3.03131672 2.28511874 -1 1 C-0.67 0.67 -0.34 0.34 0 0 Z " fill="#5F8CE9" transform="translate(397,58)"/>
<path d="M0 0 C1.485 0.99 1.485 0.99 3 2 C3 2.66 3 3.32 3 4 C3.556875 4.2475 4.11375 4.495 4.6875 4.75 C7.42410913 6.22924818 9.67650869 7.93467439 12 10 C12 10.66 12 11.32 12 12 C10.68 12 9.36 12 8 12 C8 11.34 8 10.68 8 10 C7.01 10 6.02 10 5 10 C2.76916059 6.87682483 1.33213058 3.5865054 0 0 Z " fill="#6085E4" transform="translate(186,266)"/>
<path d="M0 0 C1.98 0 3.96 0 6 0 C6 1.98 6 3.96 6 6 C6.66 6 7.32 6 8 6 C8 6.66 8 7.32 8 8 C4.67689517 6.83242263 2.16638868 5.85051143 0 3 C0 2.01 0 1.02 0 0 Z " fill="#3D76EA" transform="translate(55,113)"/>
<path d="M0 0 C0.66 0 1.32 0 2 0 C1.67 1.32 1.34 2.64 1 4 C0.34 4 -0.32 4 -1 4 C-1 4.66 -1 5.32 -1 6 C-5.47058824 10 -5.47058824 10 -8 10 C-8 8.68 -8 7.36 -8 6 C-7.01 6 -6.02 6 -5 6 C-4.67 5.01 -4.34 4.02 -4 3 C-1.9375 2.3125 -1.9375 2.3125 0 2 C0 1.34 0 0.68 0 0 Z " fill="#4F80E3" transform="translate(367,461)"/>
<path d="M0 0 C1 2 1 2 0.4140625 4.51171875 C-1 7 -1 7 -3.6015625 8.14453125 C-4.59929687 8.36496094 -5.59703125 8.58539063 -6.625 8.8125 C-7.62789063 9.04582031 -8.63078125 9.27914062 -9.6640625 9.51953125 C-10.43492187 9.67808594 -11.20578125 9.83664063 -12 10 C-8.29909479 6.0747975 -4.45040344 3.05419844 0 0 Z " fill="#5E8BE1" transform="translate(421,41)"/>
<path d="M0 0 C1.65 0 3.3 0 5 0 C5 0.66 5 1.32 5 2 C4.34 2 3.68 2 3 2 C2.731875 2.639375 2.46375 3.27875 2.1875 3.9375 C1 6 1 6 -2 7 C-2.33 7.99 -2.66 8.98 -3 10 C-3.33 10 -3.66 10 -4 10 C-4 8.35 -4 6.7 -4 5 C-2.68 4.67 -1.36 4.34 0 4 C0 2.68 0 1.36 0 0 Z " fill="#648DE6" transform="translate(331,307)"/>
<path d="M0 0 C1.32 0 2.64 0 4 0 C4 0.99 4 1.98 4 3 C4.78375 3.061875 5.5675 3.12375 6.375 3.1875 C7.24125 3.455625 8.1075 3.72375 9 4 C10.3125 6.5625 10.3125 6.5625 11 9 C10.01 9.495 10.01 9.495 9 10 C9 9.34 9 8.68 9 8 C8.443125 7.79375 7.88625 7.5875 7.3125 7.375 C4.07498698 5.44999226 2.31768859 2.96149098 0 0 Z " fill="#5F87E8" transform="translate(157,300)"/>
<path d="M0 0 C1.32 0 2.64 0 4 0 C4.33 1.32 4.66 2.64 5 4 C6.32 4 7.64 4 9 4 C9.103125 4.639375 9.20625 5.27875 9.3125 5.9375 C9.6528125 6.9584375 9.6528125 6.9584375 10 8 C10.99 8.33 11.98 8.66 13 9 C12.67 9.99 12.34 10.98 12 12 C9.99698881 10.19073245 7.99751914 8.377813 6 6.5625 C5.42765625 6.04623047 4.8553125 5.52996094 4.265625 4.99804688 C2.82480421 3.6858708 1.41014216 2.34509096 0 1 C0 0.67 0 0.34 0 0 Z " fill="#6489E3" transform="translate(191,230)"/>
<path d="M0 0 C1.98 0.99 1.98 0.99 4 2 C4 2.66 4 3.32 4 4 C4.7425 4.2475 5.485 4.495 6.25 4.75 C9.20124062 6.09147301 10.84814974 7.60905526 13 10 C12.01 10.495 12.01 10.495 11 11 C11 10.34 11 9.68 11 9 C9.68 9 8.36 9 7 9 C7 8.34 7 7.68 7 7 C5.68 7.33 4.36 7.66 3 8 C3 6.35 3 4.7 3 3 C2.01 3 1.02 3 0 3 C0 2.01 0 1.02 0 0 Z " fill="#638AE6" transform="translate(93,50)"/>
<path d="M0 0 C0.99 0 1.98 0 3 0 C3.66 0.66 4.32 1.32 5 2 C5.99 1.67 6.98 1.34 8 1 C8.66 1.66 9.32 2.32 10 3 C9.34 3 8.68 3 8 3 C8.33 4.32 8.66 5.64 9 7 C2.29787234 5.06382979 2.29787234 5.06382979 0 2 C0 1.34 0 0.68 0 0 Z " fill="#4174E9" transform="translate(177,319)"/>
<path d="M0 0 C0 1.32 0 2.64 0 4 C0.99 4 1.98 4 3 4 C3.66 5.98 4.32 7.96 5 10 C1.78956118 8.61811547 -0.04936365 7.07578097 -2.25 4.375 C-2.77078125 3.74335938 -3.2915625 3.11171875 -3.828125 2.4609375 C-4.21484375 1.97882813 -4.6015625 1.49671875 -5 1 C-2 0 -2 0 0 0 Z " fill="#5C83EC" transform="translate(172,309)"/>
<path d="M0 0 C2.97 0.495 2.97 0.495 6 1 C6.33 1.99 6.66 2.98 7 4 C10.00847418 5.22520264 10.00847418 5.22520264 13 6 C13 7.65 13 9.3 13 11 C8.30840284 7.61227103 3.9700218 4.21814817 0 0 Z " fill="#5C8BE2" transform="translate(107,442)"/>
<path d="M0 0 C0 4.13122742 -1.4277594 5.81854452 -4 9 C-7.25 10.375 -7.25 10.375 -10 11 C-10 10.34 -10 9.68 -10 9 C-9.34 9 -8.68 9 -8 9 C-8 8.34 -8 7.68 -8 7 C-6.25 5.2734375 -6.25 5.2734375 -4 3.375 C-3.2575 2.74335938 -2.515 2.11171875 -1.75 1.4609375 C-1.1725 0.97882813 -0.595 0.49671875 0 0 Z " fill="#698EE8" transform="translate(409,183)"/>
<path d="M0 0 C-0.8125 2.4375 -0.8125 2.4375 -2 5 C-2.99 5.33 -3.98 5.66 -5 6 C-5 6.66 -5 7.32 -5 8 C-6.32 8 -7.64 8 -9 8 C-8.875 6.25 -8.875 6.25 -8 4 C-2.77777778 0 -2.77777778 0 0 0 Z " fill="#5380E4" transform="translate(278,147)"/>
<path d="M0 0 C0.99 0.99 1.98 1.98 3 3 C3.66 2.34 4.32 1.68 5 1 C7.125 1.375 7.125 1.375 9 2 C8.01 2 7.02 2 6 2 C6 3.32 6 4.64 6 6 C5.01 6 4.02 6 3 6 C3 6.66 3 7.32 3 8 C2.01 8.33 1.02 8.66 0 9 C0 6.03 0 3.06 0 0 Z M1 4 C2 7 2 7 2 7 Z " fill="#286AED" transform="translate(353,465)"/>
<path d="M0 0 C1.34164079 0.2981424 2.67323492 0.64141484 4 1 C4.886875 1.226875 5.77375 1.45375 6.6875 1.6875 C7.450625 2.120625 8.21375 2.55375 9 3 C9.8125 6.125 9.8125 6.125 10 9 C8.70391053 8.06862408 7.41328368 7.1296434 6.125 6.1875 C5.40570313 5.66542969 4.68640625 5.14335937 3.9453125 4.60546875 C2 3 2 3 0 0 Z " fill="#678FE5" transform="translate(214,250)"/>
<path d="M0 0 C4.455 2.97 4.455 2.97 9 6 C8.67 6.66 8.34 7.32 8 8 C6.02 8 4.04 8 2 8 C2.33 6.68 2.66 5.36 3 4 C2.01 3.67 1.02 3.34 0 3 C0 2.01 0 1.02 0 0 Z " fill="#5384E9" transform="translate(119,69)"/>
<path d="M0 0 C2 2 2 2 2 6 C2.66 6 3.32 6 4 6 C3.67 6.99 3.34 7.98 3 9 C0.69 7.02 -1.62 5.04 -4 3 C-3 1 -3 1 0 0 Z " fill="#4C7CE6" transform="translate(237,264)"/>
<path d="M0 0 C1.98 0 3.96 0 6 0 C3.42215154 2.64752004 1.08351902 4.94432065 -2 7 C-2.33 5.35 -2.66 3.7 -3 2 C-2.01 2.33 -1.02 2.66 0 3 C0 2.01 0 1.02 0 0 Z " fill="#557EE6" transform="translate(273,258)"/>
<path d="M0 0 C0.66 0 1.32 0 2 0 C2.33 1.32 2.66 2.64 3 4 C-2.75 9 -2.75 9 -5 9 C-5.33 8.01 -5.66 7.02 -6 6 C-5.38125 5.938125 -4.7625 5.87625 -4.125 5.8125 C-1.72238859 5.171081 -1.72238859 5.171081 -0.75 2.4375 C-0.5025 1.633125 -0.255 0.82875 0 0 Z " fill="#5285E7" transform="translate(397,435)"/>
<path d="M0 0 C1.14926266 0.95421808 2.29430541 1.91352045 3.4375 2.875 C4.07558594 3.40867187 4.71367187 3.94234375 5.37109375 4.4921875 C7 6 7 6 8 8 C6.02 8 4.04 8 2 8 C1.67 7.34 1.34 6.68 1 6 C1.33 5.34 1.66 4.68 2 4 C1.34 4 0.68 4 0 4 C0 2.68 0 1.36 0 0 Z " fill="#5481E4" transform="translate(242,317)"/>
<path d="M0 0 C0 0.99 0 1.98 0 3 C-1.65385233 4.34919532 -3.321702 5.68133728 -5 7 C-5.33 7.721875 -5.66 8.44375 -6 9.1875 C-6.495 10.0846875 -6.495 10.0846875 -7 11 C-9.625 11.75 -9.625 11.75 -12 12 C-8.32167983 7.47384007 -4.58913637 3.60575001 0 0 Z " fill="#7298E1" transform="translate(354,233)"/>
<path d="M0 0 C1.65 0 3.3 0 5 0 C5 0.66 5 1.32 5 2 C4.34 2 3.68 2 3 2 C3 2.66 3 3.32 3 4 C-1.47058824 8 -1.47058824 8 -4 8 C-4.33 8.66 -4.66 9.32 -5 10 C-4.49396008 7.83125748 -4.00016187 6.00032373 -3 4 C-2.01 4 -1.02 4 0 4 C0 2.68 0 1.36 0 0 Z " fill="#5F8AE3" transform="translate(318,220)"/>
<path d="M0 0 C0.33 0.99 0.66 1.98 1 3 C0 5 0 5 -2.4375 5.9375 C-5.29863959 6.84547289 -5.29863959 6.84547289 -7 10 C-7.99 9.67 -8.98 9.34 -10 9 C-8.37660195 7.29115995 -6.70680947 5.62553283 -5 4 C-4.34 4 -3.68 4 -3 4 C-2.67 3.01 -2.34 2.02 -2 1 C-1.34 0.67 -0.68 0.34 0 0 Z " fill="#6F95E5" transform="translate(393,198)"/>
<path d="M0 0 C3.7758544 0.52442422 6.22372155 1.32654667 9 4 C9 4.99 9 5.98 9 7 C9.66 7 10.32 7 11 7 C10.67 7.66 10.34 8.32 10 9 C8.66102417 8.04956626 7.32894573 7.08940853 6 6.125 C5.2575 5.59132812 4.515 5.05765625 3.75 4.5078125 C3.1725 4.01023438 2.595 3.51265625 2 3 C2 2.34 2 1.68 2 1 C1.34 0.67 0.68 0.34 0 0 Z " fill="#6C94E9" transform="translate(123,173)"/>
<path d="M0 0 C-1.24976756 3.65316671 -1.67098753 4.78065836 -5 7 C-5.99 6.67 -6.98 6.34 -8 6 C-6.24081631 1.94034532 -4.71412298 0 0 0 Z " fill="#477AE9" transform="translate(298,133)"/>
<path d="M0 0 C0.33 0.99 0.66 1.98 1 3 C0.67 3.66 0.34 4.32 0 5 C-2.3140622 5.73075648 -4.64828869 6.40138258 -7 7 C-7 7.66 -7 8.32 -7 9 C-8.32 8.67 -9.64 8.34 -11 8 C-7.37 5.36 -3.74 2.72 0 0 Z " fill="#6388E5" transform="translate(324,112)"/>
<path d="M0 0 C0.66 0.33 1.32 0.66 2 1 C-0.31537955 4.72114571 -2.28579473 7.61229661 -6 10 C-6.66 9.34 -7.32 8.68 -8 8 C-5.36 5.36 -2.72 2.72 0 0 Z " fill="#6188E6" transform="translate(330,254)"/>
<path d="M0 0 C1.98 0 3.96 0 6 0 C6.28875 0.61875 6.5775 1.2375 6.875 1.875 C7.93720042 4.13325765 7.93720042 4.13325765 10 6 C8.68 6.33 7.36 6.66 6 7 C6 6.34 6 5.68 6 5 C5.38125 4.731875 4.7625 4.46375 4.125 4.1875 C2 3 2 3 0 0 Z " fill="#6189E9" transform="translate(206,243)"/>
<path d="M0 0 C1.65 0.33 3.3 0.66 5 1 C5 2.65 5 4.3 5 6 C5.66 6 6.32 6 7 6 C6.67 6.66 6.34 7.32 6 8 C3.69 6.35 1.38 4.7 -1 3 C-0.67 2.01 -0.34 1.02 0 0 Z " fill="#5D89EF" transform="translate(100,434)"/>
<path d="M0 0 C0.99 0.33 1.98 0.66 3 1 C0.03 3.97 -2.94 6.94 -6 10 C-6.33 9.01 -6.66 8.02 -7 7 C-6.360625 6.7525 -5.72125 6.505 -5.0625 6.25 C-2.80939427 5.19851273 -2.80939427 5.19851273 -2.375 2.9375 C-2.189375 1.9784375 -2.189375 1.9784375 -2 1 C-1.34 0.67 -0.68 0.34 0 0 Z " fill="#6B94DD" transform="translate(304,337)"/>
<path d="M0 0 C0.48210937 0.42152344 0.96421875 0.84304688 1.4609375 1.27734375 C2.09257812 1.82519531 2.72421875 2.37304688 3.375 2.9375 C4.00148437 3.48277344 4.62796875 4.02804687 5.2734375 4.58984375 C6.95632334 6.06958624 6.95632334 6.06958624 9 7 C9 7.66 9 8.32 9 9 C6.0625 8.1875 6.0625 8.1875 3 7 C2.67 6.01 2.34 5.02 2 4 C1.34 4 0.68 4 0 4 C0 2.68 0 1.36 0 0 Z " fill="#5D86E8" transform="translate(199,278)"/>
<path d="M0 0 C0.66 0.33 1.32 0.66 2 1 C1.745504 2.48206495 1.47088238 3.96068615 1.1875 5.4375 C1.03667969 6.26121094 0.88585937 7.08492187 0.73046875 7.93359375 C0.48941406 8.61550781 0.24835938 9.29742187 0 10 C-0.99 10.33 -1.98 10.66 -3 11 C-3.08839127 7.81791443 -3.04351697 5.02619922 -2 2 C-1.34 1.34 -0.68 0.68 0 0 Z " fill="#3369EE" transform="translate(364,177)"/>
<path d="M0 0 C2.4375 0.8125 2.4375 0.8125 5 2 C5.33 2.99 5.66 3.98 6 5 C7.65 5 9.3 5 11 5 C10.34 6.32 9.68 7.64 9 9 C7.68412059 7.87895467 6.37239647 6.75303035 5.0625 5.625 C4.33160156 4.99851563 3.60070312 4.37203125 2.84765625 3.7265625 C1 2 1 2 0 0 Z " fill="#6D92EA" transform="translate(98,151)"/>
<path d="M0 0 C-0.5590888 3.24271506 -1.4132178 4.93057424 -4 7 C-4.66 7 -5.32 7 -6 7 C-6.33 5.68 -6.66 4.36 -7 3 C-3.375 0 -3.375 0 0 0 Z " fill="#4A80EA" transform="translate(428,129)"/>
<path d="M0 0 C1.44349674 0.73839246 2.87959051 1.49126643 4.3125 2.25 C5.11300781 2.66765625 5.91351563 3.0853125 6.73828125 3.515625 C9.13190204 5.08656783 10.43301591 6.6267037 12 9 C9.5625 8.625 9.5625 8.625 7 8 C6.67 7.34 6.34 6.68 6 6 C3.98330173 4.86649466 3.98330173 4.86649466 2 4 C2 3.34 2 2.68 2 2 C1.34 2 0.68 2 0 2 C0 1.34 0 0.68 0 0 Z " fill="#6E90E2" transform="translate(106,60)"/>
<path d="M0 0 C0 3 0 3 -1 6 C-2.875 7.25 -2.875 7.25 -5 8 C-5.99 7.67 -6.98 7.34 -8 7 C-6.71034824 5.62437146 -5.37310707 4.29233607 -4 3 C-3.34 3 -2.68 3 -2 3 C-2 2.34 -2 1.68 -2 1 C-1.34 0.67 -0.68 0.34 0 0 Z " fill="#6990E4" transform="translate(314,269)"/>
<path d="M0 0 C0.33 0.66 0.66 1.32 1 2 C1.99 2.33 2.98 2.66 4 3 C4 3.66 4 4.32 4 5 C4.61875 5.268125 5.2375 5.53625 5.875 5.8125 C8 7 8 7 10 10 C9.01 10 8.02 10 7 10 C6.6596875 9.071875 6.6596875 9.071875 6.3125 8.125 C4.62070165 5.38589791 3.00755839 4.94975528 0 4 C0 2.68 0 1.36 0 0 Z " fill="#6989E0" transform="translate(80,171)"/>
<path d="M0 0 C0.66 0.33 1.32 0.66 2 1 C-0.64478179 5.0367722 -3.75175242 6.87587621 -8 9 C-6.64531705 4.12314139 -4.28324091 2.51407619 0 0 Z " fill="#4772E5" transform="translate(432,164)"/>
<path d="M0 0 C4.04420651 1.77945087 7.46078487 4.39529673 11 7 C9.68 7.33 8.36 7.66 7 8 C6.67 7.01 6.34 6.02 6 5 C5.360625 4.855625 4.72125 4.71125 4.0625 4.5625 C2 4 2 4 0.75 1.9375 C0.5025 1.298125 0.255 0.65875 0 0 Z " fill="#7193E3" transform="translate(234,153)"/>
<path d="M0 0 C4.21912747 0.4794463 6.79663178 1.16625119 10 4 C9.67 5.32 9.34 6.64 9 8 C8.34 8 7.68 8 7 8 C6.67 6.35 6.34 4.7 6 3 C5.38125 2.87625 4.7625 2.7525 4.125 2.625 C2 2 2 2 0 0 Z " fill="#4976E5" transform="translate(224,148)"/>
<path d="M0 0 C0.99 0.33 1.98 0.66 3 1 C0.36 3.64 -2.28 6.28 -5 9 C-5.33 8.01 -5.66 7.02 -6 6 C-5.34 6 -4.68 6 -4 6 C-3.896875 5.38125 -3.79375 4.7625 -3.6875 4.125 C-3 2 -3 2 0 0 Z " fill="#5F87E1" transform="translate(282,359)"/>
<path d="M0 0 C1.29608947 0.93137592 2.58671632 1.8703566 3.875 2.8125 C4.59429687 3.33457031 5.31359375 3.85664063 6.0546875 4.39453125 C8 6 8 6 10 9 C8.35 9.33 6.7 9.66 5 10 C4.731875 9.21625 4.46375 8.4325 4.1875 7.625 C3.15185568 4.71885077 3.15185568 4.71885077 0 3 C0 2.01 0 1.02 0 0 Z " fill="#5D88E0" transform="translate(224,301)"/>
<path d="M0 0 C3.7952131 1.49097658 5.61042731 3.75700849 8 7 C6.68 7 5.36 7 4 7 C4 6.34 4 5.68 4 5 C2.68 4.67 1.36 4.34 0 4 C0 2.68 0 1.36 0 0 Z " fill="#668CE6" transform="translate(90,181)"/>
<path d="M0 0 C3.75563429 2.20919664 7.38776679 4.56384272 11 7 C10.67 7.66 10.34 8.32 10 9 C9.34 9 8.68 9 8 9 C8 8.34 8 7.68 8 7 C6.02 6.34 4.04 5.68 2 5 C2 4.01 2 3.02 2 2 C1.34 2 0.68 2 0 2 C0 1.34 0 0.68 0 0 Z " fill="#7596E3" transform="translate(181,114)"/>
<path d="M0 0 C0.33 0.99 0.66 1.98 1 3 C-4.41538462 7.06153846 -4.41538462 7.06153846 -7.375 6.75 C-7.91125 6.5025 -8.4475 6.255 -9 6 C-7.68 5.67 -6.36 5.34 -5 5 C-5 4.34 -5 3.68 -5 3 C-2.5 1.375 -2.5 1.375 0 0 Z " fill="#5C86E3" transform="translate(408,51)"/>
<path d="M0 0 C2.25 -0.25 2.25 -0.25 5 0 C7.3125 2 7.3125 2 9 4 C8.01 4.495 8.01 4.495 7 5 C7 4.34 7 3.68 7 3 C4.69 3.66 2.38 4.32 0 5 C0 3.35 0 1.7 0 0 Z " fill="#487AE9" transform="translate(65,33)"/>
<path d="M0 0 C0.99 0.33 1.98 0.66 3 1 C-0.96 4.465 -0.96 4.465 -5 8 C-5.33 6.68 -5.66 5.36 -6 4 C-4.68 3.67 -3.36 3.34 -2 3 C-2 2.34 -2 1.68 -2 1 C-1.34 0.67 -0.68 0.34 0 0 Z " fill="#7A98E6" transform="translate(429,412)"/>
<path d="M0 0 C2 3 2 3 2 5 C2.66 5.33 3.32 5.66 4 6 C3.01 6.495 3.01 6.495 2 7 C0.83054208 6.19152271 -0.33550461 5.37810888 -1.5 4.5625 C-2.1496875 4.11003906 -2.799375 3.65757812 -3.46875 3.19140625 C-3.9740625 2.79824219 -4.479375 2.40507812 -5 2 C-5 1.67 -5 1.34 -5 1 C-3.35 0.67 -1.7 0.34 0 0 Z " fill="#6489E7" transform="translate(67,405)"/>
<path d="M0 0 C1.32 0.33 2.64 0.66 4 1 C2.8803014 2.00593243 1.7540588 3.0045849 0.625 4 C-0.00148438 4.556875 -0.62796875 5.11375 -1.2734375 5.6875 C-3 7 -3 7 -5 7 C-4.67 5.68 -4.34 4.36 -4 3 C-3.01 3 -2.02 3 -1 3 C-0.67 2.01 -0.34 1.02 0 0 Z " fill="#6E8FE0" transform="translate(267,265)"/>
<path d="M0 0 C4.51478398 0.53115106 7.34666857 2.36620292 11 5 C10.34 5.66 9.68 6.32 9 7 C9 6.34 9 5.68 9 5 C6.03 4.01 3.06 3.02 0 2 C0 1.34 0 0.68 0 0 Z " fill="#6690E5" transform="translate(80,43)"/>
<path d="M0 0 C1.98 0.99 1.98 0.99 4 2 C3.01 2.33 2.02 2.66 1 3 C1 7.95 1 12.9 1 18 C0.67 18 0.34 18 0 18 C0 12.06 0 6.12 0 0 Z " fill="#5179C7" transform="translate(53,22)"/>
<path d="M0 0 C1.32 0 2.64 0 4 0 C4 0.66 4 1.32 4 2 C5.65 1.67 7.3 1.34 9 1 C8.67 2.32 8.34 3.64 8 5 C4.20411134 4.45773019 2.52788007 2.79872437 0 0 Z " fill="#507DEA" transform="translate(241,273)"/>
<path d="M0 0 C1.32 0 2.64 0 4 0 C4 0.99 4 1.98 4 3 C5.65 3.33 7.3 3.66 9 4 C8.01 4.495 8.01 4.495 7 5 C6.67 5.66 6.34 6.32 6 7 C3.95880212 5.38405168 1.95927063 3.7143618 0 2 C0 1.34 0 0.68 0 0 Z " fill="#6A91E8" transform="translate(138,185)"/>
<path d="M0 0 C1.32 0.33 2.64 0.66 4 1 C1.36 2.98 -1.28 4.96 -4 7 C-4 5.35 -4 3.7 -4 2 C-2.68 2 -1.36 2 0 2 C0 1.34 0 0.68 0 0 Z " fill="#6A90E9" transform="translate(412,425)"/>
<path d="M0 0 C2.31 0.66 4.62 1.32 7 2 C7 3.65 7 5.3 7 7 C5.83040013 6.02433888 4.66438823 5.044375 3.5 4.0625 C2.8503125 3.51722656 2.200625 2.97195313 1.53125 2.41015625 C1.0259375 1.94480469 0.520625 1.47945313 0 1 C0 0.67 0 0.34 0 0 Z " fill="#5F87EA" transform="translate(204,347)"/>
<path d="M0 0 C-2.64 1.98 -5.28 3.96 -8 6 C-7.67 4.02 -7.34 2.04 -7 0 C-4 -1 -4 -1 0 0 Z " fill="#688FE3" transform="translate(309,234)"/>
<path d="M0 0 C2.97 0.99 5.94 1.98 9 3 C8.67 4.32 8.34 5.64 8 7 C6.68 6.34 5.36 5.68 4 5 C4 4.34 4 3.68 4 3 C2.68 2.34 1.36 1.68 0 1 C0 0.67 0 0.34 0 0 Z " fill="#608BE6" transform="translate(167,210)"/>
<path d="M0 0 C3.0831351 1.19899698 6.06279492 2.47700477 9 4 C8.67 4.99 8.34 5.98 8 7 C7.01 6.67 6.02 6.34 5 6 C5 5.34 5 4.68 5 4 C4.360625 3.71125 3.72125 3.4225 3.0625 3.125 C1 2 1 2 0 0 Z " fill="#6287E6" transform="translate(159,203)"/>
<path d="M0 0 C0.763125 0.474375 1.52625 0.94875 2.3125 1.4375 C4.96410548 3.10106097 4.96410548 3.10106097 8 4 C7.67 4.99 7.34 5.98 7 7 C4.03 6.505 4.03 6.505 1 6 C0.67 4.02 0.34 2.04 0 0 Z " fill="#5580EA" transform="translate(245,161)"/>
<path d="M0 0 C3.465 1.485 3.465 1.485 7 3 C7 3.99 7 4.98 7 6 C7.99 6.33 8.98 6.66 10 7 C8.68 7.33 7.36 7.66 6 8 C6 7.01 6 6.02 6 5 C4.68 4.67 3.36 4.34 2 4 C2 3.34 2 2.68 2 2 C1.34 2 0.68 2 0 2 C0 1.34 0 0.68 0 0 Z " fill="#3B6EE8" transform="translate(86,47)"/>
<path d="M0 0 C0 1.98 0 3.96 0 6 C-0.99 6.495 -0.99 6.495 -2 7 C-2.99 6.01 -3.98 5.02 -5 4 C-4.67 3.01 -4.34 2.02 -4 1 C-2 0 -2 0 0 0 Z " fill="#2B69EF" transform="translate(447,26)"/>
<path d="M0 0 C1.32 0 2.64 0 4 0 C4.12375 0.804375 4.2475 1.60875 4.375 2.4375 C4.684375 3.7059375 4.684375 3.7059375 5 5 C5.66 5.33 6.32 5.66 7 6 C4 6 4 6 1.8125 4.125 C0 2 0 2 0 0 Z " fill="#5A8AE8" transform="translate(145,190)"/>
<path d="M0 0 C0 0.66 0 1.32 0 2 C-0.66 2 -1.32 2 -2 2 C-2 2.66 -2 3.32 -2 4 C-3.98 4.99 -3.98 4.99 -6 6 C-6 4.35 -6 2.7 -6 1 C-4 0 -4 0 0 0 Z " fill="#4683EB" transform="translate(392,161)"/>
<path d="M0 0 C-4.455 1.485 -4.455 1.485 -9 3 C-9.33 2.34 -9.66 1.68 -10 1 C-9.67 0.34 -9.34 -0.32 -9 -1 C-4.86808251 -2.34008135 -4.11651727 -2.05825864 0 0 Z " fill="#356BF4" transform="translate(194,124)"/>
<path d="M0 0 C0 0.99 0 1.98 0 3 C-3.6125362 4.84827434 -7.2089881 6.55049545 -11 8 C-3.21621622 0 -3.21621622 0 0 0 Z " fill="#7FA1E3" transform="translate(373,77)"/>
<path d="M0 0 C1.32 0 2.64 0 4 0 C4 1.32 4 2.64 4 4 C4.99 4.33 5.98 4.66 7 5 C7 5.66 7 6.32 7 7 C6.34 7 5.68 7 5 7 C5 6.34 5 5.68 5 5 C4.360625 4.731875 3.72125 4.46375 3.0625 4.1875 C1 3 1 3 0 0 Z " fill="#6A8FE5" transform="translate(142,469)"/>
<path d="M0 0 C-4.5 3 -4.5 3 -9 6 C-9 4.68 -9 3.36 -9 2 C-8.01 2 -7.02 2 -6 2 C-6 1.34 -6 0.68 -6 0 C-3.50907189 -1.24546405 -2.58919267 -0.7767578 0 0 Z " fill="#739EE6" transform="translate(448,401)"/>
<path d="M0 0 C4.75 1.875 4.75 1.875 7 3 C7.625 5.5625 7.625 5.5625 8 8 C6.85073734 7.04578192 5.70569459 6.08647955 4.5625 5.125 C3.92441406 4.59132813 3.28632813 4.05765625 2.62890625 3.5078125 C1 2 1 2 0 0 Z " fill="#618CE5" transform="translate(194,337)"/>
<path d="M0 0 C3.26460973 1.80412643 4.88929795 2.83394693 7 6 C5.35 6 3.7 6 2 6 C1.34 4.02 0.68 2.04 0 0 Z " fill="#5881E1" transform="translate(208,287)"/>
<path d="M0 0 C-1 3 -1 3 -3.9375 4.75 C-5.4534375 5.36875 -5.4534375 5.36875 -7 6 C-7.66 5.67 -8.32 5.34 -9 5 C-3.375 0 -3.375 0 0 0 Z " fill="#5D8FE9" transform="translate(364,227)"/>
<path d="M0 0 C2.97 0.99 5.94 1.98 9 3 C8.34 4.32 7.68 5.64 7 7 C5.83040013 6.02433888 4.66438823 5.044375 3.5 4.0625 C2.8503125 3.51722656 2.200625 2.97195312 1.53125 2.41015625 C1.0259375 1.94480469 0.520625 1.47945312 0 1 C0 0.67 0 0.34 0 0 Z " fill="#5C86E8" transform="translate(115,166)"/>
<path d="M0 0 C2 0 2 0 3.625 1.375 C5 3 5 3 5 5 C5.66 5.33 6.32 5.66 7 6 C5.35 6 3.7 6 2 6 C1.34 4.02 0.68 2.04 0 0 Z " fill="#437AEB" transform="translate(70,125)"/>
<path d="M0 0 C0.66 0 1.32 0 2 0 C2.33 0.99 2.66 1.98 3 3 C1.02 4.32 -0.96 5.64 -3 7 C-3 5.35 -3 3.7 -3 2 C-2.01 2 -1.02 2 0 2 C0 1.34 0 0.68 0 0 Z " fill="#6992E7" transform="translate(445,113)"/>
<path d="M0 0 C0.66 0.33 1.32 0.66 2 1 C-0.35380297 4.92300495 -2.64464931 5.83857315 -7 7 C-7 6.34 -7 5.68 -7 5 C-5.46875 3.7109375 -5.46875 3.7109375 -3.5 2.375 C-2.8503125 1.92898437 -2.200625 1.48296875 -1.53125 1.0234375 C-1.0259375 0.68570313 -0.520625 0.34796875 0 0 Z " fill="#7F9EE4" transform="translate(344,97)"/>
<path d="M0 0 C0.66 0.33 1.32 0.66 2 1 C1.4375 2.9375 1.4375 2.9375 0 5 C-3.625 5.75 -3.625 5.75 -7 6 C-6.21625 5.38125 -5.4325 4.7625 -4.625 4.125 C-2.03162353 2.10141339 -2.03162353 2.10141339 0 0 Z " fill="#709CE8" transform="translate(382,69)"/>
<path d="M0 0 C1.32 0 2.64 0 4 0 C4.33 1.32 4.66 2.64 5 4 C3.35 4.33 1.7 4.66 0 5 C0 3.35 0 1.7 0 0 Z " fill="#2C68EE" transform="translate(115,69)"/>
<path d="M0 0 C0.66 0.33 1.32 0.66 2 1 C0.3125 3.5 0.3125 3.5 -2 6 C-4.75 6.3125 -4.75 6.3125 -7 6 C-6.21625 5.38125 -5.4325 4.7625 -4.625 4.125 C-2.03162353 2.10141339 -2.03162353 2.10141339 0 0 Z " fill="#6891DF" transform="translate(436,30)"/>
<path d="M0 0 C0.99 1.32 1.98 2.64 3 4 C2.34 4.66 1.68 5.32 1 6 C-0.65 4.35 -2.3 2.7 -4 1 C-2.68 0.67 -1.36 0.34 0 0 Z " fill="#668CE7" transform="translate(79,415)"/>
<path d="M0 0 C1.17219543 0.78345715 2.33763668 1.57702836 3.5 2.375 C4.47453125 3.03628906 4.47453125 3.03628906 5.46875 3.7109375 C5.9740625 4.13632812 6.479375 4.56171875 7 5 C7 5.66 7 6.32 7 7 C6.01 7 5.02 7 4 7 C4 6.34 4 5.68 4 5 C3.01 4.67 2.02 4.34 1 4 C0.3125 1.9375 0.3125 1.9375 0 0 Z " fill="#7598E4" transform="translate(234,310)"/>
<path d="M0 0 C0.66 1.32 1.32 2.64 2 4 C-0.31 4.66 -2.62 5.32 -5 6 C-5 5.34 -5 4.68 -5 4 C-3.37373596 2.61767557 -1.7074998 1.28062485 0 0 Z " fill="#648EEC" transform="translate(270,308)"/>
<path d="M0 0 C0.66 0 1.32 0 2 0 C2.99 1.98 3.98 3.96 5 6 C2.69 5.34 0.38 4.68 -2 4 C-2 3.34 -2 2.68 -2 2 C-1.34 2 -0.68 2 0 2 C0 1.34 0 0.68 0 0 Z " fill="#2F6AEB" transform="translate(184,266)"/>
<path d="M0 0 C0.99 0.99 1.98 1.98 3 3 C2.6875 5.6875 2.6875 5.6875 2 8 C1.01 8.33 0.02 8.66 -1 9 C-0.67 6.03 -0.34 3.06 0 0 Z " fill="#4072EC" transform="translate(280,249)"/>
<path d="M0 0 C1.98 0.99 3.96 1.98 6 3 C6 3.66 6 4.32 6 5 C6.66 5.33 7.32 5.66 8 6 C7.01 6.33 6.02 6.66 5 7 C5 6.34 5 5.68 5 5 C3.68 4.67 2.36 4.34 1 4 C0.67 2.68 0.34 1.36 0 0 Z " fill="#6A8CE4" transform="translate(145,88)"/>
<path d="M0 0 C0.99 0 1.98 0 3 0 C3 1.65 3 3.3 3 5 C1.68 4.67 0.36 4.34 -1 4 C-0.67 2.68 -0.34 1.36 0 0 Z " fill="#3A71ED" transform="translate(203,342)"/>
<path d="M0 0 C0.66 0 1.32 0 2 0 C2.33 0.99 2.66 1.98 3 3 C2.67 3.66 2.34 4.32 2 5 C2.66 5 3.32 5 4 5 C3.67 5.66 3.34 6.32 3 7 C1.35 5.35 -0.3 3.7 -2 2 C-1.34 2 -0.68 2 0 2 C0 1.34 0 0.68 0 0 Z " fill="#5C8DE7" transform="translate(229,259)"/>
<path d="M0 0 C0.99 0 1.98 0 3 0 C1.60667426 3.36720387 0.0210714 4.9859524 -3 7 C-2.25 2.25 -2.25 2.25 0 0 Z " fill="#5F86E4" transform="translate(285,249)"/>
<path d="M0 0 C1.98 0.66 3.96 1.32 6 2 C6 2.66 6 3.32 6 4 C6.66 4 7.32 4 8 4 C7.67 4.99 7.34 5.98 7 7 C5.83040013 6.02433888 4.66438823 5.044375 3.5 4.0625 C2.8503125 3.51722656 2.200625 2.97195312 1.53125 2.41015625 C1.0259375 1.94480469 0.520625 1.47945312 0 1 C0 0.67 0 0.34 0 0 Z " fill="#7596E5" transform="translate(175,217)"/>
<path d="M0 0 C1.98 0 3.96 0 6 0 C4.71937515 1.7074998 3.38232443 3.37373596 2 5 C1.34 5 0.68 5 0 5 C0 3.35 0 1.7 0 0 Z " fill="#5D85E3" transform="translate(369,176)"/>
<path d="M0 0 C0.99 0.33 1.98 0.66 3 1 C3 1.99 3 2.98 3 4 C1.35 4.33 -0.3 4.66 -2 5 C-2 2 -2 2 0 0 Z " fill="#316DE7" transform="translate(383,164)"/>
<path d="M0 0 C2.01920337 1.30406884 4.01924973 2.63823419 6 4 C6 4.33 6 4.66 6 5 C4.02 5 2.04 5 0 5 C-0.33 4.01 -0.66 3.02 -1 2 C-0.67 1.34 -0.34 0.68 0 0 Z " fill="#6490EB" transform="translate(161,99)"/>
<path d="M0 0 C2.97 0.495 2.97 0.495 6 1 C6 1.99 6 2.98 6 4 C6.66 4.33 7.32 4.66 8 5 C5 5 5 5 2.3125 2.5 C1.549375 1.675 0.78625 0.85 0 0 Z " fill="#7096E9" transform="translate(86,425)"/>
<path d="M0 0 C1.98 0.66 3.96 1.32 6 2 C6.33 3.65 6.66 5.3 7 7 C5.83040013 6.02433888 4.66438823 5.044375 3.5 4.0625 C2.8503125 3.51722656 2.200625 2.97195313 1.53125 2.41015625 C1.0259375 1.94480469 0.520625 1.47945313 0 1 C0 0.67 0 0.34 0 0 Z " fill="#678AEA" transform="translate(219,362)"/>
<path d="M0 0 C0.99 0 1.98 0 3 0 C3 0.99 3 1.98 3 3 C0.5 4.6875 0.5 4.6875 -2 6 C-2 4.68 -2 3.36 -2 2 C-1.34 2 -0.68 2 0 2 C0 1.34 0 0.68 0 0 Z " fill="#4B75DF" transform="translate(324,315)"/>
<path d="M0 0 C2.97 0.495 2.97 0.495 6 1 C6 1.99 6 2.98 6 4 C6.66 4.33 7.32 4.66 8 5 C5 5 5 5 2.3125 2.5 C1.549375 1.675 0.78625 0.85 0 0 Z " fill="#678EEA" transform="translate(108,160)"/>
<path d="M0 0 C2.3125 0.1875 2.3125 0.1875 5 1 C6.8125 3.5625 6.8125 3.5625 8 6 C4.63408134 4.55746343 2.48952921 2.66735273 0 0 Z " fill="#7D9DED" transform="translate(73,131)"/>
<path d="M0 0 C0.99 0.33 1.98 0.66 3 1 C2.01 2.485 2.01 2.485 1 4 C-1.625 4.1875 -1.625 4.1875 -4 4 C-2.68 2.68 -1.36 1.36 0 0 Z " fill="#3067E9" transform="translate(348,96)"/>
<path d="M0 0 C0.66 0.33 1.32 0.66 2 1 C1.375 2.9375 1.375 2.9375 0 5 C-3.125 5.75 -3.125 5.75 -6 6 C-4.71034824 4.62437146 -3.37310707 3.29233607 -2 2 C-1.34 2 -0.68 2 0 2 C0 1.34 0 0.68 0 0 Z " fill="#7398E5" transform="translate(390,63)"/>
</svg>
